<svg width="18" height="20" viewBox="0 0 18 20" fill="none" xmlns="http://www.w3.org/2000/svg">
<path d="M8.78906 0C3.94277 0 0 3.94277 0 8.78906C0 9.32613 0 13.4808 0 13.5547C0 14.5239 0.788555 15.3125 1.75781 15.3125H2.44453C2.68641 15.9945 3.3377 16.4844 4.10156 16.4844C5.07082 16.4844 5.85938 15.6958 5.85938 14.7266V9.96094C5.85938 8.99168 5.07082 8.20312 4.10156 8.20312C3.3377 8.20312 2.68641 8.69305 2.44453 9.375H1.75781C1.55238 9.375 1.35527 9.41074 1.17188 9.47578V8.78906C1.17188 4.58895 4.58895 1.17188 8.78906 1.17188C12.9892 1.17188 16.4062 4.58895 16.4062 8.78906V9.47578C16.2229 9.41074 16.0257 9.375 15.8203 9.375H15.1336C14.8917 8.69305 14.2404 8.20312 13.4766 8.20312C12.5073 8.20312 11.7188 8.99168 11.7188 9.96094V14.7266C11.7188 15.6958 12.5073 16.4844 13.4766 16.4844C13.6539 16.4844 13.8252 16.4577 13.9868 16.4086C13.7676 17.1298 13.0966 17.6562 12.3047 17.6562H10.4461C10.2042 16.9743 9.55293 16.4844 8.78906 16.4844C7.8198 16.4844 7.03125 17.2729 7.03125 18.2422C7.03125 19.2114 7.8198 20 8.78906 20C9.55293 20 10.2042 19.5101 10.4461 18.8281H12.3047C13.9201 18.8281 15.2344 17.5139 15.2344 15.8984V15.3125H15.8203C16.7896 15.3125 17.5781 14.5239 17.5781 13.5547C17.5781 13.4819 17.5781 9.3257 17.5781 8.78906C17.5781 3.94277 13.6354 0 8.78906 0ZM3.51562 9.96094C3.51562 9.63785 3.77848 9.375 4.10156 9.375C4.42465 9.375 4.6875 9.63785 4.6875 9.96094V14.7266C4.6875 15.0496 4.42465 15.3125 4.10156 15.3125C3.77848 15.3125 3.51562 15.0496 3.51562 14.7266V9.96094ZM1.75781 10.5469H2.34375V14.1406H1.75781C1.43473 14.1406 1.17188 13.8778 1.17188 13.5547V11.1328C1.17188 10.8097 1.43473 10.5469 1.75781 10.5469ZM8.78906 18.8281C8.46598 18.8281 8.20312 18.5653 8.20312 18.2422C8.20312 17.9191 8.46598 17.6562 8.78906 17.6562C9.11215 17.6562 9.375 17.9191 9.375 18.2422C9.375 18.5653 9.11215 18.8281 8.78906 18.8281ZM14.0625 14.7266C14.0625 15.0496 13.7996 15.3125 13.4766 15.3125C13.1535 15.3125 12.8906 15.0496 12.8906 14.7266V9.96094C12.8906 9.63785 13.1535 9.375 13.4766 9.375C13.7996 9.375 14.0625 9.63785 14.0625 9.96094V14.7266ZM16.4062 13.5547C16.4062 13.8778 16.1434 14.1406 15.8203 14.1406H15.2344V10.5469H15.8203C16.1434 10.5469 16.4062 10.8097 16.4062 11.1328V13.5547Z" fill="#0072FF"/>
</svg>
