<svg width="20" height="20" viewBox="0 0 20 20" fill="none" xmlns="http://www.w3.org/2000/svg">
<path d="M-0.000173569 3.63211H4.61057C4.10467 2.8891 4.05584 1.88594 4.56643 1.07965C5.25162 -0.0024581 6.68998 -0.325505 7.77205 0.35969C8.04588 0.533128 8.50295 0.938636 9.3069 2.45078C9.37877 2.58633 9.44752 2.71914 9.51236 2.84688C9.57721 2.71914 9.64596 2.58633 9.71783 2.45078C10.5218 0.938596 10.9788 0.533128 11.2527 0.35969C12.3347 -0.325505 13.7731 -0.00241905 14.4583 1.07965C14.7903 1.60391 14.8982 2.22617 14.7622 2.83168C14.697 3.1227 14.579 3.39305 14.4157 3.63211H19.0249V9.30461H18.3397V20H0.68502V9.30461H-0.000173569V3.63211ZM7.14545 1.35C6.95873 1.23164 6.74701 1.1711 6.53135 1.1711C6.44697 1.1711 6.36143 1.18047 6.27705 1.19922C5.97705 1.2668 5.72115 1.44688 5.55631 1.70668C5.21686 2.24305 5.37701 2.95594 5.91334 3.29543C6.236 3.50012 7.41889 3.61418 8.59666 3.63176C8.07713 2.57461 7.46811 1.5543 7.14545 1.35ZM13.4684 1.7066C13.3035 1.44684 13.0476 1.26676 12.7476 1.19914C12.6633 1.18039 12.5777 1.17102 12.4933 1.17102C12.2777 1.17102 12.066 1.23157 11.8792 1.34992C11.5566 1.55422 10.9476 2.57457 10.428 3.63168C11.0167 3.6227 11.6069 3.58988 12.0902 3.53364C12.5734 3.47739 12.95 3.3977 13.1113 3.29535C13.3711 3.1309 13.5516 2.87504 13.6188 2.575C13.6864 2.275 13.6329 1.96641 13.4684 1.7066ZM11.8836 18.8281H17.1678V9.30461H11.8836V18.8281ZM11.8836 8.1327H17.8529V4.80403H11.8835V8.1327H11.8836ZM8.31307 18.8281H10.7116V4.80403H8.31307V18.8281ZM1.85694 18.8281H7.14115V9.30461H1.85694V18.8281ZM1.17174 8.1327H7.14115V4.80403H1.17174V8.1327Z" fill="#0072FF"/>
</svg>
