<svg width="25" height="25" viewBox="0 0 25 25" fill="none" xmlns="http://www.w3.org/2000/svg">
<path d="M22.9167 5.20835V4.16665C22.9167 3.59243 22.4498 3.125 21.875 3.125H18.75C18.1752 3.125 17.7083 3.59243 17.7083 4.16665V5.2083H17.4032L16.9719 4.777C16.5843 4.38892 16.0472 4.16665 15.4989 4.16665H9.50112C8.95283 4.16665 8.41572 4.38892 8.02812 4.777L7.59683 5.2083H7.29165V4.16665C7.29165 3.59243 6.82476 3.125 6.25 3.125H3.125C2.55024 3.125 2.08335 3.59243 2.08335 4.16665V5.2083C0.934863 5.20835 0 6.14268 0 7.29165V19.7917C0 20.9407 0.934863 21.875 2.08335 21.875H22.9167C24.0651 21.875 25 20.9407 25 19.7917V7.29165C25 6.14268 24.0651 5.20835 22.9167 5.20835Z" fill="#212121"/>
<path d="M23.9583 19.7917C23.9583 20.3659 23.4914 20.8333 22.9167 20.8333H2.08334C1.50858 20.8333 1.04169 20.3659 1.04169 19.7917V7.29165C1.04169 6.71743 1.50863 6.25 2.08334 6.25H7.81249C7.95082 6.25 8.08309 6.19507 8.18075 6.09741L8.76464 5.51353C8.95892 5.31973 9.22748 5.20835 9.50111 5.20835H15.4988C15.7724 5.20835 16.041 5.31973 16.2353 5.51353L16.8192 6.09741C16.9168 6.19507 17.0491 6.25 17.1874 6.25H22.9166C23.4913 6.25 23.9582 6.71743 23.9582 7.29165V19.7917H23.9583Z" fill="white"/>
<path d="M22.9166 19.7917H2.08334C1.50858 19.7917 1.04169 19.3865 1.04169 18.8888V19.7917C1.04169 20.3659 1.50863 20.8333 2.08334 20.8333H22.9167C23.4914 20.8333 23.9583 20.3659 23.9583 19.7917V18.8888C23.9583 19.3865 23.4914 19.7917 22.9166 19.7917Z" fill="#0072FF"/>
<path d="M21.3541 9.375H20.8333V8.85415C20.8333 8.56626 20.6003 8.3333 20.3124 8.3333C20.0245 8.3333 19.7916 8.56626 19.7916 8.85415V9.375H19.2707C18.9828 9.375 18.7499 9.60796 18.7499 9.89585C18.7499 10.1837 18.9828 10.4167 19.2707 10.4167H19.7916V10.9375C19.7916 11.2254 20.0245 11.4583 20.3124 11.4583C20.6003 11.4583 20.8333 11.2254 20.8333 10.9375V10.4166H21.3541C21.642 10.4166 21.875 10.1837 21.875 9.8958C21.875 9.60791 21.642 9.375 21.3541 9.375Z" fill="#0072FF"/>
<path d="M21.875 4.16665H18.75V5.2083H21.875V4.16665Z" fill="#0072FF"/>
<path d="M6.25 4.16665H3.125V5.2083H6.25V4.16665Z" fill="#0072FF"/>
<path d="M5.72915 9.375H3.64585C3.35796 9.375 3.125 9.60796 3.125 9.89585C3.125 10.1837 3.35796 10.4167 3.64585 10.4167H5.7292C6.01709 10.4167 6.25005 10.1837 6.25005 9.89585C6.25005 9.60796 6.01704 9.375 5.72915 9.375Z" fill="#0072FF"/>
</svg>
