<svg width="36" height="19" viewBox="0 0 36 19" fill="none" xmlns="http://www.w3.org/2000/svg">
<path d="M29.5118 7.30399C26.5824 7.30399 24.208 9.67835 24.208 12.6078C24.208 15.5373 26.5824 17.9117 29.5118 17.9117C32.4413 17.9117 34.8157 15.5373 34.8157 12.6078C34.8157 9.67835 32.4407 7.30399 29.5118 7.30399ZM29.5118 15.5544C27.8847 15.5544 26.5653 14.2349 26.5653 12.6078C26.5653 10.9807 27.8847 9.66125 29.5118 9.66125C31.139 9.66125 32.4584 10.9807 32.4584 12.6078C32.4584 14.2349 31.139 15.5544 29.5118 15.5544Z" fill="white"/>
<path d="M19.7747 11.4292H14.9694L14.03 9.08195C13.7642 8.41718 14.0877 7.6629 14.7525 7.39649C14.9057 7.33522 15.069 7.30399 15.234 7.30399H17.2466C17.7775 7.30221 18.2554 7.62517 18.4505 8.11901L19.7747 11.4292Z" fill="#0072FF"/>
<path d="M5.93909 7.30399C3.00962 7.30399 0.635254 9.67835 0.635254 12.6078C0.635254 15.5373 3.00962 17.9117 5.93909 17.9117C8.86856 17.9117 11.2429 15.5373 11.2429 12.6078C11.2429 9.67835 8.86803 7.30399 5.93909 7.30399ZM5.93909 15.5544C4.31198 15.5544 2.99252 14.2349 2.99252 12.6078C2.99252 10.9807 4.31198 9.66125 5.93909 9.66125C7.56621 9.66125 8.88567 10.9807 8.88567 12.6078C8.88567 14.2349 7.56621 15.5544 5.93909 15.5544Z" fill="white"/>
<path d="M8.29635 4.94669H7.70703V1.4108H8.29635C9.27282 1.4108 10.0643 2.20227 10.0643 3.17874C10.0643 4.15468 9.27282 4.94669 8.29635 4.94669Z" fill="#0072FF"/>
<path d="M27.7437 4.94665H27.4967C26.8797 4.94665 26.2663 5.04624 25.6811 5.24131C25.0959 5.43637 24.4824 5.53596 23.8654 5.53596H19.4933L18.7749 3.1787H23.8654C24.4825 3.1787 25.0959 3.07911 25.6811 2.88404C26.2663 2.68898 26.8798 2.58939 27.4968 2.58939H27.7437C28.3949 2.58939 28.9224 3.11684 28.9224 3.76802C28.9223 4.41866 28.3942 4.94665 27.7437 4.94665Z" fill="#0072FF"/>
<path d="M30.1015 11.4292H20.6724V13.7864H30.1015V11.4292Z" fill="white"/>
<path d="M19.718 6.29331L20.068 7.47194C20.1423 7.72184 20.3721 7.8933 20.6332 7.8933H23.2545C23.4779 7.8933 23.6818 7.76719 23.7814 7.56741L24.3707 6.38878C24.5162 6.09764 24.3984 5.74351 24.1067 5.5979C24.0248 5.55726 23.9352 5.53604 23.8438 5.53604H20.2832C19.9579 5.53604 19.6939 5.79947 19.6939 6.12536C19.6932 6.18192 19.7015 6.23848 19.718 6.29331Z" fill="#0072FF"/>
<path d="M19.4935 5.536H11.8324C11.1813 5.536 10.6538 5.00855 10.6538 4.35737V3.76806C10.6538 2.46624 11.7092 1.4108 13.0111 1.4108H15.3683C17.6466 1.4108 19.4935 3.25771 19.4935 5.536Z" fill="white"/>
<path d="M15.368 10.8399H20.0826C21.059 10.8399 21.8505 11.6314 21.8505 12.6078C21.8505 13.5843 21.059 14.3758 20.0826 14.3758H15.368C14.3916 14.3758 13.6001 13.5843 13.6001 12.6078C13.6001 11.6313 14.3915 10.8399 15.368 10.8399Z" fill="#0072FF"/>
<path d="M9.97436 9.17035C9.67202 10.0231 9.2342 10.821 8.67784 11.5347C9.27717 13.0416 8.54112 14.7488 7.03422 15.3476C5.89213 15.802 4.58798 15.4967 3.76647 14.5827C2.93083 14.8019 2.0769 14.9451 1.21533 15.0093C2.5395 17.6206 5.72948 18.6637 8.34075 17.3395C10.952 16.0152 11.9951 12.8253 10.6709 10.214C10.4811 9.83982 10.2472 9.48914 9.97436 9.17035Z" fill="white"/>
<path d="M33.5466 9.17035C33.2443 10.0231 32.8065 10.821 32.2501 11.5347C32.8494 13.0416 32.1134 14.7488 30.6065 15.3476C29.4644 15.802 28.1603 15.4967 27.3387 14.5827C26.5031 14.8019 25.6492 14.9451 24.7876 15.0093C26.1118 17.6206 29.3018 18.6637 31.913 17.3395C34.5243 16.0152 35.5674 12.8253 34.2432 10.214C34.0535 9.83982 33.8195 9.48914 33.5466 9.17035Z" fill="white"/>
<path d="M29.5119 6.71467C26.9355 6.70406 24.6554 8.37891 23.894 10.8399H22.9705L25.2435 5.96914C25.4526 5.922 25.6607 5.86836 25.8652 5.8006C26.3915 5.62496 26.9424 5.53538 27.497 5.53598H31.2798C31.6051 5.53598 31.8691 5.27195 31.8691 4.94666C31.8691 4.62137 31.6051 4.35735 31.2798 4.35735H30.4654L30.6286 4.03146C30.641 4.00672 30.6516 3.9808 30.6605 3.95428C30.7406 3.71385 30.9657 3.55121 31.2192 3.55121H31.5486V2.37258H31.2209C30.4765 2.37258 29.8124 2.8387 29.559 3.53828L29.5001 3.65259C29.4411 2.72499 28.6733 2.00253 27.7439 2.00014H27.497C26.8157 2.00014 26.1392 2.10975 25.4934 2.32484C24.9683 2.49988 24.419 2.58946 23.8656 2.58946H19.0427C18.1499 1.47269 16.7979 0.822109 15.3682 0.821513H13.011C12.4506 0.822705 11.902 0.985351 11.4311 1.28943L11.7847 0.464395L10.7015 0L10.022 1.5876C9.58005 1.10139 8.9536 0.823241 8.29653 0.821513H7.70721C7.38192 0.821513 7.1179 1.08554 7.1179 1.41083V4.94672C7.1179 5.27201 7.38192 5.53604 7.70721 5.53604H8.29653C8.30833 5.53604 8.31894 5.53604 8.33074 5.53252L7.70721 6.98638C4.59322 5.99745 1.26712 7.72004 0.278846 10.834C-0.709425 13.9479 1.01257 17.2735 4.1265 18.2623C7.24043 19.2512 10.566 17.5286 11.5549 14.4147C12.407 11.7315 11.2502 8.8197 8.78917 7.4531L9.87703 4.91549L13.0499 13.0746H13.057C13.2792 14.1749 14.2462 14.9657 15.3683 14.9651H20.0828C20.6515 14.9628 21.2002 14.7536 21.6257 14.3758H23.894C24.8704 17.4803 28.1789 19.2059 31.2834 18.2294C34.3879 17.2529 36.1134 13.9444 35.137 10.8399C34.365 8.38302 32.0866 6.71288 29.5119 6.71467ZM8.29653 12.6078C8.29653 13.9096 7.24109 14.9651 5.93926 14.9651C4.63744 14.9651 3.582 13.9096 3.582 12.6078C3.582 11.306 4.63744 10.2506 5.93926 10.2506C6.05769 10.2535 6.17617 10.2653 6.29287 10.2865L5.39769 12.3756L6.48084 12.84L7.37542 10.7521C7.95353 11.194 8.29414 11.8794 8.29653 12.6078ZM10.6538 12.6078C10.662 15.2197 8.55107 17.3436 5.93926 17.3518C3.32746 17.3601 1.20353 15.2492 1.19524 12.6373C1.18696 10.0255 3.29789 7.90158 5.90976 7.8933C6.35944 7.89211 6.80673 7.95457 7.2387 8.07955L6.76727 9.1745C4.86791 8.71421 2.95496 9.8811 2.49474 11.7805C2.03451 13.6798 3.20134 15.5928 5.10071 16.053C7.00007 16.5132 8.91302 15.3464 9.37324 13.447C9.72803 11.9826 9.11691 10.4545 7.85043 9.63889L8.32186 8.54632C9.76391 9.39072 10.6514 10.9359 10.6538 12.6078ZM8.90998 4.18057C8.72612 4.29548 8.51335 4.35681 8.29653 4.35735V2.00008C8.8505 2.00068 9.32902 2.3867 9.44685 2.92768L8.90998 4.18057ZM23.2546 7.30398H20.6391L20.2855 6.12535H23.8438L23.2546 7.30398ZM23.8656 3.76803C24.5469 3.76803 25.2234 3.65843 25.8693 3.44333C26.3944 3.26829 26.9436 3.17871 27.497 3.17871H27.7439C28.0692 3.17871 28.3332 3.44274 28.3332 3.76803C28.3332 4.09332 28.0692 4.35735 27.7439 4.35735H27.1546C27.1258 4.36086 27.0975 4.36676 27.0697 4.37445C26.5341 4.40979 26.0048 4.51356 25.4951 4.6821C24.97 4.85774 24.4196 4.94672 23.8656 4.94672H20.0421C19.9915 4.54246 19.8883 4.14583 19.7357 3.76809C19.7357 3.76803 23.8656 3.76803 23.8656 3.76803ZM19.0539 6.12535L19.6285 8.06125C19.6326 8.07537 19.642 8.08658 19.6473 8.10017L20.2991 10.2724C20.2266 10.2659 20.1571 10.2506 20.0828 10.2506H19.3032L18.4504 8.119C18.3149 7.78369 18.0438 7.52146 17.7044 7.39648C17.7173 7.32693 17.7244 7.25684 17.7256 7.1861V6.12535H19.0539ZM18.0338 10.2506H15.7673L15.1243 8.64407C15.1002 8.58339 15.1296 8.51504 15.1903 8.49084C15.2044 8.48553 15.2192 8.48261 15.2339 8.48261H17.2465C17.2948 8.48261 17.3384 8.51206 17.3561 8.55687L18.0338 10.2506ZM11.2431 4.35735V3.76803C11.2431 2.79156 12.0346 2.00008 13.011 2.00008H15.3683C16.5298 2.0036 17.6154 2.57939 18.2689 3.53941L18.6979 4.94672H11.8324C11.5071 4.94666 11.2431 4.6827 11.2431 4.35735ZM12.6073 8.6806L11.6055 6.10235C11.6803 6.11534 11.7563 6.12297 11.8324 6.12535H16.5469V7.1861C16.5469 7.25094 16.4938 7.30398 16.429 7.30398H15.2339C14.5632 7.30219 14.0034 7.81433 13.945 8.48261H13.2467C13.0187 8.48434 12.7966 8.5533 12.6073 8.6806ZM13.2468 9.66124H14.2616L14.5562 10.4026C14.2622 10.511 13.9922 10.6766 13.7624 10.8899L13.2468 9.66124ZM15.3683 13.7865C14.7171 13.7865 14.1897 13.259 14.1897 12.6078C14.1897 11.9566 14.7171 11.4292 15.3683 11.4292C16.0195 11.4292 16.5469 11.9566 16.5469 12.6078C16.5469 13.259 16.0189 13.7865 15.3683 13.7865ZM21.2338 12.8571C21.2296 12.8748 21.2225 12.8913 21.2172 12.909C21.1677 13.0881 21.0781 13.2537 20.9544 13.3922C20.9515 13.3963 20.9485 13.4004 20.9462 13.4046C20.7246 13.6474 20.4117 13.7859 20.0828 13.7865H17.3979C17.8346 13.0616 17.8346 12.154 17.3979 11.4292H20.0828C20.4116 11.4298 20.7246 11.5683 20.9462 11.811C20.9486 11.8152 20.9515 11.8193 20.9544 11.8234C21.0781 11.9619 21.1677 12.1275 21.2172 12.3067C21.2225 12.3244 21.2296 12.3409 21.2338 12.3585C21.2709 12.5224 21.2709 12.6927 21.2338 12.8571ZM20.9927 8.48261H22.7719L21.6887 10.8033L20.9927 8.48261ZM22.3635 13.1971C22.3688 13.1765 22.3712 13.1553 22.3759 13.1347C22.3847 13.0964 22.3918 13.0581 22.3983 13.0168C22.4543 12.7445 22.4543 12.464 22.3983 12.1918C22.3924 12.1581 22.3883 12.1252 22.3812 12.0928H22.3847L22.4225 12.0185H29.5119V13.1971H22.3635ZM30.1013 10.8399H27.9561C28.0522 10.7562 28.1547 10.6807 28.2632 10.6142C28.2973 10.593 28.3327 10.5753 28.3681 10.5552C28.4458 10.511 28.5266 10.4716 28.6097 10.4373C28.6509 10.4196 28.6933 10.4037 28.7358 10.389C28.8212 10.3596 28.9078 10.3348 28.9963 10.3153C29.0363 10.3065 29.0753 10.2953 29.1142 10.2888C29.2456 10.2647 29.3788 10.2517 29.5119 10.2505C30.8138 10.2505 31.8692 11.3059 31.8692 12.6078C31.8692 13.9096 30.8138 14.965 29.5119 14.965C29.3799 14.9644 29.2479 14.952 29.1183 14.9285C29.0776 14.922 29.0387 14.9108 29.0004 14.902C28.912 14.8825 28.8254 14.8577 28.7399 14.8283C28.6975 14.8136 28.655 14.7977 28.6138 14.78C28.5307 14.7458 28.4499 14.7063 28.3722 14.6621C28.3368 14.6427 28.3014 14.6249 28.2673 14.6031C28.1583 14.536 28.0551 14.4599 27.9585 14.3756H30.1013C30.4265 14.3756 30.6906 14.1116 30.6906 13.7863V11.4291C30.6906 11.1033 30.4265 10.8399 30.1013 10.8399ZM29.5119 17.3223C27.5884 17.3306 25.8558 16.162 25.1427 14.3758H26.4528C26.464 14.3958 26.4787 14.4129 26.4905 14.4347C26.5253 14.4937 26.5636 14.5449 26.6013 14.5997C26.6567 14.6805 26.7127 14.7606 26.7746 14.8355C26.8176 14.8879 26.8629 14.938 26.9089 14.9881C26.9725 15.0582 27.0379 15.126 27.1075 15.1902C27.1575 15.2374 27.2094 15.2822 27.2619 15.3258C27.3344 15.3847 27.408 15.4437 27.4847 15.4955C27.5406 15.535 27.5967 15.5733 27.655 15.6098C27.7352 15.6594 27.8177 15.7041 27.9019 15.7471C27.9609 15.7778 28.0198 15.8096 28.0787 15.8367C28.1683 15.8768 28.2608 15.9098 28.3539 15.9416C28.4129 15.9628 28.4718 15.9864 28.5349 16.0041C28.6392 16.0341 28.7459 16.0547 28.8531 16.0754C28.9068 16.0854 28.9592 16.1001 29.0135 16.1078C30.9458 16.3877 32.7397 15.0482 33.0196 13.1152C33.2996 11.1829 31.96 9.38899 30.0271 9.10906C29.6906 9.06013 29.3494 9.06013 29.0129 9.10906C28.9587 9.11675 28.9068 9.13147 28.8532 9.14148C28.7459 9.16151 28.6387 9.18272 28.5338 9.21276C28.4749 9.23046 28.4159 9.254 28.357 9.27462C28.2639 9.30705 28.1714 9.34006 28.0812 9.38011C28.0223 9.40723 27.9633 9.43906 27.9044 9.46969C27.8202 9.51272 27.7377 9.55748 27.6575 9.60701C27.5986 9.64354 27.5432 9.68187 27.4872 9.72132C27.4088 9.77496 27.3345 9.83152 27.2644 9.89106C27.212 9.93468 27.1601 9.97944 27.11 10.0266C27.041 10.0908 26.975 10.1586 26.9114 10.2287C26.8654 10.2788 26.82 10.3289 26.7771 10.3814C26.7181 10.4574 26.6592 10.5375 26.6038 10.6171C26.5661 10.6719 26.5278 10.7249 26.493 10.7821C26.4812 10.8021 26.4665 10.8193 26.4553 10.8411H25.1423C26.1182 8.42725 28.8661 7.26095 31.28 8.23689C33.6939 9.21282 34.8601 11.9608 33.8842 14.3746C33.1645 16.1567 31.4342 17.3229 29.5119 17.3223Z" fill="#0072FF"/>
</svg>
