<svg width="58" height="31" viewBox="0 0 58 31" fill="none" xmlns="http://www.w3.org/2000/svg">
<path d="M47.667 11.181C43.5357 11.164 39.8796 13.8496 38.6586 17.7958H37.1778L40.8225 9.98556C41.158 9.90997 41.4916 9.82396 41.8195 9.7153C42.6633 9.43366 43.5468 9.29003 44.4361 9.29098H50.5018C51.0234 9.29098 51.4468 8.86762 51.4468 8.34602C51.4468 7.82441 51.0234 7.40105 50.5018 7.40105H49.1959L49.4577 6.87849C49.4775 6.83883 49.4945 6.79726 49.5087 6.75473C49.6372 6.36922 49.9982 6.10841 50.4045 6.10841H50.9327V4.21848H50.4073C49.2138 4.21848 48.1489 4.96591 47.7425 6.08768L47.648 6.27097C47.5535 4.78357 46.3222 3.62511 44.832 3.62129H44.4361C43.3437 3.62129 42.2589 3.79703 41.2232 4.14193C40.3813 4.42261 39.5005 4.56625 38.6132 4.56625H30.8796C29.448 2.77552 27.2801 1.73231 24.9877 1.73136H21.2079C20.3092 1.73327 19.4295 1.99407 18.6744 2.48165L19.2414 1.15872L17.5046 0.414062L16.415 2.95977C15.7063 2.18014 14.7018 1.73413 13.6482 1.73136H12.7032C12.1816 1.73136 11.7582 2.15472 11.7582 2.67632V8.34611C11.7582 8.86772 12.1816 9.29108 12.7032 9.29108H13.6482C13.6671 9.29108 13.6841 9.29108 13.703 9.28544L12.7032 11.6167C7.70994 10.031 2.37654 12.7931 0.791855 17.7863C-0.792834 22.7795 1.96838 28.112 6.96156 29.6977C11.9547 31.2833 17.2873 28.5211 18.8729 23.528C20.2393 19.2255 18.3844 14.5564 14.4381 12.3651L16.1825 8.29604L21.2702 21.3791H21.2816C21.6379 23.1434 23.1885 24.4116 24.9878 24.4106H32.5475C33.4594 24.4068 34.3392 24.0714 35.0214 23.4657H38.6586C40.2244 28.4437 45.5295 31.2106 50.5076 29.6448C55.4856 28.079 58.2525 22.7739 56.6867 17.7959C55.4488 13.8562 51.7955 11.1781 47.667 11.181ZM13.6482 20.6307C13.6482 22.7181 11.9558 24.4105 9.86832 24.4105C7.78085 24.4105 6.08846 22.7181 6.08846 20.6307C6.08846 18.5432 7.78085 16.8508 9.86832 16.8508C10.0582 16.8555 10.2482 16.8744 10.4353 16.9084L8.9999 20.2583L10.7367 21.003L12.1712 17.655C13.0982 18.3636 13.6444 19.4626 13.6482 20.6307ZM17.428 20.6307C17.4412 24.8188 14.0563 28.2244 9.86832 28.2377C5.68029 28.251 2.27458 24.8661 2.26129 20.678C2.24801 16.4898 5.63289 13.0842 9.82101 13.0709C10.5421 13.069 11.2593 13.1692 11.952 13.3696L11.196 15.1253C8.15041 14.3873 5.083 16.2584 4.34503 19.304C3.60706 22.3496 5.47807 25.417 8.52369 26.155C11.5693 26.893 14.6367 25.022 15.3747 21.9763C15.9436 19.6281 14.9637 17.1778 12.9329 15.87L13.6888 14.1181C16.0011 15.4721 17.4242 17.9498 17.428 20.6307ZM14.6318 7.1176C14.337 7.30185 13.9958 7.40019 13.6482 7.40105V3.62119C14.5365 3.62215 15.3038 4.24113 15.4927 5.10859L14.6318 7.1176ZM37.6334 12.126H33.4395L32.8725 10.236H38.5782L37.6334 12.126ZM38.6132 6.45609C39.7056 6.45609 40.7904 6.28034 41.8261 5.93544C42.668 5.65476 43.5488 5.51112 44.4361 5.51112H44.832C45.3536 5.51112 45.777 5.93448 45.777 6.45609C45.777 6.97769 45.3536 7.40105 44.832 7.40105H43.8871C43.8408 7.40669 43.7954 7.41615 43.751 7.42848C42.892 7.48515 42.0434 7.65153 41.226 7.9218C40.3841 8.20343 39.5014 8.34611 38.6132 8.34611H32.4822C32.401 7.69788 32.2355 7.06188 31.9908 6.45618C31.9909 6.45609 38.6132 6.45609 38.6132 6.45609ZM30.8976 10.236L31.819 13.3402C31.8256 13.3629 31.8407 13.3809 31.8492 13.4026L32.8943 16.8858C32.7781 16.8754 32.6666 16.8508 32.5475 16.8508H31.2973L29.9299 13.4328C29.7126 12.8952 29.2779 12.4747 28.7336 12.2743C28.7544 12.1628 28.7657 12.0504 28.7676 11.9369V10.236H30.8976ZM29.2618 16.8508H25.6275L24.5965 14.2748C24.5578 14.1775 24.605 14.0679 24.7023 14.0291C24.7249 14.0206 24.7486 14.0159 24.7723 14.0159H27.9994C28.0769 14.0159 28.1468 14.0631 28.1751 14.135L29.2618 16.8508ZM18.373 7.40105V6.45609C18.373 4.89032 19.6421 3.62119 21.2079 3.62119H24.9878C26.8503 3.62683 28.5909 4.5501 29.6389 6.08949L30.3268 8.34611H19.318C18.7964 8.34602 18.373 7.92275 18.373 7.40105ZM20.5605 14.3334L18.954 10.1992C19.0741 10.22 19.1959 10.2322 19.3179 10.236H26.8776V11.9369C26.8776 12.0409 26.7925 12.126 26.6886 12.126H24.7722C23.6967 12.1231 22.7991 12.9443 22.7055 14.0159H21.5858C21.2201 14.0187 20.864 14.1292 20.5605 14.3334ZM21.5859 15.9058H23.2131L23.6856 17.0946C23.214 17.2684 22.7812 17.534 22.4127 17.876L21.5859 15.9058ZM24.9878 22.5206C23.9436 22.5206 23.0978 21.6748 23.0978 20.6307C23.0978 19.5865 23.9436 18.7407 24.9878 18.7407C26.0319 18.7407 26.8777 19.5865 26.8777 20.6307C26.8777 21.6748 26.031 22.5206 24.9878 22.5206ZM34.393 21.0304C34.3864 21.0588 34.375 21.0853 34.3665 21.1136C34.2871 21.4008 34.1434 21.6663 33.945 21.8884C33.9404 21.895 33.9356 21.9016 33.9319 21.9083C33.5765 22.2976 33.0748 22.5197 32.5475 22.5206H28.2422C28.9424 21.3583 28.9424 19.903 28.2422 18.7407H32.5475C33.0747 18.7417 33.5765 18.9638 33.9319 19.353C33.9357 19.3596 33.9404 19.3662 33.945 19.3729C34.1434 19.595 34.2871 19.8605 34.3665 20.1478C34.375 20.1761 34.3864 20.2026 34.393 20.2309C34.4525 20.4936 34.4525 20.7667 34.393 21.0304ZM34.0065 14.0159H36.8594L35.1225 17.7372L34.0065 14.0159ZM36.2045 21.5756C36.213 21.5426 36.2169 21.5085 36.2244 21.4755C36.2386 21.414 36.2499 21.3527 36.2603 21.2864C36.3501 20.8499 36.3501 20.4001 36.2603 19.9635C36.2509 19.9096 36.2443 19.8568 36.2329 19.8048H36.2386L36.299 19.6857H47.667V21.5756H36.2045ZM48.612 17.7958H45.1722C45.3263 17.6616 45.4907 17.5406 45.6646 17.4339C45.7194 17.3998 45.7761 17.3714 45.8328 17.3393C45.9575 17.2684 46.087 17.2052 46.2202 17.1503C46.2864 17.1219 46.3544 17.0964 46.4225 17.0728C46.5595 17.0256 46.6984 16.9858 46.8402 16.9547C46.9044 16.9405 46.9668 16.9226 47.0292 16.9122C47.2399 16.8734 47.4535 16.8526 47.667 16.8507C49.7545 16.8507 51.4469 18.5431 51.4469 20.6306C51.4469 22.718 49.7545 24.4104 47.667 24.4104C47.4553 24.4095 47.2437 24.3896 47.0358 24.3518C46.9706 24.3414 46.9082 24.3235 46.8468 24.3093C46.705 24.2782 46.5661 24.2384 46.429 24.1912C46.361 24.1676 46.293 24.1421 46.2268 24.1137C46.0936 24.0588 45.9641 23.9956 45.8394 23.9247C45.7827 23.8935 45.726 23.8651 45.6712 23.8301C45.4964 23.7224 45.331 23.6005 45.1761 23.4654H48.612C49.1336 23.4654 49.5569 23.042 49.5569 22.5204V18.7405C49.5569 18.2182 49.1336 17.7958 48.612 17.7958ZM47.667 28.1904C44.5826 28.2036 41.8045 26.3297 40.661 23.4656H42.7617C42.7796 23.4977 42.8032 23.5251 42.8222 23.5601C42.8779 23.6546 42.9393 23.7368 42.9998 23.8247C43.0886 23.9542 43.1784 24.0826 43.2776 24.2027C43.3466 24.2868 43.4194 24.3671 43.493 24.4474C43.5951 24.5599 43.6999 24.6686 43.8115 24.7716C43.8917 24.8472 43.975 24.919 44.0591 24.9889C44.1753 25.0834 44.2934 25.1779 44.4163 25.2611C44.5061 25.3244 44.5959 25.3858 44.6894 25.4444C44.818 25.5238 44.9502 25.5956 45.0854 25.6645C45.1799 25.7137 45.2744 25.7647 45.3688 25.8082C45.5125 25.8724 45.6608 25.9254 45.8102 25.9764C45.9047 26.0104 45.9992 26.0482 46.1003 26.0765C46.2675 26.1247 46.4386 26.1578 46.6106 26.1908C46.6966 26.2069 46.7807 26.2305 46.8677 26.2428C49.9663 26.6917 52.8427 24.5437 53.2916 21.4443C53.7405 18.3458 51.5925 15.4693 48.4931 15.0204C47.9535 14.9419 47.4064 14.9419 46.8668 15.0204C46.7799 15.0327 46.6967 15.0563 46.6107 15.0724C46.4387 15.1045 46.2668 15.1385 46.0986 15.1867C46.0041 15.2151 45.9095 15.2528 45.8151 15.2859C45.6658 15.3379 45.5174 15.3908 45.3728 15.455C45.2783 15.4985 45.1838 15.5496 45.0894 15.5987C44.9543 15.6677 44.822 15.7395 44.6935 15.8189C44.5989 15.8775 44.5102 15.9389 44.4203 16.0022C44.2947 16.0882 44.1756 16.1789 44.0631 16.2743C43.979 16.3443 43.8959 16.4161 43.8155 16.4917C43.7049 16.5947 43.5991 16.7033 43.4971 16.8158C43.4234 16.8961 43.3505 16.9765 43.2816 17.0606C43.1871 17.1825 43.0926 17.311 43.0038 17.4385C42.9433 17.5265 42.8819 17.6114 42.8262 17.7032C42.8073 17.7353 42.7836 17.7627 42.7657 17.7977H40.6602C42.2252 13.9271 46.6315 12.057 50.5021 13.6219C54.3728 15.1868 56.2428 19.5931 54.6779 23.4637C53.5239 26.3213 50.7494 28.1913 47.667 28.1904Z" fill="#B6CDEE"/>
</svg>
