<svg width="44" height="44" viewBox="0 0 44 44" fill="none" xmlns="http://www.w3.org/2000/svg">
<path d="M39.5972 7.0868e-10H3.98656C2.92926 7.0868e-10 1.91526 0.417709 1.16764 1.16124C0.420011 1.90476 0 2.9132 0 3.96471L0 37.7242C3.22714 34.5601 8.60289 29.3043 11.171 26.7943C11.5828 26.3741 11.8867 25.8614 12.0568 25.2996C12.2269 24.7378 12.2583 24.1435 12.1482 23.5671C11.8589 21.7503 12.0838 19.8892 12.7977 18.1923C13.5116 16.4954 14.6863 15.0296 16.1903 13.959C17.6943 12.8884 19.4683 12.2553 21.3136 12.1305C23.1589 12.0056 25.0027 12.3941 26.6386 13.2523L19.8363 19.7934L23.9239 23.9976L30.7263 17.4565C31.5337 19.1114 31.8621 20.9571 31.6747 22.7871C31.4873 24.6171 30.7914 26.3591 29.665 27.8181C28.5386 29.2771 27.0261 30.3955 25.2969 31.0481C23.5676 31.7008 21.6898 31.8619 19.8737 31.5135C19.2372 31.4072 18.5842 31.4544 17.9698 31.6512C17.3554 31.8481 16.7974 32.1887 16.3429 32.6446L5.21616 43.345H39.5963C40.6536 43.345 41.6676 42.9273 42.4152 42.1837C43.1629 41.4402 43.5829 40.4318 43.5829 39.3803V3.96472C43.583 3.44411 43.48 2.92857 43.2798 2.44755C43.0795 1.96653 42.786 1.52945 42.4159 1.16127C42.0458 0.793102 41.6063 0.501049 41.1227 0.301795C40.6391 0.102541 40.1207 -9.84358e-06 39.5972 7.0868e-10V7.0868e-10Z" fill="#0072FF"/>
</svg>
