<svg width="25" height="25" viewBox="0 0 25 25" fill="none" xmlns="http://www.w3.org/2000/svg">
<path d="M5.7291 3.12501H19.2708C19.5586 3.12501 19.7916 2.89205 19.7916 2.60416C19.7916 2.31627 19.5586 2.08331 19.2708 2.08331H5.7291C5.44121 2.08331 5.20825 2.31627 5.20825 2.60416C5.20825 2.89205 5.44126 3.12501 5.7291 3.12501Z" fill="#0072FF"/>
<path d="M7.38423 4.39154C7.04297 4.8849 6.25 6.10458 6.25 6.77089C6.25 7.63251 6.95088 8.33339 7.8125 8.33339C8.67412 8.33339 9.375 7.63251 9.375 6.77089C9.375 6.10458 8.58203 4.8849 8.24077 4.39154C8.04648 4.11078 7.57852 4.11078 7.38423 4.39154Z" fill="#0072FF"/>
<path d="M8.33333 6.77189C8.33284 7.05875 8.09934 7.29171 7.81248 7.29171C7.52512 7.29171 7.29163 7.05773 7.29163 6.77189C7.29568 6.61217 7.51238 6.15846 7.81248 5.65289C8.11258 6.15743 8.32923 6.61217 8.33333 6.77189Z" fill="white"/>
<path d="M11.551 5.43317C11.2097 5.92653 10.4167 7.1462 10.4167 7.81251C10.4167 8.67413 11.1176 9.37501 11.9792 9.37501C12.8409 9.37501 13.5417 8.67413 13.5417 7.81251C13.5417 7.1462 12.7488 5.92653 12.4075 5.43317C12.2132 5.1524 11.7453 5.1524 11.551 5.43317Z" fill="#0072FF"/>
<path d="M12.5 7.81351C12.4995 8.10038 12.266 8.33334 11.9791 8.33334C11.6917 8.33334 11.4583 8.09935 11.4583 7.81351C11.4623 7.6538 11.679 7.20009 11.9791 6.69452C12.2792 7.19911 12.4959 7.6538 12.5 7.81351Z" fill="white"/>
<path d="M15.7176 4.39148C15.3763 4.88484 14.5834 6.10452 14.5834 6.77083C14.5834 7.63245 15.2843 8.33333 16.1459 8.33333C17.0075 8.33333 17.7084 7.63245 17.7084 6.77083C17.7084 6.10452 16.9154 4.88484 16.5741 4.39148C16.3798 4.11072 15.9119 4.11072 15.7176 4.39148Z" fill="#0072FF"/>
<path d="M16.6667 6.77189C16.6662 7.05875 16.4327 7.29171 16.1458 7.29171C15.8585 7.29171 15.625 7.05773 15.625 6.77189C15.6291 6.61217 15.8458 6.15846 16.1458 5.65289C16.446 6.15743 16.6626 6.61217 16.6667 6.77189Z" fill="white"/>
<path d="M23.6938 14.4455L18.5374 13.5859L17.0431 11.3444C16.6555 10.7636 16.0075 10.4167 15.3097 10.4167H7.60703C6.90918 10.4167 6.26118 10.7636 5.87363 11.3444L4.36567 13.6064L1.18408 14.4017C0.487256 14.5757 0 15.1993 0 15.9175V18.5344C0 19.1483 0.239062 19.7256 0.673437 20.1599C1.10171 20.5877 1.69375 20.8334 2.29902 20.8334H3.69849C3.94048 22.0206 4.99204 22.9167 6.25 22.9167C7.50796 22.9167 8.55952 22.0206 8.80151 20.8334H15.6776C15.9196 22.0206 16.9712 22.9167 18.2291 22.9167C19.4871 22.9167 20.5387 22.0206 20.7807 20.8334H23.115C23.5127 20.8334 23.8698 20.6132 24.0478 20.2576L24.8901 18.572C24.9084 18.5354 24.9227 18.4967 24.9318 18.4571L24.9867 18.2241C24.9959 18.1854 24.9999 18.1458 24.9999 18.1061V15.9867C25 15.2191 24.4507 14.5711 23.6938 14.4455Z" fill="#212121"/>
<path d="M6.74041 11.9222C6.93367 11.6318 7.25818 11.4584 7.6071 11.4584H15.3097C15.6587 11.4584 15.9832 11.6318 16.1764 11.9222L17.2561 13.5417H5.66077L6.74041 11.9222Z" fill="#BDDDF4"/>
<path d="M6.74041 11.9222C6.93367 11.6318 7.25818 11.4584 7.6071 11.4584H15.3097C15.6587 11.4584 15.9832 11.6318 16.1764 11.9222L17.2561 13.5417H5.66077L6.74041 11.9222Z" fill="url(#paint0_linear)"/>
<path d="M6.25 21.875C7.11295 21.875 7.8125 21.1754 7.8125 20.3125C7.8125 19.4496 7.11295 18.75 6.25 18.75C5.38706 18.75 4.6875 19.4496 4.6875 20.3125C4.6875 21.1754 5.38706 21.875 6.25 21.875Z" fill="white"/>
<path d="M18.2291 21.875C19.0921 21.875 19.7916 21.1754 19.7916 20.3125C19.7916 19.4496 19.0921 18.75 18.2291 18.75C17.3662 18.75 16.6666 19.4496 16.6666 20.3125C16.6666 21.1754 17.3662 21.875 18.2291 21.875Z" fill="white"/>
<path d="M23.9583 18.0456L23.115 19.7917H20.7807C20.5387 18.6045 19.4871 17.7083 18.2292 17.7083C16.9712 17.7083 15.9197 18.6045 15.6777 19.7917H8.80149C8.5595 18.6045 7.50794 17.7083 6.24998 17.7083C4.99202 17.7083 3.94045 18.6045 3.69846 19.7917H2.29895C1.96834 19.7917 1.64382 19.6574 1.40989 19.4234C1.17288 19.1859 1.04163 18.87 1.04163 18.5344V15.9175C1.04163 15.678 1.20437 15.4704 1.4363 15.4119L4.75154 14.5834H18.1864L23.5229 15.473C23.7752 15.5147 23.9583 15.7308 23.9583 15.9867V18.0456Z" fill="white"/>
<defs>
<linearGradient id="paint0_linear" x1="6.94225" y1="10.7949" x2="16.4664" y2="15.2361" gradientUnits="userSpaceOnUse">
<stop stop-color="white" stop-opacity="0.2"/>
<stop offset="1" stop-color="white" stop-opacity="0"/>
</linearGradient>
</defs>
</svg>
