<svg width="40" height="40" viewBox="0 0 40 40" fill="none" xmlns="http://www.w3.org/2000/svg">
<g clip-path="url(#clip0)">
<path d="M33.116 17.5C29.3254 17.5039 26.2441 20.6094 26.2481 24.4234C26.2496 26.507 27.2879 28.882 29.334 31.4836C30.7941 33.3406 32.241 34.6313 32.302 34.6852C32.7767 35.1066 33.4913 35.1038 33.9629 34.6836C34.0238 34.6297 35.4684 33.3359 36.9254 31.4766C38.4885 29.481 39.998 26.9355 39.998 24.4102C39.9948 20.6034 36.9368 17.5 33.116 17.5ZM33.1301 32.0187C31.4223 30.2844 28.7504 27.0203 28.748 24.4211C28.7457 21.9852 30.7066 20.0023 33.1184 20C35.5435 20 37.4948 21.9748 37.498 24.4125C37.5004 27.0117 34.834 30.282 33.1301 32.0187Z" fill="#0072FF"/>
<path d="M33.1231 22.5C31.4684 22.5 30.6114 24.5157 31.7981 25.7023C32.7391 26.6412 34.3431 26.33 34.8567 25.0914C35.3651 23.8651 34.4586 22.5 33.1231 22.5Z" fill="#0072FF"/>
<path d="M6.04648 17.1844C6.52016 17.6048 7.23305 17.6055 7.70742 17.1844C7.76836 17.1305 9.21445 15.8383 10.673 13.9805C12.716 11.3766 13.752 9.00078 13.752 6.91641C13.752 3.10312 10.6676 0 6.87695 0C3.08633 0 0.00195312 3.10312 0.00195312 6.91641C0.00195312 9.00078 1.03789 11.3766 3.08086 13.9805C4.53945 15.8383 5.98555 17.1305 6.04648 17.1844ZM6.87695 2.5C9.28945 2.5 11.252 4.48125 11.252 6.91641C11.252 9.51641 8.58164 12.7844 6.87617 14.5195C5.16992 12.7875 2.50195 9.52422 2.50195 6.91641C2.50195 4.48125 4.46445 2.5 6.87695 2.5Z" fill="#0072FF"/>
<path d="M6.87695 8.75C7.91249 8.75 8.75195 7.91053 8.75195 6.875C8.75195 5.83947 7.91249 5 6.87695 5C5.84142 5 5.00195 5.83947 5.00195 6.875C5.00195 7.91053 5.84142 8.75 6.87695 8.75Z" fill="#0072FF"/>
<path d="M35.0105 38.1234C35.0119 39.8322 32.8884 40.657 31.7394 39.375H5.62695C2.52539 39.375 0.00195312 36.8516 0.00195312 33.75C0.00195312 30.6484 2.52539 28.125 5.62695 28.125H18.166C19.8676 28.125 21.252 26.7406 21.252 25.0391C21.252 23.3375 19.8676 21.9531 18.166 21.9531H8.27461C7.11601 23.2317 5.00328 22.4163 5.00195 20.7047C4.9993 18.991 7.10953 18.1749 8.27461 19.4531H18.166C21.2465 19.4531 23.752 21.9586 23.752 25.0391C23.752 28.1195 21.2465 30.625 18.166 30.625H5.62695C3.90352 30.625 2.50195 32.0266 2.50195 33.75C2.50195 35.4734 3.90352 36.875 5.62695 36.875H31.7387C32.9016 35.5917 35.008 36.4211 35.0105 38.1234Z" fill="#0072FF"/>
</g>
<defs>
<clipPath id="clip0">
<rect width="40" height="40" fill="white"/>
</clipPath>
</defs>
</svg>
