<svg width="29" height="29" viewBox="0 0 29 29" fill="none" xmlns="http://www.w3.org/2000/svg">
<g clip-path="url(#clip0)">
<path d="M24.0092 12.6875C21.261 12.6903 19.027 14.9418 19.0299 17.707C19.031 19.2176 19.7838 20.9395 21.2672 22.8256C22.3258 24.172 23.3748 25.1077 23.419 25.1467C23.7632 25.4523 24.2813 25.4502 24.6231 25.1456C24.6673 25.1065 25.7146 24.1686 26.771 22.8205C27.9042 21.3737 28.9986 19.5282 28.9986 17.6974C28.9962 14.9375 26.7792 12.6875 24.0092 12.6875ZM24.0194 23.2136C22.7812 21.9562 20.8441 19.5897 20.8424 17.7053C20.8407 15.9392 22.2624 14.5017 24.0109 14.5C25.7691 14.5 27.1838 15.9317 27.1861 17.6991C27.1878 19.5835 25.2547 21.9545 24.0194 23.2136Z" fill="#0072FF"/>
<path d="M24.0142 16.3125C22.8146 16.3125 22.1933 17.7739 23.0536 18.6342C23.7359 19.3149 24.8988 19.0892 25.2711 18.1913C25.6397 17.3022 24.9825 16.3125 24.0142 16.3125Z" fill="#0072FF"/>
<path d="M4.3843 12.4587C4.72771 12.7635 5.24456 12.764 5.58848 12.4587C5.63266 12.4196 6.68108 11.4828 7.73856 10.1358C9.21971 8.24801 9.97077 6.52557 9.97077 5.01439C9.97077 2.24977 7.73459 0 4.98639 0C2.23819 0 0.00201416 2.24977 0.00201416 5.01439C0.00201416 6.52557 0.753069 8.24801 2.23422 10.1358C3.2917 11.4828 4.34012 12.4196 4.3843 12.4587ZM4.98639 1.8125C6.73545 1.8125 8.15827 3.24891 8.15827 5.01439C8.15827 6.89939 6.22229 9.26867 4.98582 10.5267C3.74879 9.27094 1.81451 6.90506 1.81451 5.01439C1.81451 3.24891 3.23733 1.8125 4.98639 1.8125Z" fill="#0072FF"/>
<path d="M4.98584 6.34375C5.7366 6.34375 6.34521 5.73514 6.34521 4.98438C6.34521 4.23361 5.7366 3.625 4.98584 3.625C4.23508 3.625 3.62646 4.23361 3.62646 4.98438C3.62646 5.73514 4.23508 6.34375 4.98584 6.34375Z" fill="#0072FF"/>
<path d="M25.3827 27.6395C25.3837 28.8783 23.8441 29.4763 23.0112 28.5469H4.07959C1.83096 28.5469 0.00146484 26.7174 0.00146484 24.4688C0.00146484 22.2201 1.83096 20.3906 4.07959 20.3906H13.1704C14.404 20.3906 15.4077 19.387 15.4077 18.1533C15.4077 16.9197 14.404 15.916 13.1704 15.916H5.99914C5.15916 16.843 3.62743 16.2518 3.62646 15.0109C3.62454 13.7685 5.15446 13.1768 5.99914 14.1035H13.1704C15.4037 14.1035 17.2202 15.92 17.2202 18.1533C17.2202 20.3867 15.4037 22.2031 13.1704 22.2031H4.07959C2.8301 22.2031 1.81396 23.2193 1.81396 24.4688C1.81396 25.7182 2.8301 26.7344 4.07959 26.7344H23.0106C23.8537 25.804 25.3808 26.4053 25.3827 27.6395Z" fill="#0072FF"/>
</g>
<defs>
<clipPath id="clip0">
<rect width="29" height="29" fill="white"/>
</clipPath>
</defs>
</svg>
