<svg width="18" height="19" viewBox="0 0 18 19" fill="none" xmlns="http://www.w3.org/2000/svg">
<path d="M17.4397 9.065L17.9996 7.97247L17.1963 7.04436L17.4779 5.84962L16.4747 5.14232L16.4608 3.91491L15.3173 3.46838L15.0111 2.27969L13.7943 2.11824L13.2134 1.03681L11.9933 1.17138L11.1696 0.2614L10.0178 0.685892L8.99983 0L7.98189 0.685892L6.83005 0.2614L6.00623 1.17138L4.78616 1.03685L4.20534 2.11828L2.98848 2.27973L2.6823 3.46846L1.53886 3.91499L1.52495 5.14239L0.521706 5.84966L0.803347 7.0444L0 7.97247L0.559998 9.065L3.91263e-05 10.1575L0.803347 11.0856L0.521706 12.2804L1.52499 12.9877L1.5389 14.2151L2.68234 14.6616L2.98856 15.8503L4.20538 16.0118L4.7862 17.0932L6.0063 16.9586L6.83009 17.8686L7.98189 17.4441L8.99983 18.13L10.0178 17.4441L11.1696 17.8686L11.9934 16.9586L13.2135 17.0931L13.7943 16.0117L15.0112 15.8503L15.3173 14.6615L16.4608 14.215L16.4747 12.9876L17.4779 12.2803L17.1963 11.0856L17.9997 10.1575L17.4397 9.065Z" fill="#0072FF"/>
<path d="M8.99983 15.0666C12.3144 15.0666 15.0015 12.3796 15.0015 9.06493C15.0015 5.75031 12.3144 3.06328 8.99983 3.06328C5.6852 3.06328 2.99817 5.75031 2.99817 9.06493C2.99817 12.3796 5.6852 15.0666 8.99983 15.0666Z" fill="#0072FF"/>
<path d="M7.38409 13.4662C7.26239 13.4664 7.14186 13.4388 7.02943 13.3852C6.917 13.3315 6.81488 13.2527 6.72895 13.1534L4.87581 11.0177C4.7885 10.9188 4.71904 10.801 4.67145 10.6711C4.62385 10.5412 4.59907 10.4016 4.59852 10.2606C4.59797 10.1196 4.62167 9.97978 4.66825 9.84936C4.71484 9.71893 4.78337 9.60043 4.86991 9.5007C4.95645 9.40097 5.05927 9.32198 5.17245 9.26831C5.28562 9.21463 5.40689 9.18732 5.52927 9.18796C5.65165 9.18859 5.77271 9.21717 5.88546 9.27202C5.9982 9.32688 6.1004 9.40693 6.18615 9.50756L7.38409 10.8881L11.8251 5.77002C11.9994 5.57273 12.2342 5.46275 12.4785 5.46402C12.7228 5.46528 12.9568 5.57768 13.1295 5.77676C13.3023 5.97584 13.3998 6.24549 13.4009 6.52704C13.402 6.80859 13.3066 7.07925 13.1354 7.28012L8.0393 13.1534C7.95336 13.2527 7.85123 13.3315 7.73879 13.3852C7.62635 13.4389 7.5058 13.4664 7.38409 13.4662Z" fill="white"/>
</svg>
