<svg width="15" height="16" viewBox="0 0 15 16" fill="none" xmlns="http://www.w3.org/2000/svg">
<path d="M14.4267 8.34266L14.89 7.43888L14.2254 6.67112L14.4584 5.68278L13.6285 5.09767L13.617 4.08231L12.6711 3.71292L12.4178 2.7296L11.4112 2.59604L10.9307 1.70144L9.92136 1.81276L9.23989 1.05999L8.28708 1.41115L7.445 0.84375L6.60292 1.41115L5.65008 1.05999L4.96858 1.81276L3.9593 1.70147L3.47882 2.59607L2.47219 2.72963L2.2189 3.71299L1.27301 4.08238L1.2615 5.09773L0.431576 5.68281L0.664559 6.67115L0 7.43888L0.463252 8.34266L3.23668e-05 9.24644L0.664559 10.0142L0.431576 11.0025L1.26153 11.5877L1.27304 12.603L2.21894 12.9724L2.47225 13.9557L3.47885 14.0893L3.95933 14.9839L4.96865 14.8726L5.65011 15.6253L6.60292 15.2742L7.445 15.8416L8.28708 15.2742L9.23992 15.6253L9.92142 14.8726L10.9307 14.9839L11.4112 14.0893L12.4178 13.9557L12.6711 12.9723L13.617 12.603L13.6285 11.5876L14.4584 11.0025L14.2254 10.0142L14.89 9.24644L14.4267 8.34266Z" fill="#0072FF"/>
<path d="M7.44502 13.3074C10.187 13.3074 12.4098 11.0846 12.4098 8.34261C12.4098 5.60062 10.187 3.37781 7.44502 3.37781C4.70304 3.37781 2.48022 5.60062 2.48022 8.34261C2.48022 11.0846 4.70304 13.3074 7.44502 13.3074Z" fill="#0072FF"/>
<path d="M6.1083 11.9835C6.00762 11.9836 5.90791 11.9608 5.8149 11.9164C5.7219 11.872 5.63742 11.8069 5.56634 11.7247L4.03335 9.95793C3.96112 9.87617 3.90366 9.77874 3.86429 9.67124C3.82492 9.56375 3.80442 9.44834 3.80396 9.33166C3.80351 9.21499 3.82312 9.09936 3.86165 8.99147C3.90018 8.88357 3.95688 8.78555 4.02847 8.70305C4.10006 8.62055 4.18512 8.55521 4.27874 8.5108C4.37236 8.4664 4.47268 8.44381 4.57392 8.44433C4.67515 8.44486 4.7753 8.4685 4.86857 8.51388C4.96183 8.55926 5.04638 8.62548 5.11731 8.70872L6.1083 9.85077L9.78206 5.61689C9.92624 5.45368 10.1205 5.3627 10.3226 5.36375C10.5247 5.36479 10.7182 5.45777 10.8611 5.62246C11.004 5.78715 11.0847 6.01022 11.0857 6.24312C11.0866 6.47603 11.0076 6.69993 10.866 6.8661L6.6503 11.7247C6.57921 11.8069 6.49473 11.872 6.40171 11.9164C6.3087 11.9608 6.20898 11.9836 6.1083 11.9835Z" fill="white"/>
</svg>
