<svg width="40" height="40" viewBox="0 0 40 40" fill="none" xmlns="http://www.w3.org/2000/svg">
<path d="M38.4769 20L39.7123 17.5896L37.94 15.5419L38.5614 12.9059L36.3479 11.3454L36.3172 8.63741L33.7944 7.65224L33.1188 5.02966L30.4341 4.67345L29.1527 2.2875L26.4608 2.5844L24.6433 0.576724L22.1021 1.51328L19.8562 0L17.6103 1.51328L15.0691 0.576724L13.2515 2.5844L10.5597 2.28759L9.27819 4.67353L6.59345 5.02974L5.91793 7.65241L3.39517 8.63759L3.36448 11.3456L1.15103 12.906L1.77241 15.542L0 17.5896L1.23552 20L8.6324e-05 22.4104L1.77241 24.4581L1.15103 27.0941L3.36457 28.6546L3.39526 31.3626L5.91802 32.3478L6.59362 34.9703L9.27828 35.3266L10.5597 37.7125L13.2516 37.4156L15.0691 39.4233L17.6103 38.4867L19.8562 40L22.1021 38.4867L24.6434 39.4233L26.461 37.4156L29.1528 37.7124L30.4342 35.3265L33.119 34.9703L33.7945 32.3476L36.3172 31.3624L36.3479 28.6544L38.5614 27.094L37.94 24.458L39.7124 22.4104L38.4769 20Z" fill="#0072FF"/>
<path d="M19.8566 33.2412C27.1696 33.2412 33.098 27.3128 33.098 19.9998C33.098 12.6868 27.1696 6.75845 19.8566 6.75845C12.5436 6.75845 6.61523 12.6868 6.61523 19.9998C6.61523 27.3128 12.5436 33.2412 19.8566 33.2412Z" fill="#0072FF"/>
<path d="M16.2914 29.7102C16.0229 29.7106 15.757 29.6499 15.5089 29.5314C15.2609 29.413 15.0356 29.2392 14.846 29.0201L10.7574 24.308C10.5648 24.09 10.4116 23.8301 10.3065 23.5434C10.2015 23.2567 10.1469 22.9489 10.1457 22.6377C10.1444 22.3265 10.1967 22.0182 10.2995 21.7304C10.4023 21.4426 10.5535 21.1812 10.7444 20.9612C10.9353 20.7411 11.1622 20.5669 11.4119 20.4484C11.6616 20.33 11.9292 20.2698 12.1992 20.2712C12.4692 20.2726 12.7363 20.3356 12.985 20.4566C13.2338 20.5777 13.4592 20.7543 13.6484 20.9763L16.2914 24.0222L26.0896 12.7302C26.4741 12.2949 26.9922 12.0523 27.5312 12.0551C28.0702 12.0579 28.5864 12.3058 28.9675 12.7451C29.3487 13.1843 29.5639 13.7792 29.5663 14.4004C29.5687 15.0216 29.3582 15.6187 28.9805 16.0619L17.737 29.0201C17.5474 29.2392 17.3221 29.413 17.074 29.5314C16.8259 29.6499 16.56 29.7106 16.2914 29.7102Z" fill="white"/>
</svg>
