<svg width="30" height="30" viewBox="0 0 30 30" fill="none" xmlns="http://www.w3.org/2000/svg">
<path d="M28.7831 14.8348L29.6995 13.0469L28.3849 11.5281L28.8458 9.57288L27.2039 8.41538L27.1812 6.40673L25.3099 5.67599L24.8088 3.73071L22.8175 3.46649L21.867 1.69673L19.8703 1.91695L18.5222 0.42778L16.6373 1.12246L14.9714 0L13.3056 1.12246L11.4206 0.42778L10.0724 1.91695L8.07576 1.6968L7.12525 3.46656L5.13386 3.73077L4.6328 5.67611L2.76157 6.40686L2.7388 8.41551L1.097 9.57294L1.5579 11.5281L0.243225 13.0469L1.15966 14.8348L0.243289 16.6228L1.5579 18.1416L1.097 20.0968L2.73887 21.2543L2.76163 23.2629L4.63287 23.9937L5.13399 25.939L7.12531 26.2032L8.07583 27.9729L10.0725 27.7527L11.4206 29.2419L13.3056 28.5472L14.9714 29.6697L16.6373 28.5472L18.5222 29.2419L19.8704 27.7527L21.867 27.9729L22.8176 26.2031L24.8089 25.9389L25.31 23.9936L27.1812 23.2628L27.204 21.2542L28.8458 20.0967L28.3849 18.1415L29.6996 16.6228L28.7831 14.8348Z" fill="#0072FF"/>
<path d="M14.9717 24.6564C20.396 24.6564 24.7934 20.2591 24.7934 14.8347C24.7934 9.41035 20.396 5.01303 14.9717 5.01303C9.54731 5.01303 5.14999 9.41035 5.14999 14.8347C5.14999 20.2591 9.54731 24.6564 14.9717 24.6564Z" fill="#0072FF"/>
<path d="M12.3273 22.0373C12.1281 22.0376 11.9309 21.9925 11.7469 21.9047C11.5629 21.8168 11.3958 21.6879 11.2551 21.5254L8.22249 18.0303C8.0796 17.8685 7.96594 17.6758 7.88805 17.4631C7.81017 17.2505 7.7696 17.0222 7.76871 16.7913C7.76781 16.5605 7.8066 16.3318 7.88283 16.1184C7.95906 15.9049 8.07122 15.711 8.21284 15.5478C8.35446 15.3846 8.52273 15.2553 8.70793 15.1675C8.89314 15.0796 9.09161 15.0349 9.29188 15.036C9.49216 15.037 9.69027 15.0838 9.87477 15.1735C10.0593 15.2633 10.2265 15.3943 10.3669 15.559L12.3273 17.8183L19.595 9.44254C19.8802 9.11968 20.2645 8.9397 20.6643 8.94176C21.0641 8.94382 21.447 9.12777 21.7297 9.45356C22.0124 9.77936 22.172 10.2206 22.1738 10.6814C22.1756 11.1421 22.0195 11.5851 21.7393 11.9138L13.3995 21.5254C13.2589 21.6879 13.0918 21.8169 12.9077 21.9047C12.7237 21.9926 12.5265 22.0376 12.3273 22.0373Z" fill="white"/>
</svg>
