<svg width="172" height="111" viewBox="0 0 172 111" fill="none" xmlns="http://www.w3.org/2000/svg">
<g clip-path="url(#clip0)">
<path d="M146.643 46.5364C144.414 46.5385 142.446 45.3193 141.799 43.537C141.15 41.7547 141.977 39.83 143.831 38.7965L159.001 30.3469C161.325 29.0514 164.465 29.5754 166.016 31.5166C167.564 33.4577 166.937 36.0817 164.613 37.3751L149.444 45.8247C148.614 46.2889 147.641 46.5344 146.643 46.5364Z" fill="#FFB74F"/>
<path d="M25.2832 46.5364C24.2857 46.5344 23.3104 46.2889 22.4808 45.8247L7.3108 37.3751C4.98737 36.0817 4.36023 33.4577 5.91081 31.5166C7.46136 29.5754 10.5996 29.0514 12.923 30.3469L28.093 38.7965C29.9498 39.83 30.7744 41.7547 30.1275 43.537C29.4807 45.3193 27.5128 46.5385 25.2832 46.5364Z" fill="#FFB74F"/>
<path d="M151.344 40.7551C151.142 40.3323 150.798 39.3049 150.335 37.9022C146.354 26.5564 141.418 14.2183 135.029 8.75163C133.201 7.1302 131.063 5.77489 128.7 4.74342C128.103 4.50001 127.453 4.35561 126.789 4.32054C127.11 4.34117 127.429 4.38242 127.74 4.44637C114.18 1.14782 100.079 -0.333327 85.9629 0.0627456C55.3143 0.0627456 44.3911 4.25246 43.2429 4.73518C40.88 5.79548 38.7443 7.17765 36.9221 8.82383C31.5025 13.6365 26.0359 24.248 20.6854 40.3756L20.4879 40.9697C19.9744 42.259 20.2311 43.6762 21.1792 44.7778C22.1298 45.8794 23.6558 46.5333 25.2829 46.5354H146.643C148.317 46.5354 149.883 45.8422 150.825 44.6849C151.766 43.5277 151.961 42.0568 151.344 40.7551Z" fill="white"/>
<path d="M169.362 72.433C167.777 71.6821 165.829 71.7027 164.266 72.4869L138.983 85.1609C137.462 85.9262 136.531 87.3004 136.531 88.7833V97.2332C136.531 101.899 141.059 105.683 146.644 105.683H161.814C167.399 105.683 171.927 101.899 171.927 97.2332V76.1094C171.927 74.587 170.947 73.1817 169.362 72.433Z" fill="white"/>
<path d="M32.9424 85.1614L7.65909 72.4869C6.09863 71.7032 4.15299 71.6827 2.56537 72.4314C0.980228 73.1823 0 74.587 0 76.1094V97.2332C0 101.9 4.52829 105.683 10.1133 105.683H25.2834C30.8684 105.683 35.3967 101.9 35.3967 97.2332V88.7839C35.3967 87.3004 34.4659 85.9268 32.9424 85.1614Z" fill="white"/>
<path d="M170.445 47.7739C167.411 45.2386 163.658 42.7921 150.698 39.019L150.31 37.903C146.33 26.5571 141.395 14.2191 135.002 8.75241C133.177 7.13098 131.039 5.77567 128.676 4.74422C128.078 4.5008 127.43 4.3564 126.765 4.32133C127.086 4.34196 127.404 4.38321 127.715 4.44716C114.163 1.15068 100.072 -0.330476 85.9636 0.0635353C55.3148 0.0635353 44.3915 4.25325 43.2434 4.73597C40.8806 5.79632 38.7448 7.17843 36.9226 8.82462C31.6585 13.4971 26.355 23.6877 21.1526 39.0397C8.2566 42.8003 4.51101 45.2428 1.48145 47.7739C0.533321 48.5661 0 49.6388 0 50.761V76.1098C0 77.5906 0.930844 78.9647 2.45179 79.7301L27.7352 92.4046C28.5228 92.7987 29.4215 93.0068 30.3401 93.009H141.587C142.503 93.0068 143.404 92.7987 144.19 92.4046L169.473 79.7301C170.996 78.9647 171.927 77.5906 171.927 76.1098V50.761C171.927 49.6388 171.393 48.5661 170.445 47.7739ZM44.236 14.6626C45.2384 13.7302 46.4113 12.938 47.715 12.315C47.8112 12.2758 57.7616 8.5131 85.9636 8.5131C98.8497 8.06543 111.736 9.34859 124.136 12.315L124.459 12.4161C125.678 13.0143 126.787 13.757 127.75 14.6213C132.661 18.8461 137.424 31.3472 139.827 38.0763H31.9993C37.9251 21.5629 42.4756 16.2056 44.236 14.6626Z" fill="white"/>
<path d="M55.6226 63.4354C55.6226 70.435 48.8301 76.1099 40.4526 76.1099C32.075 76.1099 25.2825 70.435 25.2825 63.4354C25.2825 56.4341 32.075 50.7613 40.4526 50.7613C48.8301 50.7613 55.6226 56.4341 55.6226 63.4354Z" fill="white"/>
<path d="M146.643 63.4354C146.643 70.435 139.851 76.1099 131.473 76.1099C123.096 76.1099 116.303 70.435 116.303 63.4354C116.303 56.4341 123.096 50.7613 131.473 50.7613C139.851 50.7613 146.643 56.4341 146.643 63.4354Z" fill="white"/>
<path d="M65.7366 29.6371C63.6922 29.635 61.8478 28.6056 61.0651 27.0275C60.2824 25.4494 60.7145 23.632 62.1614 22.4252L67.2183 18.2004C69.2009 16.5976 72.3564 16.6223 74.3066 18.252C76.2575 19.8817 76.2846 22.516 74.3688 24.1725L69.312 28.3972C68.3634 29.1914 67.0774 29.635 65.7366 29.6371Z" fill="#F5F5F5"/>
<path d="M101.133 29.6371C99.0885 29.635 97.2442 28.6056 96.4616 27.0275C95.679 25.4494 96.111 23.632 97.5577 22.4252L102.615 18.2004C104.597 16.5976 107.753 16.6223 109.704 18.252C111.654 19.8817 111.681 22.516 109.765 24.1725L104.708 28.3972C103.76 29.1914 102.474 29.635 101.133 29.6371Z" fill="#F5F5F5"/>
<path d="M0 50.7604V97.2332C0 101.899 4.52829 105.683 10.1133 105.683H25.2834C30.8684 105.683 35.3967 101.899 35.3967 97.2332V93.008H136.53V97.2332C136.53 101.899 141.059 105.683 146.644 105.683H161.814C167.399 105.683 171.927 101.899 171.927 97.2332V50.7604C171.927 49.6381 171.393 48.5655 170.445 47.7733C166.838 44.8275 162.495 42.5893 157.727 41.2154L164.619 37.3743C166.942 36.0809 167.569 33.4569 166.021 31.5157C164.47 29.5746 161.329 29.0506 159.006 30.3461L149.495 35.6435C145.656 24.9537 140.975 13.8554 135.002 8.73942C133.177 7.11799 131.039 5.76268 128.676 4.73126C128.076 4.4899 127.43 4.3455 126.765 4.30837C127.086 4.32487 127.404 4.36612 127.715 4.43008C114.163 1.14184 100.07 -0.333122 85.9636 0.0629513C55.3098 0.0629513 44.3916 4.25267 43.2484 4.73126C40.883 5.79159 38.7448 7.17371 36.9226 8.824C32.0585 13.1375 27.1648 22.1627 22.3452 35.5961L12.9182 30.3461C10.5948 29.0506 7.4566 29.5746 5.90604 31.5157C4.35546 33.4569 4.9826 36.0809 7.30603 37.3743L14.1997 41.2154C9.43189 42.5893 5.08877 44.8275 1.48145 47.7733C0.533321 48.5655 0 49.6381 0 50.7604ZM25.2834 97.2332H10.1133V83.5725L25.2834 91.1787V97.2332ZM161.814 97.2332H146.644V91.1743L161.814 83.5686V97.2332ZM44.241 14.6578C45.2385 13.7254 46.4113 12.9333 47.715 12.3144C47.8112 12.2794 57.7616 8.51253 85.9636 8.51253C98.8497 8.06487 111.736 9.34798 124.136 12.3144L124.459 12.4155C125.681 13.0117 126.792 13.7543 127.755 14.6207C132.656 18.8455 137.429 31.3507 139.827 38.0757H31.9993C37.9251 21.5623 42.4756 16.205 44.241 14.6578ZM10.1133 52.6108C14.9972 49.8465 20.4045 47.7919 26.1081 46.5356H145.819C151.523 47.7919 156.929 49.8465 161.814 52.6108V73.7345L140.185 84.5587H31.74L10.1133 73.7162V52.6108Z" fill="#BDBDBD"/>
<path d="M55.6226 63.4343C55.6226 56.433 48.8301 50.76 40.4526 50.76C32.075 50.76 25.2825 56.433 25.2825 63.4343C25.2825 70.4334 32.075 76.1088 40.4526 76.1088C48.8301 76.1088 55.6226 70.4334 55.6226 63.4343ZM35.3959 63.4343C35.3959 61.0988 37.6601 59.2096 40.4526 59.2096C43.2451 59.2096 45.5092 61.0988 45.5092 63.4343C45.5092 65.7675 43.2451 67.6589 40.4526 67.6589C37.6601 67.6589 35.3959 65.7675 35.3959 63.4343Z" fill="#BDBDBD"/>
<path d="M131.473 76.1088C139.851 76.1088 146.643 70.4334 146.643 63.4343C146.643 56.433 139.851 50.76 131.473 50.76C123.096 50.76 116.303 56.433 116.303 63.4343C116.303 70.4334 123.096 76.1088 131.473 76.1088ZM131.473 59.2096C134.266 59.2096 136.53 61.0988 136.53 63.4343C136.53 65.7675 134.266 67.6589 131.473 67.6589C128.681 67.6589 126.417 65.7675 126.417 63.4343C126.417 61.0988 128.681 59.2096 131.473 59.2096Z" fill="#BDBDBD"/>
<path d="M67.2183 18.1994L62.1617 22.4242C60.8457 23.4845 60.3197 25.0544 60.7814 26.5314C61.2456 28.0084 62.6259 29.1636 64.3937 29.5494C66.1618 29.9352 68.0432 29.4958 69.312 28.3962L74.3688 24.1714C76.2847 22.515 76.2575 19.8807 74.3073 18.251C72.3564 16.6213 69.2009 16.5965 67.2183 18.1994Z" fill="white"/>
<path d="M102.615 18.1994L97.5584 22.4242C96.2426 23.4845 95.7167 25.0544 96.1784 26.5314C96.6428 28.0084 98.0228 29.1636 99.7904 29.5494C101.559 29.9352 103.44 29.4958 104.709 28.3962L109.766 24.1714C111.682 22.515 111.654 19.8807 109.704 18.251C107.753 16.6213 104.598 16.5965 102.615 18.1994Z" fill="white"/>
</g>
<defs>
<clipPath id="clip0">
<rect width="172" height="111" fill="white"/>
</clipPath>
</defs>
</svg>
