<svg width="28" height="20" viewBox="0 0 28 20" fill="none" xmlns="http://www.w3.org/2000/svg">
<g clip-path="url(#clip0)">
<path d="M23.2753 8.38494C22.9215 8.38531 22.6091 8.16564 22.5065 7.8445C22.4034 7.52336 22.5347 7.17657 22.829 6.99036L25.2368 5.46791C25.6056 5.23449 26.104 5.3289 26.3502 5.67866C26.5959 6.02842 26.4963 6.50121 26.1276 6.73426L23.7198 8.25671C23.5881 8.34034 23.4337 8.38457 23.2753 8.38494Z" fill="#FFB74F"/>
<path d="M4.01329 8.38494C3.85496 8.38457 3.70017 8.34034 3.56849 8.25671L1.16069 6.73426C0.791917 6.50121 0.692376 6.02842 0.938486 5.67866C1.18459 5.3289 1.68269 5.23449 2.05147 5.46791L4.45927 6.99036C4.75397 7.17657 4.88486 7.52336 4.78219 7.8445C4.67952 8.16564 4.36717 8.38531 4.01329 8.38494Z" fill="#FFB74F"/>
<path d="M24.0215 7.34327C23.9894 7.26708 23.9349 7.08197 23.8613 6.82923C23.2295 4.78493 22.4461 2.56185 21.4319 1.57687C21.1419 1.28472 20.8025 1.04052 20.4274 0.854671C20.3326 0.810812 20.2295 0.784794 20.1241 0.778475C20.175 0.782192 20.2256 0.789626 20.275 0.801148C18.1227 0.206815 15.8846 -0.060059 13.6441 0.0113055C8.77954 0.0113055 7.0458 0.766209 6.86356 0.853185C6.48852 1.04423 6.14953 1.29327 5.86032 1.58988C5.00011 2.45703 4.13245 4.36901 3.28322 7.27488L3.25187 7.38193C3.17035 7.61424 3.21111 7.86959 3.36159 8.06807C3.51248 8.26655 3.75467 8.38438 4.01293 8.38475H23.2754C23.541 8.38475 23.7895 8.25986 23.9392 8.05134C24.0885 7.84283 24.1194 7.57781 24.0215 7.34327Z" fill="white"/>
<path d="M26.8813 13.051C26.6297 12.9157 26.3205 12.9194 26.0724 13.0607L22.0595 15.3443C21.8181 15.4822 21.6703 15.7298 21.6703 15.997V17.5195C21.6703 18.3602 22.389 19.0419 23.2755 19.0419H25.6833C26.5697 19.0419 27.2884 18.3602 27.2884 17.5195V13.7134C27.2884 13.4391 27.1329 13.1859 26.8813 13.051Z" fill="white"/>
<path d="M5.22865 15.3444L1.21566 13.0607C0.96798 12.9195 0.659167 12.9158 0.407178 13.0507C0.155583 13.186 0 13.4391 0 13.7134V17.5195C0 18.3603 0.718734 19.042 1.6052 19.042H4.013C4.89947 19.042 5.6182 18.3603 5.6182 17.5195V15.9971C5.6182 15.7298 5.47046 15.4823 5.22865 15.3444Z" fill="white"/>
<path d="M27.0532 8.60803C26.5716 8.15122 25.9759 7.7104 23.9189 7.03057L23.8574 6.82949C23.2256 4.78519 22.4423 2.56211 21.4277 1.57713C21.138 1.28498 20.7986 1.04078 20.4235 0.854933C20.3287 0.811073 20.2257 0.785055 20.1203 0.778736C20.1712 0.782453 20.2217 0.789887 20.2711 0.801409C18.1201 0.207448 15.8835 -0.0594264 13.6442 0.0115666C8.77962 0.0115666 7.04587 0.76647 6.86364 0.853446C6.4886 1.0445 6.14961 1.29353 5.8604 1.59014C5.02487 2.43202 4.18308 4.26817 3.35736 7.03429C1.31049 7.71188 0.715992 8.15197 0.235137 8.60803C0.0846492 8.75076 0 8.94404 0 9.14624V13.7136C0 13.9804 0.147744 14.228 0.389151 14.3659L4.40216 16.6496C4.52717 16.7206 4.66981 16.7581 4.8156 16.7585H22.4728C22.6182 16.7581 22.7613 16.7206 22.8859 16.6496L26.8989 14.3659C27.1406 14.228 27.2884 13.9804 27.2884 13.7136V9.14624C27.2884 8.94404 27.2037 8.75076 27.0532 8.60803ZM7.02118 2.64202C7.18029 2.47402 7.36644 2.33129 7.57337 2.21904C7.58864 2.21198 9.16798 1.53401 13.6442 1.53401C15.6895 1.45335 17.7348 1.68455 19.7029 2.21904L19.7543 2.23725C19.9478 2.34504 20.1238 2.47885 20.2767 2.63459C21.0561 3.39581 21.8121 5.64826 22.1934 6.86071H5.07895C6.0195 3.88533 6.74177 2.92005 7.02118 2.64202Z" fill="white"/>
<path d="M8.82847 11.4298C8.82847 12.691 7.75036 13.7135 6.42066 13.7135C5.09096 13.7135 4.01286 12.691 4.01286 11.4298C4.01286 10.1683 5.09096 9.14618 6.42066 9.14618C7.75036 9.14618 8.82847 10.1683 8.82847 11.4298Z" fill="white"/>
<path d="M23.2753 11.4298C23.2753 12.691 22.1973 13.7135 20.8676 13.7135C19.5379 13.7135 18.4597 12.691 18.4597 11.4298C18.4597 10.1683 19.5379 9.14618 20.8676 9.14618C22.1973 9.14618 23.2753 10.1683 23.2753 11.4298Z" fill="white"/>
<path d="M10.4341 5.34001C10.1095 5.33963 9.81661 5.15416 9.69232 4.86982C9.56805 4.58547 9.63665 4.25801 9.8664 4.04057L10.6693 3.27935C10.9841 2.99055 11.4852 2.99501 11.7948 3.28864C12.1046 3.58228 12.1089 4.05693 11.8047 4.3554L11.0018 5.11662C10.8512 5.25972 10.647 5.33963 10.4341 5.34001Z" fill="#F5F5F5"/>
<path d="M16.0523 5.34001C15.7276 5.33963 15.4347 5.15416 15.3105 4.86982C15.1862 4.58547 15.2548 4.25801 15.4845 4.04057L16.2875 3.27935C16.6023 2.99055 17.1033 2.99501 17.4131 3.28864C17.7227 3.58228 17.727 4.05693 17.4228 4.3554L16.6199 5.11662C16.4694 5.25972 16.2651 5.33963 16.0523 5.34001Z" fill="#F5F5F5"/>
<path d="M0 9.14601V17.5195C0 18.3602 0.718734 19.0419 1.6052 19.0419H4.01301C4.89947 19.0419 5.6182 18.3602 5.6182 17.5195V16.7582H21.6702V17.5195C21.6702 18.3602 22.3889 19.0419 23.2755 19.0419H25.6832C26.5697 19.0419 27.2884 18.3602 27.2884 17.5195V9.14601C27.2884 8.94381 27.2037 8.75054 27.0532 8.60781C26.4807 8.07703 25.7914 7.67375 25.0346 7.4262L26.1284 6.73411C26.4972 6.50106 26.5967 6.02827 26.351 5.67851C26.1049 5.32875 25.6063 5.23434 25.2376 5.46776L23.728 6.42226C23.1187 4.49616 22.3756 2.49647 21.4277 1.57467C21.138 1.28252 20.7986 1.03832 20.4235 0.852479C20.3283 0.808991 20.2257 0.782973 20.1203 0.776282C20.1712 0.779256 20.2217 0.786689 20.2711 0.798212C18.1201 0.205737 15.8831 -0.060022 13.6442 0.0113426C8.77883 0.0113426 7.04588 0.766246 6.86443 0.852479C6.48899 1.04353 6.14961 1.29256 5.8604 1.58991C5.08836 2.36712 4.31163 3.99327 3.54665 6.41372L2.05039 5.46776C1.68162 5.23434 1.18352 5.32875 0.937412 5.67851C0.691302 6.02827 0.790843 6.50106 1.15962 6.73411L2.25378 7.4262C1.49704 7.67375 0.807695 8.07703 0.235137 8.60781C0.0846492 8.75054 0 8.94381 0 9.14601ZM4.01301 17.5195H1.6052V15.0581L4.01301 16.4286V17.5195ZM25.6832 17.5195H23.2755V16.4278L25.6832 15.0574V17.5195ZM7.02197 2.64105C7.1803 2.47305 7.36644 2.33032 7.57337 2.21881C7.58864 2.2125 9.16798 1.53379 13.6442 1.53379C15.6895 1.45313 17.7348 1.68432 19.7029 2.21881L19.7543 2.23703C19.9482 2.34445 20.1246 2.47825 20.2774 2.63436C21.0553 3.39559 21.8128 5.64878 22.1934 6.86049H5.07895C6.0195 3.8851 6.74177 2.91982 7.02197 2.64105ZM1.6052 9.47942C2.38037 8.98136 3.23862 8.61115 4.1439 8.38479H23.1445C24.0498 8.61115 24.908 8.98136 25.6832 9.47942V13.2855L22.2502 15.2358H5.03781L1.6052 13.2822V9.47942Z" fill="#BDBDBD"/>
<path d="M8.82847 11.4296C8.82847 10.1681 7.75036 9.14594 6.42066 9.14594C5.09096 9.14594 4.01286 10.1681 4.01286 11.4296C4.01286 12.6907 5.09096 13.7133 6.42066 13.7133C7.75036 13.7133 8.82847 12.6907 8.82847 11.4296ZM5.61806 11.4296C5.61806 11.0088 5.97743 10.6684 6.42066 10.6684C6.8639 10.6684 7.22326 11.0088 7.22326 11.4296C7.22326 11.85 6.8639 12.1908 6.42066 12.1908C5.97743 12.1908 5.61806 11.85 5.61806 11.4296Z" fill="#BDBDBD"/>
<path d="M20.8676 13.7133C22.1973 13.7133 23.2753 12.6907 23.2753 11.4296C23.2753 10.1681 22.1973 9.14594 20.8676 9.14594C19.5379 9.14594 18.4597 10.1681 18.4597 11.4296C18.4597 12.6907 19.5379 13.7133 20.8676 13.7133ZM20.8676 10.6684C21.3108 10.6684 21.6702 11.0088 21.6702 11.4296C21.6702 11.85 21.3108 12.1908 20.8676 12.1908C20.4244 12.1908 20.065 11.85 20.065 11.4296C20.065 11.0088 20.4244 10.6684 20.8676 10.6684Z" fill="#BDBDBD"/>
<path d="M10.6693 3.27917L9.86644 4.04039C9.65749 4.23144 9.57398 4.5143 9.64729 4.78043C9.72099 5.04656 9.94015 5.2547 10.2208 5.32421C10.5016 5.39372 10.8003 5.31455 11.0018 5.11644L11.8047 4.35521C12.1089 4.05675 12.1046 3.5821 11.795 3.28846C11.4852 2.99482 10.9841 2.99036 10.6693 3.27917Z" fill="white"/>
<path d="M16.2876 3.27917L15.4846 4.04039C15.2757 4.23144 15.1922 4.5143 15.2655 4.78043C15.3393 5.04656 15.5584 5.2547 15.8391 5.32421C16.1198 5.39372 16.4186 5.31455 16.62 5.11644L17.423 4.35521C17.7272 4.05675 17.7229 3.5821 17.4132 3.28846C17.1034 2.99482 16.6024 2.99036 16.2876 3.27917Z" fill="white"/>
</g>
<defs>
<clipPath id="clip0">
<rect width="27.3" height="20" fill="white"/>
</clipPath>
</defs>
</svg>
