<svg width="71" height="71" viewBox="0 0 71 71" fill="none" xmlns="http://www.w3.org/2000/svg">
<circle cx="35.5" cy="35.5" r="35.5" fill="#0072FF" fill-opacity="0.2"/>
<circle cx="35.5" cy="35.5" r="26.5" fill="#0072FF" fill-opacity="0.2"/>
<g filter="url(#filter0_d)">
<circle cx="35.5" cy="35.5" r="16.5" fill="white"/>
</g>
<path d="M44.2801 34.1613L40.3906 33.5129L39.2635 31.8222C38.9711 31.3841 38.4824 31.1224 37.956 31.1224H32.1461C31.6197 31.1224 31.1309 31.3841 30.8386 31.8222L29.7012 33.5284L27.3013 34.1283C26.7757 34.2595 26.4082 34.7298 26.4082 35.2716V37.2455C26.4082 37.7085 26.5885 38.144 26.9162 38.4716C27.2392 38.7942 27.6858 38.9796 28.1423 38.9796H29.1979C29.3804 39.8751 30.1736 40.551 31.1225 40.551C32.0713 40.551 32.8645 39.8751 33.047 38.9796H38.2336C38.4161 39.8751 39.2093 40.551 40.1581 40.551C41.107 40.551 41.9002 39.8751 42.0827 38.9796H43.8434C44.1435 38.9796 44.4128 38.8135 44.547 38.5453L45.1824 37.2739C45.1962 37.2462 45.2069 37.2171 45.2138 37.1872L45.2553 37.0114C45.2622 36.9823 45.2652 36.9524 45.2652 36.9224V35.3238C45.2653 34.7448 44.8509 34.2561 44.2801 34.1613Z" fill="#0077F2"/>
<path d="M31.4921 32.258C31.6379 32.039 31.8826 31.9081 32.1458 31.9081H37.9558C38.219 31.9081 38.4638 32.039 38.6095 32.258L39.4239 33.4796H30.6777L31.4921 32.258Z" fill="white"/>
<path d="M31.1224 39.7652C31.7733 39.7652 32.301 39.2376 32.301 38.5866C32.301 37.9357 31.7733 37.4081 31.1224 37.4081C30.4715 37.4081 29.9438 37.9357 29.9438 38.5866C29.9438 39.2376 30.4715 39.7652 31.1224 39.7652Z" fill="#0072FF"/>
<path d="M40.1581 39.7652C40.809 39.7652 41.3366 39.2376 41.3366 38.5866C41.3366 37.9357 40.809 37.4081 40.1581 37.4081C39.5072 37.4081 38.9795 37.9357 38.9795 38.5866C38.9795 39.2376 39.5072 39.7652 40.1581 39.7652Z" fill="#0072FF"/>
<path d="M44.4795 36.8768L43.8434 38.1938H42.0827C41.9002 37.2983 41.107 36.6224 40.1581 36.6224C39.2093 36.6224 38.4161 37.2983 38.2336 38.1938H33.047C32.8644 37.2983 32.0713 36.6224 31.1224 36.6224C30.1736 36.6224 29.3804 37.2983 29.1979 38.1938H28.1422C27.8928 38.1938 27.6481 38.0925 27.4716 37.916C27.2928 37.7369 27.1938 37.4987 27.1938 37.2454V35.2716C27.1938 35.0909 27.3166 34.9344 27.4915 34.8903L29.9922 34.2653H40.1259L44.1511 34.9363C44.3414 34.9678 44.4795 35.1308 44.4795 35.3238V36.8768Z" fill="white"/>
<path opacity="0.1" d="M31.7327 37.5835C31.8417 37.7621 31.9081 37.9697 31.9081 38.1939C31.9081 38.8438 31.3794 39.3724 30.7295 39.3724C30.5053 39.3724 30.2977 39.3061 30.1191 39.1971C30.3263 39.5362 30.6966 39.7653 31.1223 39.7653C31.7722 39.7653 32.3009 39.2366 32.3009 38.5867C32.3009 38.161 32.0718 37.7907 31.7327 37.5835Z" fill="white"/>
<path opacity="0.1" d="M40.7683 37.5835C40.8774 37.7621 40.9437 37.9697 40.9437 38.1939C40.9437 38.8438 40.415 39.3724 39.7651 39.3724C39.541 39.3724 39.3334 39.3061 39.1548 39.1971C39.362 39.5363 39.7322 39.7653 40.158 39.7653C40.8079 39.7653 41.3365 39.2366 41.3365 38.5867C41.3365 38.161 41.1075 37.7907 40.7683 37.5835Z" fill="white"/>
<path opacity="0.1" d="M42.6294 37.4081C42.4725 37.4081 42.3393 37.3105 42.2708 37.1692C41.9422 36.491 41.3013 35.9974 40.5307 35.8742C40.4098 35.8509 40.2857 35.8366 40.1581 35.8366C40.0305 35.8366 39.9065 35.8508 39.7855 35.8742C39.0148 35.9974 38.3738 36.4912 38.0452 37.1696C37.9769 37.3106 37.844 37.4081 37.6873 37.4081H33.5924C33.4362 37.4081 33.3037 37.3109 33.2356 37.1703C32.9071 36.4916 32.266 35.9975 31.495 35.8742C31.3741 35.8509 31.25 35.8367 31.1224 35.8367C30.9948 35.8367 30.8708 35.8509 30.7498 35.8742C29.9795 35.9974 29.3388 36.4907 29.01 37.1685C28.9412 37.3102 28.8077 37.4081 28.6502 37.4081H28.3724C28.1192 37.4081 27.6508 37.3095 27.4716 37.1303C27.2925 36.9512 27.1938 36.7129 27.1938 36.4597V37.2454C27.1938 37.4986 27.2924 37.7369 27.4716 37.916C27.6508 38.0952 27.889 38.1938 28.1422 38.1938H29.1979C29.3804 37.2983 30.1739 36.6224 31.1224 36.6224C32.0709 36.6224 32.8644 37.2983 33.0469 38.1938H33.4796H37.801H38.2336C38.4161 37.2983 39.2096 36.6224 40.1581 36.6224C41.1066 36.6224 41.9001 37.2983 42.0826 38.1938H42.5153H43.8438L44.4795 36.8768V36.091L43.95 37.1881C43.8851 37.3226 43.7489 37.4081 43.5995 37.4081H42.6294Z" fill="white"/>
<defs>
<filter id="filter0_d" x="15" y="17" width="41" height="41" filterUnits="userSpaceOnUse" color-interpolation-filters="sRGB">
<feFlood flood-opacity="0" result="BackgroundImageFix"/>
<feColorMatrix in="SourceAlpha" type="matrix" values="0 0 0 0 0 0 0 0 0 0 0 0 0 0 0 0 0 0 127 0"/>
<feOffset dy="2"/>
<feGaussianBlur stdDeviation="2"/>
<feColorMatrix type="matrix" values="0 0 0 0 0 0 0 0 0 0 0 0 0 0 0 0 0 0 0.15 0"/>
<feBlend mode="normal" in2="BackgroundImageFix" result="effect1_dropShadow"/>
<feBlend mode="normal" in="SourceGraphic" in2="effect1_dropShadow" result="shape"/>
</filter>
</defs>
</svg>
