<svg width="27" height="23" viewBox="0 0 27 23" fill="none" xmlns="http://www.w3.org/2000/svg">
<path d="M21.3567 13.1432C20.4498 13.1432 19.7139 13.8792 19.7139 14.786C19.7139 15.6929 20.4498 16.4288 21.3567 16.4288H26.285V13.1432H21.3567Z" fill="#0072FF"/>
<path d="M21.3562 11.5005H24.6418V7.39354C24.6418 6.93356 24.2804 6.57215 23.8204 6.57215H22.1776V4.10797C22.1776 3.64799 21.8162 3.28658 21.3562 3.28658H19.4013L17.9885 0.460986C17.7749 0.0502894 17.2821 -0.113989 16.8878 0.083145L14.9822 1.03596L14.7029 0.460986C14.4894 0.0502894 13.9965 -0.113989 13.6023 0.083145L7.1954 3.28658H2.46418C1.10067 3.28658 0 4.38724 0 5.75075V20.5358C0 21.8993 1.10067 23 2.46418 23H23.8204C24.2804 23 24.6418 22.6386 24.6418 22.1786V18.0716H21.3562C19.5491 18.0716 18.0706 16.5931 18.0706 14.7861C18.0706 12.979 19.5491 11.5005 21.3562 11.5005ZM20.5348 4.92936V5.55362L20.2227 4.92936H20.5348ZM1.69207 6.03003C1.65921 5.94789 1.64279 5.84932 1.64279 5.75075C1.64279 5.29077 2.0042 4.92936 2.46418 4.92936H3.90983L1.69207 6.03003ZM4.3041 6.57215L13.6023 1.92306L15.9186 6.57215H4.3041ZM17.7585 6.57215L15.7215 2.49804L16.8878 1.92306L19.2042 6.57215H17.7585Z" fill="#0072FF"/>
<path d="M11.5957 11.8989C11.7872 12.1236 11.9184 12.4007 11.9894 12.7303H13V13.6292H12.0426C11.9929 14.1685 11.805 14.6142 11.4787 14.9663C11.1596 15.3184 10.7376 15.5468 10.2128 15.6517C10.4255 15.7041 10.617 15.7978 10.7872 15.9326C10.9574 16.0674 11.117 16.2584 11.266 16.5056L12.8511 19H11.2128L9.61702 16.4494C9.47518 16.2097 9.3227 16.0412 9.15957 15.9438C9.00355 15.839 8.79433 15.7865 8.53191 15.7865H7V14.6517H9.26596C9.6773 14.6517 10.0035 14.5655 10.2447 14.3933C10.4858 14.221 10.6348 13.9663 10.6915 13.6292H7V12.7303H10.6489C10.5709 12.4532 10.4149 12.2472 10.1809 12.1124C9.94681 11.97 9.64184 11.8989 9.26596 11.8989H7V11H13V11.8989H11.5957Z" fill="white"/>
</svg>
