<svg width="20" height="20" viewBox="0 0 20 20" fill="none" xmlns="http://www.w3.org/2000/svg">
<circle cx="10" cy="10" r="10" fill="#0072FF"/>
<path d="M15.7058 9.43301C15.5968 9.42098 15.1489 9.37154 15.0867 9.36466C14.7848 6.93349 12.7109 5 10.1357 5C7.3779 5 5.146 7.23166 5.146 9.98967C5.146 12.7475 7.37765 14.9793 10.1357 14.9793C11.5846 14.9793 12.895 14.3618 13.8116 13.3638C13.9746 13.1862 13.9629 12.9101 13.7854 12.747C13.6078 12.584 13.3317 12.5958 13.1686 12.7733C12.4159 13.5929 11.3371 14.1064 10.1357 14.1064C7.8657 14.1064 6.01894 12.2596 6.01894 9.98967C6.01894 7.7197 7.8657 5.87295 10.1357 5.87295C12.1586 5.87295 13.8454 7.33966 14.1885 9.26551C14.0672 9.2521 14.1869 9.26532 13.5407 9.19398C13.4132 9.17991 13.3186 9.30949 13.3708 9.42665L14.2489 11.3982C14.3006 11.5143 14.4581 11.5317 14.5339 11.4297L15.821 9.69713C15.8974 9.59419 15.8333 9.44708 15.7058 9.43301Z" fill="white"/>
<path d="M15.7059 9.43301C15.5969 9.42096 15.149 9.37154 15.0868 9.36466C14.7849 6.93347 12.7109 5 10.1357 5C10.0334 5 9.93186 5.00345 9.83105 5.00949C12.263 5.1556 14.1862 7.03059 14.4761 9.36466C14.5383 9.37152 14.9861 9.42096 15.0952 9.43301C15.2227 9.44708 15.2868 9.59419 15.2103 9.69715L14.1356 11.1439L14.2489 11.3983C14.3006 11.5143 14.4582 11.5317 14.534 11.4297L15.821 9.69715C15.8975 9.59419 15.8334 9.44708 15.7059 9.43301Z" fill="white"/>
</svg>
