<svg width="17" height="14" viewBox="0 0 17 14" fill="none" xmlns="http://www.w3.org/2000/svg">
<path d="M14.4777 6.27821C14.2576 6.27845 14.0633 6.13498 13.9994 5.92524C13.9353 5.7155 14.017 5.48901 14.2 5.36739L15.6977 4.37305C15.9271 4.2206 16.2372 4.28226 16.3903 4.5107C16.5431 4.73913 16.4812 5.04792 16.2518 5.20013L14.7541 6.19446C14.6722 6.24908 14.5762 6.27797 14.4777 6.27821Z" fill="#FFB74F"/>
<path d="M2.49618 6.27821C2.3977 6.27797 2.30141 6.24908 2.21951 6.19446L0.721819 5.20013C0.492436 5.04792 0.43052 4.73913 0.583604 4.5107C0.736688 4.28226 1.04651 4.2206 1.2759 4.37305L2.77359 5.36739C2.9569 5.48901 3.03831 5.7155 2.97445 5.92524C2.91058 6.13498 2.7163 6.27845 2.49618 6.27821Z" fill="#FFB74F"/>
<path d="M14.9418 5.5979C14.9218 5.54813 14.8879 5.42724 14.8421 5.26216C14.4491 3.927 13.9618 2.47506 13.331 1.83176C13.1506 1.64095 12.9395 1.48146 12.7062 1.36008C12.6472 1.33143 12.5831 1.31444 12.5175 1.31031C12.5492 1.31274 12.5807 1.3176 12.6114 1.32512C11.2726 0.936954 9.88048 0.762654 8.48687 0.809264C5.46102 0.809264 4.38261 1.3023 4.26925 1.35911C4.03597 1.48389 3.82512 1.64653 3.64522 1.84025C3.11015 2.40661 2.57046 3.65535 2.04222 5.55323L2.02272 5.62314C1.97202 5.77487 1.99737 5.94164 2.09097 6.07127C2.18482 6.2009 2.33547 6.27786 2.49611 6.2781H14.4776C14.6429 6.2781 14.7975 6.19654 14.8906 6.06035C14.9834 5.92416 15.0027 5.75108 14.9418 5.5979Z" fill="white"/>
<path d="M16.7205 9.32572C16.564 9.23736 16.3717 9.23979 16.2174 9.33203L13.7212 10.8235C13.5711 10.9136 13.4792 11.0753 13.4792 11.2498V12.2441C13.4792 12.7933 13.9263 13.2385 14.4776 13.2385H15.9753C16.5267 13.2385 16.9738 12.7933 16.9738 12.2441V9.75831C16.9738 9.57916 16.877 9.41384 16.7205 9.32572Z" fill="white"/>
<path d="M3.25231 10.8236L0.756158 9.33207C0.602099 9.23982 0.410012 9.23739 0.253272 9.32551C0.0967747 9.41388 0 9.57919 0 9.75835V12.2442C0 12.7933 0.447065 13.2385 0.998461 13.2385H2.49615C3.04755 13.2385 3.49461 12.7933 3.49461 12.2442V11.2498C3.49461 11.0753 3.40271 10.9136 3.25231 10.8236Z" fill="white"/>
<path d="M16.8276 6.42381C16.528 6.12546 16.1575 5.83755 14.8779 5.39355L14.8397 5.26222C14.4467 3.92705 13.9594 2.47512 13.3283 1.83181C13.1482 1.641 12.9371 1.48151 12.7038 1.36013C12.6448 1.33149 12.5807 1.3145 12.5151 1.31037C12.5468 1.3128 12.5783 1.31765 12.609 1.32518C11.2709 0.93725 9.87978 0.76295 8.48691 0.809317C5.46106 0.809317 4.38265 1.30236 4.2693 1.35916C4.03601 1.48394 3.82516 1.64659 3.64526 1.84031C3.12555 2.39015 2.60194 3.58938 2.08833 5.39598C0.815149 5.83852 0.445358 6.12595 0.146259 6.42381C0.0526532 6.51703 0 6.64327 0 6.77533V9.75833C0 9.93263 0.0918993 10.0943 0.242058 10.1844L2.73821 11.6759C2.81597 11.7222 2.9047 11.7468 2.99538 11.747H13.9784C14.0689 11.7468 14.1579 11.7222 14.2354 11.6759L16.7315 10.1844C16.8819 10.0943 16.9738 9.93263 16.9738 9.75833V6.77533C16.9738 6.64327 16.9212 6.51703 16.8276 6.42381ZM4.36729 2.52731C4.46626 2.41759 4.58205 2.32437 4.71075 2.25105C4.72026 2.24644 5.70263 1.80365 8.48691 1.80365C9.75912 1.75097 11.0313 1.90197 12.2555 2.25105L12.2874 2.26295C12.4079 2.33335 12.5173 2.42074 12.6124 2.52246C13.0972 3.01962 13.5675 4.49073 13.8046 5.28261H3.15919C3.74423 3.33934 4.19348 2.70889 4.36729 2.52731Z" fill="#0072FF"/>
<path d="M5.49154 8.26689C5.49154 9.09057 4.82094 9.75839 3.99385 9.75839C3.16675 9.75839 2.49615 9.09057 2.49615 8.26689C2.49615 7.44297 3.16675 6.77539 3.99385 6.77539C4.82094 6.77539 5.49154 7.44297 5.49154 8.26689Z" fill="white"/>
<path d="M14.4777 8.26689C14.4777 9.09057 13.8071 9.75839 12.98 9.75839C12.1529 9.75839 11.4823 9.09057 11.4823 8.26689C11.4823 7.44297 12.1529 6.77539 12.98 6.77539C13.8071 6.77539 14.4777 7.44297 14.4777 8.26689Z" fill="white"/>
<path d="M6.49002 4.28956C6.28818 4.28932 6.10609 4.16818 6.02881 3.98247C5.95154 3.79676 5.9942 3.58289 6.13704 3.44088L6.63627 2.94371C6.83202 2.75509 7.14355 2.758 7.33612 2.94978C7.5287 3.14156 7.53138 3.45156 7.34222 3.6465L6.84299 4.14366C6.74938 4.23713 6.62238 4.28932 6.49002 4.28956Z" fill="#F5F5F5"/>
<path d="M9.98458 4.28956C9.78275 4.28932 9.60065 4.16818 9.52338 3.98247C9.44611 3.79676 9.48877 3.58289 9.63161 3.44088L10.1308 2.94371C10.3266 2.75509 10.6381 2.758 10.8307 2.94978C11.0233 3.14156 11.0259 3.45156 10.8368 3.6465L10.3376 4.14366C10.2439 4.23713 10.1169 4.28932 9.98458 4.28956Z" fill="#F5F5F5"/>
<path d="M0 6.7753V12.2441C0 12.7933 0.447065 13.2385 0.998461 13.2385H2.49615C3.04755 13.2385 3.49461 12.7933 3.49461 12.2441V11.747H13.4792V12.2441C13.4792 12.7933 13.9263 13.2385 14.4777 13.2385H15.9754C16.5268 13.2385 16.9738 12.7933 16.9738 12.2441V6.7753C16.9738 6.64324 16.9212 6.517 16.8276 6.42378C16.4714 6.07713 16.0426 5.81373 15.5719 5.65206L16.2523 5.20004C16.4817 5.04783 16.5436 4.73905 16.3907 4.51061C16.2377 4.28218 15.9276 4.22052 15.6982 4.37297L14.7592 4.99637C14.3802 3.7384 13.918 2.43236 13.3283 1.83033C13.1482 1.63952 12.9371 1.48003 12.7038 1.35865C12.6446 1.33025 12.5807 1.31325 12.5151 1.30888C12.5468 1.31082 12.5783 1.31568 12.609 1.32321C11.271 0.93625 9.87954 0.762678 8.48691 0.809288C5.46057 0.809288 4.38265 1.30233 4.26978 1.35865C4.03626 1.48343 3.82516 1.64607 3.64526 1.84028C3.16504 2.34789 2.6819 3.40995 2.20607 4.99079L1.27538 4.37297C1.04599 4.22052 0.73617 4.28218 0.583085 4.51061C0.430001 4.73905 0.491917 5.04783 0.7213 5.20004L1.40189 5.65206C0.931181 5.81373 0.502399 6.07713 0.146259 6.42378C0.0526532 6.517 0 6.64324 0 6.7753ZM2.49615 12.2441H0.998461V10.6366L2.49615 11.5316V12.2441ZM15.9754 12.2441H14.4777V11.5312L15.9754 10.6361V12.2441ZM4.36778 2.5268C4.46626 2.41707 4.58205 2.32385 4.71075 2.25102C4.72026 2.2469 5.70263 1.80362 8.48691 1.80362C9.75912 1.75094 11.0313 1.90194 12.2555 2.25102L12.2875 2.26292C12.4081 2.33308 12.5178 2.42047 12.6129 2.52243C13.0968 3.0196 13.5679 4.49119 13.8046 5.28258H3.15919C3.74423 3.33931 4.19349 2.70887 4.36778 2.5268ZM0.998461 6.99305C1.48063 6.66776 2.01447 6.42597 2.57757 6.27813H14.3963C14.9594 6.42597 15.4932 6.66776 15.9754 6.99305V9.47889L13.84 10.7526H3.1336L0.998461 9.4767V6.99305Z" fill="#0072FF"/>
<path d="M5.49154 8.26671C5.49154 7.44279 4.82094 6.77521 3.99385 6.77521C3.16675 6.77521 2.49615 7.44279 2.49615 8.26671C2.49615 9.09039 3.16675 9.75821 3.99385 9.75821C4.82094 9.75821 5.49154 9.09039 5.49154 8.26671ZM3.49462 8.26671C3.49462 7.99191 3.71815 7.76954 3.99385 7.76954C4.26954 7.76954 4.49308 7.99191 4.49308 8.26671C4.49308 8.54127 4.26954 8.76388 3.99385 8.76388C3.71815 8.76388 3.49462 8.54127 3.49462 8.26671Z" fill="white"/>
<path d="M12.98 9.75821C13.8071 9.75821 14.4777 9.09039 14.4777 8.26671C14.4777 7.44279 13.8071 6.77521 12.98 6.77521C12.1529 6.77521 11.4823 7.44279 11.4823 8.26671C11.4823 9.09039 12.1529 9.75821 12.98 9.75821ZM12.98 7.76954C13.2557 7.76954 13.4792 7.99191 13.4792 8.26671C13.4792 8.54127 13.2557 8.76388 12.98 8.76388C12.7043 8.76388 12.4808 8.54127 12.4808 8.26671C12.4808 7.99191 12.7043 7.76954 12.98 7.76954Z" fill="white"/>
<path d="M6.63629 2.94353L6.13706 3.4407C6.00714 3.56547 5.95522 3.75021 6.0008 3.92403C6.04663 4.09784 6.18289 4.23379 6.35743 4.27918C6.53196 4.32458 6.71771 4.27287 6.84301 4.14348L7.34224 3.64631C7.5314 3.45138 7.52872 3.14138 7.33614 2.9496C7.14357 2.75782 6.83204 2.75491 6.63629 2.94353Z" fill="white"/>
<path d="M10.1309 2.94353L9.63169 3.4407C9.50177 3.56547 9.44984 3.75021 9.49543 3.92403C9.54126 4.09784 9.67752 4.23379 9.85206 4.27918C10.0266 4.32458 10.2123 4.27287 10.3376 4.14348L10.8369 3.64631C11.026 3.45138 11.0233 3.14138 10.8308 2.9496C10.6382 2.75782 10.3267 2.75491 10.1309 2.94353Z" fill="white"/>
</svg>
