<svg width="29" height="22" viewBox="0 0 29 22" fill="none" xmlns="http://www.w3.org/2000/svg">
<path d="M24.6763 9.33437C24.3011 9.33478 23.97 9.09024 23.8611 8.73273C23.7518 8.37523 23.891 7.98917 24.2031 7.78187L26.7559 6.08704C27.1468 5.82718 27.6754 5.93228 27.9363 6.32165C28.1968 6.71101 28.0913 7.23734 27.7003 7.49678L25.1475 9.19161C25.0079 9.28471 24.8442 9.33395 24.6763 9.33437Z" fill="#FFB74F"/>
<path d="M4.25477 9.33437C4.08691 9.33395 3.92279 9.28471 3.78318 9.19161L1.23038 7.49678C0.839398 7.23734 0.733863 6.71101 0.994793 6.32165C1.25572 5.93228 1.78382 5.82718 2.1748 6.08704L4.7276 7.78187C5.04005 7.98917 5.17883 8.37523 5.06997 8.73273C4.96111 9.09024 4.62996 9.33478 4.25477 9.33437Z" fill="#FFB74F"/>
<path d="M25.4684 8.17477C25.4343 8.08994 25.3766 7.88388 25.2985 7.60251C24.6287 5.32674 23.7981 2.85193 22.7228 1.75542C22.4154 1.43019 22.0555 1.15834 21.6579 0.951448C21.5574 0.902622 21.4481 0.873658 21.3363 0.866623C21.3903 0.870761 21.4439 0.879037 21.4963 0.891864C19.2144 0.230233 16.8415 -0.0668597 14.4661 0.0125857C9.30857 0.0125857 7.47042 0.852969 7.27722 0.949793C6.87959 1.16247 6.52018 1.43971 6.21355 1.7699C5.30154 2.73524 4.38163 4.86372 3.48125 8.09863L3.44801 8.2178C3.36159 8.47641 3.4048 8.76068 3.56435 8.98164C3.72432 9.20259 3.98109 9.33376 4.25491 9.33417H24.6773C24.959 9.33417 25.2224 9.19514 25.3812 8.96302C25.5395 8.73089 25.5723 8.43586 25.4684 8.17477Z" fill="white"/>
<path d="M28.4994 14.5288C28.2327 14.3782 27.9049 14.3824 27.6419 14.5396L23.3872 17.0818C23.1313 17.2354 22.9746 17.5109 22.9746 17.8084V19.5033C22.9746 20.4392 23.7366 21.1981 24.6765 21.1981H27.2293C28.1691 21.1981 28.9311 20.4392 28.9311 19.5033V15.2662C28.9311 14.9608 28.7662 14.679 28.4994 14.5288Z" fill="white"/>
<path d="M5.54354 17.0819L1.28887 14.5396C1.02627 14.3824 0.698863 14.3783 0.431699 14.5285C0.164952 14.6791 0 14.9609 0 15.2662V19.5033C0 20.4393 0.762018 21.1982 1.70187 21.1982H4.25467C5.19452 21.1982 5.95654 20.4393 5.95654 19.5033V17.8085C5.95654 17.511 5.7999 17.2354 5.54354 17.0819Z" fill="white"/>
<path d="M28.6824 9.58251C28.1718 9.07398 27.5402 8.58324 25.3593 7.82644L25.2941 7.60258C24.6243 5.3268 23.7937 2.852 22.718 1.75549C22.411 1.43026 22.0511 1.1584 21.6535 0.951514C21.553 0.902688 21.4437 0.873724 21.3319 0.86669C21.3859 0.870827 21.4395 0.879103 21.4919 0.89193C19.2112 0.230713 16.84 -0.0663799 14.4659 0.0126517C9.30833 0.0126517 7.47018 0.853035 7.27698 0.949859C6.87935 1.16254 6.51995 1.43977 6.21331 1.76997C5.32748 2.70718 4.43499 4.75124 3.55954 7.83058C1.38941 8.58489 0.759109 9.07481 0.249297 9.58251C0.0897469 9.7414 0 9.95657 0 10.1817V15.2662C0 15.5633 0.156642 15.8388 0.412586 15.9923L4.66725 18.5346C4.7998 18.6136 4.95104 18.6554 5.1056 18.6558H23.8261C23.9803 18.6554 24.1319 18.6136 24.2641 18.5346L28.5187 15.9923C28.7751 15.8388 28.9317 15.5633 28.9317 15.2662V10.1817C28.9317 9.95657 28.842 9.7414 28.6824 9.58251ZM7.44401 2.94096C7.6127 2.75393 7.81006 2.59504 8.02944 2.47008C8.04564 2.46222 9.72009 1.70749 14.4659 1.70749C16.6343 1.6177 18.8028 1.87507 20.8894 2.47008L20.9439 2.49036C21.1491 2.61035 21.3357 2.75931 21.4977 2.93268C22.3241 3.7801 23.1256 6.2876 23.5299 7.63734H5.38481C6.382 4.32505 7.14776 3.25047 7.44401 2.94096Z" fill="#0072FF"/>
<path d="M9.36049 12.7241C9.36049 14.128 8.21746 15.2663 6.80768 15.2663C5.39791 15.2663 4.25488 14.128 4.25488 12.7241C4.25488 11.3197 5.39791 10.1818 6.80768 10.1818C8.21746 10.1818 9.36049 11.3197 9.36049 12.7241Z" fill="white"/>
<path d="M24.6769 12.7241C24.6769 14.128 23.5339 15.2663 22.1241 15.2663C20.7143 15.2663 19.5713 14.128 19.5713 12.7241C19.5713 11.3197 20.7143 10.1818 22.1241 10.1818C23.5339 10.1818 24.6769 11.3197 24.6769 12.7241Z" fill="white"/>
<path d="M11.0619 5.94472C10.7178 5.9443 10.4075 5.73783 10.2758 5.42129C10.144 5.10475 10.2168 4.74021 10.4602 4.49815L11.3112 3.65073C11.6448 3.32922 12.1758 3.33419 12.5041 3.66107C12.8323 3.98796 12.8369 4.51635 12.5144 4.84862L11.6635 5.69603C11.504 5.85534 11.2875 5.9443 11.0619 5.94472Z" fill="#F5F5F5"/>
<path d="M17.0189 5.94472C16.6749 5.9443 16.3645 5.73783 16.2328 5.42129C16.1011 5.10475 16.1738 4.74021 16.4173 4.49815L17.2682 3.65073C17.6018 3.32922 18.1328 3.33419 18.4611 3.66107C18.7893 3.98796 18.7939 4.51635 18.4715 4.84862L17.6205 5.69603C17.461 5.85534 17.2445 5.9443 17.0189 5.94472Z" fill="#F5F5F5"/>
<path d="M0 10.1816V19.5032C0 20.4392 0.762018 21.1981 1.70187 21.1981H4.25467C5.19452 21.1981 5.95654 20.4392 5.95654 19.5032V18.6558H22.9752V19.5032C22.9752 20.4392 23.7372 21.1981 24.6771 21.1981H27.2299C28.1697 21.1981 28.9317 20.4392 28.9317 19.5032V10.1816C28.9317 9.95654 28.842 9.74138 28.6825 9.58249C28.0754 8.99161 27.3446 8.54266 26.5422 8.26709L27.7019 7.49663C28.0929 7.23719 28.1984 6.71087 27.9379 6.3215C27.677 5.93214 27.1484 5.82704 26.7575 6.08689L25.157 7.14947C24.5109 5.00527 23.7231 2.77915 22.718 1.75298C22.411 1.42775 22.0512 1.1559 21.6535 0.949007C21.5526 0.900595 21.4437 0.87163 21.3319 0.864182C21.3859 0.867493 21.4395 0.875768 21.4919 0.888595C19.2112 0.229033 16.8396 -0.0668185 14.4659 0.0126269C9.3075 0.0126269 7.47018 0.85301 7.27781 0.949007C6.87977 1.16169 6.51995 1.43892 6.21331 1.76994C5.39479 2.63515 4.57128 4.44543 3.76023 7.13996L2.17387 6.08689C1.78289 5.82704 1.2548 5.93214 0.993864 6.3215C0.732933 6.71087 0.838469 7.23719 1.22945 7.49663L2.38951 8.26709C1.58719 8.54266 0.856335 8.99161 0.249297 9.58249C0.0897469 9.74138 0 9.95654 0 10.1816ZM4.25467 19.5032H1.70187V16.7632L4.25467 18.2888V19.5032ZM27.2299 19.5032H24.6771V18.288L27.2299 16.7624V19.5032ZM7.44484 2.94011C7.6127 2.75308 7.81006 2.59419 8.02944 2.47006C8.04565 2.46302 9.72009 1.70746 14.4659 1.70746C16.6343 1.61767 18.8028 1.87504 20.8894 2.47006L20.9439 2.49033C21.1495 2.60991 21.3365 2.75887 21.4985 2.93266C22.3233 3.78008 23.1265 6.2884 23.5299 7.63732H5.38482C6.382 4.32502 7.14776 3.25044 7.44484 2.94011ZM1.70187 10.5528C2.52372 9.99833 3.43365 9.58621 4.39344 9.33422H24.5383C25.4981 9.58621 26.408 9.99833 27.2299 10.5528V14.7899L23.5901 16.961H5.34119L1.70187 14.7862V10.5528Z" fill="#0072FF"/>
<path d="M9.36049 12.7237C9.36049 11.3193 8.21746 10.1815 6.80768 10.1815C5.39791 10.1815 4.25488 11.3193 4.25488 12.7237C4.25488 14.1277 5.39791 15.266 6.80768 15.266C8.21746 15.266 9.36049 14.1277 9.36049 12.7237ZM5.95675 12.7237C5.95675 12.2553 6.33776 11.8763 6.80768 11.8763C7.27761 11.8763 7.65862 12.2553 7.65862 12.7237C7.65862 13.1917 7.27761 13.5711 6.80768 13.5711C6.33776 13.5711 5.95675 13.1917 5.95675 12.7237Z" fill="white"/>
<path d="M22.1241 15.266C23.5339 15.266 24.6769 14.1277 24.6769 12.7237C24.6769 11.3193 23.5339 10.1815 22.1241 10.1815C20.7143 10.1815 19.5713 11.3193 19.5713 12.7237C19.5713 14.1277 20.7143 15.266 22.1241 15.266ZM22.1241 11.8763C22.594 11.8763 22.975 12.2553 22.975 12.7237C22.975 13.1917 22.594 13.5711 22.1241 13.5711C21.6542 13.5711 21.2732 13.1917 21.2732 12.7237C21.2732 12.2553 21.6542 11.8763 22.1241 11.8763Z" fill="white"/>
<path d="M11.3111 3.65042L10.4601 4.49784C10.2387 4.71052 10.1502 5.02541 10.2279 5.32167C10.306 5.61794 10.5383 5.84965 10.8357 5.92703C11.1332 6.00441 11.4499 5.91627 11.6634 5.69573L12.5143 4.84831C12.8368 4.51605 12.8322 3.98765 12.504 3.66077C12.1757 3.33388 11.6447 3.32892 11.3111 3.65042Z" fill="white"/>
<path d="M17.2681 3.65042L16.4172 4.49784C16.1957 4.71052 16.1072 5.02541 16.1849 5.32167C16.263 5.61794 16.4953 5.84965 16.7928 5.92703C17.0903 6.00441 17.4069 5.91627 17.6204 5.69573L18.4714 4.84831C18.7938 4.51605 18.7892 3.98765 18.461 3.66077C18.1327 3.33388 17.6017 3.32892 17.2681 3.65042Z" fill="white"/>
</svg>
