<svg width="28" height="20" viewBox="0 0 28 20" fill="none" xmlns="http://www.w3.org/2000/svg">
<path d="M23.2824 8.80678C22.9285 8.80717 22.616 8.57645 22.5133 8.23915C22.4102 7.90185 22.5415 7.53762 22.8359 7.34203L25.2445 5.74299C25.6133 5.49783 26.112 5.59698 26.3582 5.96434C26.604 6.3317 26.5044 6.82828 26.1355 7.07305L23.727 8.6721C23.5953 8.75993 23.4408 8.80639 23.2824 8.80678Z" fill="#FFB74F"/>
<path d="M4.01408 8.80678C3.8557 8.80639 3.70086 8.75993 3.56914 8.6721L1.16063 7.07305C0.791746 6.82828 0.692175 6.3317 0.938358 5.96434C1.18454 5.59698 1.68279 5.49783 2.05167 5.74299L4.46019 7.34203C4.75498 7.53762 4.88591 7.90185 4.7832 8.23915C4.6805 8.57645 4.36806 8.80717 4.01408 8.80678Z" fill="#FFB74F"/>
<path d="M24.0285 7.71273C23.9963 7.6327 23.9418 7.43828 23.8681 7.17282C23.2362 5.02567 22.4526 2.69074 21.4381 1.6562C21.148 1.34935 20.8085 1.09287 20.4333 0.897672C20.3385 0.851606 20.2354 0.824278 20.1299 0.817642C20.1809 0.821545 20.2315 0.829353 20.2809 0.841455C18.1279 0.21722 15.8892 -0.0630807 13.648 0.0118744C8.78199 0.0118744 7.04773 0.804759 6.86545 0.89611C6.49029 1.09677 6.1512 1.35833 5.8619 1.66987C5.00143 2.58065 4.13352 4.58882 3.28403 7.6409L3.25267 7.75333C3.17113 7.99732 3.2119 8.26552 3.36244 8.47399C3.51336 8.68246 3.75562 8.80622 4.01396 8.80661H23.2821C23.5479 8.80661 23.7964 8.67543 23.9462 8.45642C24.0955 8.23742 24.1265 7.95907 24.0285 7.71273Z" fill="white"/>
<path d="M26.8893 13.7076C26.6377 13.5655 26.3284 13.5694 26.0802 13.7178L22.066 16.1164C21.8245 16.2612 21.6768 16.5212 21.6768 16.8019V18.4009C21.6768 19.284 22.3957 20 23.2824 20H25.691C26.5777 20 27.2966 19.284 27.2966 18.4009V14.4033C27.2966 14.1152 27.141 13.8494 26.8893 13.7076Z" fill="white"/>
<path d="M5.23021 16.1164L1.21602 13.7178C0.968268 13.5695 0.659363 13.5656 0.4073 13.7073C0.155629 13.8494 0 14.1153 0 14.4034V18.401C0 19.284 0.718949 20 1.60568 20H4.01419C4.90092 20 5.61987 19.284 5.61987 18.401V16.8019C5.61987 16.5212 5.47208 16.2612 5.23021 16.1164Z" fill="white"/>
<path d="M8.8312 12.0049C8.8312 13.3295 7.75277 14.4034 6.42268 14.4034C5.09258 14.4034 4.01416 13.3295 4.01416 12.0049C4.01416 10.6799 5.09258 9.60632 6.42268 9.60632C7.75277 9.60632 8.8312 10.6799 8.8312 12.0049Z" fill="white"/>
<path d="M23.2824 12.0049C23.2824 13.3295 22.2039 14.4034 20.8739 14.4034C19.5438 14.4034 18.4653 13.3295 18.4653 12.0049C18.4653 10.6799 19.5438 9.60632 20.8739 9.60632C22.2039 9.60632 23.2824 10.6799 23.2824 12.0049Z" fill="white"/>
<path d="M10.4371 5.60873C10.1125 5.60834 9.8197 5.41353 9.69543 5.11488C9.57117 4.81623 9.63977 4.4723 9.86949 4.24392L10.6723 3.4444C10.9871 3.14106 11.4881 3.14575 11.7978 3.45416C12.1075 3.76257 12.1118 4.2611 11.8076 4.57458L11.0048 5.3741C10.8542 5.5244 10.65 5.60834 10.4371 5.60873Z" fill="#F5F5F5"/>
<path d="M16.0567 5.60873C15.7322 5.60834 15.4393 5.41353 15.3151 5.11488C15.1908 4.81623 15.2594 4.4723 15.4891 4.24392L16.292 3.4444C16.6067 3.14106 17.1077 3.14575 17.4174 3.45416C17.7271 3.76257 17.7314 4.2611 17.4272 4.57458L16.6244 5.3741C16.4738 5.5244 16.2696 5.60834 16.0567 5.60873Z" fill="#F5F5F5"/>
<path d="M0 9.60617V18.4009C0 19.284 0.718949 20 1.60568 20H4.01419C4.90092 20 5.61987 19.284 5.61987 18.4009V17.6014H21.6767V18.4009C21.6767 19.284 22.3956 20 23.2823 20H25.6908C26.5776 20 27.2965 19.284 27.2965 18.4009V9.60617C27.2965 9.3938 27.2118 9.19079 27.0613 9.04088C26.4886 8.48341 25.799 8.05983 25.0421 7.79983L26.1362 7.07292C26.5051 6.82815 26.6046 6.33157 26.3588 5.96421C26.1126 5.59685 25.614 5.49769 25.2451 5.74286L23.7351 6.74538C23.1255 4.72238 22.3823 2.62207 21.434 1.6539C21.1443 1.34705 20.8048 1.09056 20.4297 0.895369C20.3344 0.849693 20.2317 0.822366 20.1262 0.815339C20.1772 0.818462 20.2278 0.82627 20.2772 0.838372C18.1254 0.216088 15.8878 -0.0630419 13.6483 0.0119133C8.78144 0.0119133 7.04797 0.804798 6.86647 0.895369C6.49092 1.09603 6.15144 1.35759 5.86214 1.66991C5.08987 2.48621 4.31291 4.19418 3.5477 6.7364L2.051 5.74286C1.68212 5.49769 1.18387 5.59685 0.937691 5.96421C0.691508 6.33157 0.791079 6.82815 1.15996 7.07292L2.25446 7.79983C1.49748 8.05983 0.807935 8.48341 0.235207 9.04088C0.0846744 9.19079 0 9.3938 0 9.60617ZM4.01419 18.4009H1.60568V15.8157L4.01419 17.2551V18.4009ZM25.6908 18.4009H23.2823V17.2543L25.6908 15.815V18.4009ZM7.02406 2.77393C7.18243 2.59748 7.36863 2.44756 7.57562 2.33045C7.5909 2.32381 9.17071 1.61096 13.6483 1.61096C15.6942 1.52624 17.7401 1.76906 19.7088 2.33045L19.7601 2.34958C19.9542 2.4624 20.1306 2.60294 20.2834 2.76691C21.0616 3.56643 21.8193 5.93298 22.2 7.20565H5.08046C6.02129 4.08057 6.74377 3.06673 7.02406 2.77393ZM1.60568 9.95635C2.38108 9.43323 3.23958 9.0444 4.14513 8.80665H23.1514C24.0569 9.0444 24.9154 9.43323 25.6908 9.95635V13.954L22.2568 16.0023H5.0393L1.60568 13.9504V9.95635Z" fill="#0072FF"/>
<path d="M8.8312 12.0046C8.8312 10.6797 7.75277 9.60608 6.42268 9.60608C5.09258 9.60608 4.01416 10.6797 4.01416 12.0046C4.01416 13.3292 5.09258 14.4032 6.42268 14.4032C7.75277 14.4032 8.8312 13.3292 8.8312 12.0046ZM5.61984 12.0046C5.61984 11.5627 5.97931 11.2051 6.42268 11.2051C6.86604 11.2051 7.22552 11.5627 7.22552 12.0046C7.22552 12.4462 6.86604 12.8042 6.42268 12.8042C5.97931 12.8042 5.61984 12.4462 5.61984 12.0046Z" fill="#0072FF"/>
<path d="M20.8739 14.4032C22.2039 14.4032 23.2824 13.3292 23.2824 12.0046C23.2824 10.6797 22.2039 9.60608 20.8739 9.60608C19.5438 9.60608 18.4653 10.6797 18.4653 12.0046C18.4653 13.3292 19.5438 14.4032 20.8739 14.4032ZM20.8739 11.2051C21.3172 11.2051 21.6767 11.5627 21.6767 12.0046C21.6767 12.4462 21.3172 12.8042 20.8739 12.8042C20.4305 12.8042 20.071 12.4462 20.071 12.0046C20.071 11.5627 20.4305 11.2051 20.8739 11.2051Z" fill="#0072FF"/>
<path d="M10.6721 3.44415L9.86928 4.24367C9.66033 4.44434 9.57684 4.74142 9.65014 5.02094C9.72384 5.30046 9.94297 5.51908 10.2237 5.59209C10.5043 5.66509 10.803 5.58194 11.0045 5.37386L11.8074 4.57434C12.1116 4.26085 12.1073 3.76232 11.7976 3.45391C11.4879 3.1455 10.9869 3.14082 10.6721 3.44415Z" fill="white"/>
<path d="M16.2922 3.44415L15.4894 4.24367C15.2805 4.44434 15.197 4.74142 15.2703 5.02094C15.344 5.30046 15.5631 5.51908 15.8438 5.59209C16.1245 5.66509 16.4232 5.58194 16.6247 5.37386L17.4275 4.57434C17.7317 4.26085 17.7274 3.76232 17.4177 3.45391C17.108 3.1455 16.607 3.14082 16.2922 3.44415Z" fill="white"/>
</svg>
