<svg width="222" height="38" viewBox="0 0 222 38" fill="none" xmlns="http://www.w3.org/2000/svg">
<g opacity="0.5">
<path d="M39.9288 18.1746C39.3272 18.1752 38.7962 17.7831 38.6217 17.2099C38.4464 16.6366 38.6696 16.0176 39.17 15.6852L43.2634 12.9675C43.8903 12.5508 44.7378 12.7193 45.1562 13.3437C45.5739 13.968 45.4047 14.812 44.7778 15.228L40.6844 17.9457C40.4605 18.095 40.198 18.1739 39.9288 18.1746Z" fill="#FFB74F"/>
<path d="M7.18164 18.1746C6.91247 18.1739 6.64931 18.095 6.42545 17.9457L2.33204 15.228C1.7051 14.812 1.53588 13.968 1.95428 13.3437C2.37268 12.7193 3.21948 12.5508 3.84641 12.9675L7.93982 15.6852C8.44084 16.0176 8.66336 16.6366 8.48881 17.2099C8.31425 17.7831 7.78325 18.1752 7.18164 18.1746Z" fill="#FFB74F"/>
<path d="M41.1971 16.3152C41.1425 16.1792 41.0499 15.8488 40.9246 15.3976C39.8507 11.7484 38.5188 7.78009 36.7946 6.02184C36.3016 5.50033 35.7246 5.06442 35.087 4.73267C34.9258 4.65438 34.7505 4.60794 34.5713 4.59666C34.6579 4.60329 34.7439 4.61656 34.8278 4.63713C31.1688 3.57621 27.3639 3.09982 23.555 3.22721C15.2849 3.22721 12.3374 4.57476 12.0276 4.73002C11.39 5.07106 10.8137 5.51559 10.322 6.04506C8.8596 7.59299 7.38454 11.006 5.94078 16.1932L5.88748 16.3842C5.7489 16.7989 5.81819 17.2547 6.07403 17.6091C6.33054 17.9634 6.74228 18.1737 7.18133 18.1743H39.9286C40.3803 18.1743 40.8027 17.9514 41.0572 17.5792C41.3111 17.207 41.3637 16.7339 41.1971 16.3152Z" fill="white"/>
<path d="M46.0583 26.504C45.6305 26.2625 45.1049 26.2691 44.6831 26.5212L37.8608 30.5977C37.4504 30.8439 37.1992 31.2858 37.1992 31.7628V34.4805C37.1992 35.9813 38.4211 37.1981 39.9282 37.1981H44.0216C45.5286 37.1981 46.7505 35.9813 46.7505 34.4805V27.6863C46.7505 27.1967 46.486 26.7448 46.0583 26.504Z" fill="white"/>
<path d="M9.24841 30.5978L2.42607 26.5213C2.005 26.2692 1.48 26.2626 1.0516 26.5034C0.623874 26.7449 0.359375 27.1968 0.359375 27.6864V34.4806C0.359375 35.9814 1.58127 37.1982 3.08831 37.1982H7.18172C8.68877 37.1982 9.91066 35.9814 9.91066 34.4806V31.7629C9.91066 31.2859 9.65949 30.844 9.24841 30.5978Z" fill="white"/>
<path d="M46.3516 18.5726C45.5328 17.7572 44.5201 16.9703 41.023 15.7568L40.9184 15.3978C39.8444 11.7486 38.5125 7.78027 36.7876 6.02202C36.2953 5.50051 35.7183 5.0646 35.0807 4.73285C34.9195 4.65456 34.7443 4.60812 34.565 4.59684C34.6517 4.60347 34.7376 4.61674 34.8215 4.63731C31.1645 3.57705 27.3623 3.10066 23.5553 3.22739C15.2853 3.22739 12.3378 4.57494 12.028 4.7302C11.3904 5.07123 10.8141 5.51577 10.3224 6.04524C8.90196 7.54805 7.47087 10.8257 6.06709 15.7634C2.5873 16.973 1.5766 17.7585 0.759122 18.5726C0.503284 18.8274 0.359375 19.1724 0.359375 19.5334V27.6864C0.359375 28.1627 0.610549 28.6046 1.02096 28.8508L7.8433 32.9273C8.05583 33.054 8.29835 33.121 8.54619 33.1217H38.5645C38.8117 33.121 39.0549 33.054 39.2667 32.9273L46.0891 28.8508C46.5001 28.6046 46.7513 28.1627 46.7513 27.6864V19.5334C46.7513 19.1724 46.6074 18.8274 46.3516 18.5726ZM12.2958 7.92292C12.5663 7.62302 12.8828 7.36824 13.2346 7.16787C13.2605 7.15526 15.9455 5.94505 23.5553 5.94505C27.0325 5.80108 30.5096 6.21377 33.8555 7.16787L33.9428 7.20038C34.2719 7.39279 34.571 7.63165 34.8309 7.90965C36.156 9.26848 37.4412 13.2892 38.0895 15.4536H8.99391C10.5929 10.1423 11.8208 8.41921 12.2958 7.92292Z" fill="#B6CDEE"/>
<path d="M15.3685 23.6099C15.3685 25.8612 13.5356 27.6864 11.2751 27.6864C9.01448 27.6864 7.18164 25.8612 7.18164 23.6099C7.18164 21.358 9.01448 19.5334 11.2751 19.5334C13.5356 19.5334 15.3685 21.358 15.3685 23.6099Z" fill="white"/>
<path d="M39.929 23.6099C39.929 25.8612 38.0962 27.6864 35.8356 27.6864C33.575 27.6864 31.7422 25.8612 31.7422 23.6099C31.7422 21.358 33.575 19.5334 35.8356 19.5334C38.0962 19.5334 39.929 21.358 39.929 23.6099Z" fill="white"/>
<path d="M18.0969 12.7394C17.5452 12.7387 17.0476 12.4076 16.8364 11.9001C16.6252 11.3925 16.7418 10.8079 17.1322 10.4198L18.4966 9.06097C19.0316 8.54543 19.8831 8.5534 20.4094 9.07755C20.9358 9.60171 20.9431 10.449 20.4261 10.9818L19.0616 12.3406C18.8058 12.5961 18.4587 12.7387 18.0969 12.7394Z" fill="#F5F5F5"/>
<path d="M27.6487 12.7394C27.097 12.7387 26.5993 12.4076 26.3881 11.9001C26.1769 11.3925 26.2935 10.8079 26.6839 10.4198L28.0484 9.06097C28.5834 8.54543 29.4349 8.5534 29.9612 9.07755C30.4875 9.60171 30.4949 10.449 29.9778 10.9818L28.6134 12.3406C28.3575 12.5961 28.0104 12.7387 27.6487 12.7394Z" fill="#F5F5F5"/>
<path d="M0.359375 19.5333V34.4804C0.359375 35.9812 1.58127 37.1981 3.08831 37.1981H7.18172C8.68877 37.1981 9.91066 35.9812 9.91066 34.4804V33.1216H37.2001V34.4804C37.2001 35.9812 38.4219 37.1981 39.929 37.1981H44.0224C45.5294 37.1981 46.7513 35.9812 46.7513 34.4804V19.5333C46.7513 19.1723 46.6074 18.8273 46.3516 18.5725C45.3782 17.6251 44.2063 16.9052 42.9198 16.4633L44.7793 15.2279C45.4062 14.8118 45.5754 13.9679 45.1577 13.3435C44.7393 12.7192 43.8918 12.5507 43.2649 12.9673L40.6985 14.6712C39.6625 11.233 38.3993 7.66339 36.7876 6.01793C36.2953 5.49642 35.7183 5.06051 35.0807 4.72876C34.9188 4.65113 34.7443 4.60469 34.5651 4.59274C34.6517 4.59805 34.7376 4.61132 34.8216 4.63189C31.1645 3.57428 27.3616 3.09989 23.5554 3.22728C15.2839 3.22728 12.3378 4.57483 12.0293 4.72876C11.3911 5.0698 10.8141 5.51433 10.3224 6.04513C9.0099 7.43249 7.6894 10.3353 6.38889 14.6559L3.84517 12.9673C3.21823 12.5507 2.37143 12.7192 1.95303 13.3435C1.53463 13.9679 1.70386 14.8118 2.33079 15.2279L4.19095 16.4633C2.90443 16.9052 1.73251 17.6251 0.759122 18.5725C0.503284 18.8273 0.359375 19.1723 0.359375 19.5333ZM7.18172 34.4804H3.08831V30.0868L7.18172 32.5331V34.4804ZM44.0224 34.4804H39.929V32.5317L44.0224 30.0854V34.4804ZM12.2972 7.92148C12.5663 7.62158 12.8828 7.3668 13.2346 7.16776C13.2605 7.15648 15.9455 5.94494 23.5554 5.94494C27.0325 5.80096 30.5096 6.21366 33.8555 7.16776L33.9428 7.20027C34.2726 7.39202 34.5724 7.63087 34.8322 7.90954C36.1547 9.26837 37.4426 13.2905 38.0895 15.4534H8.99391C10.5929 10.1422 11.8208 8.4191 12.2972 7.92148ZM3.08831 20.1284C4.40615 19.2393 5.86522 18.5785 7.40425 18.1744H39.7065C41.2455 18.5785 42.7046 19.2393 44.0224 20.1284V26.9226L38.1861 30.4039H8.92395L3.08831 26.9166V20.1284Z" fill="#B6CDEE"/>
<path d="M15.3685 23.6096C15.3685 21.3577 13.5356 19.5331 11.2751 19.5331C9.01448 19.5331 7.18164 21.3577 7.18164 23.6096C7.18164 25.8608 9.01448 27.6861 11.2751 27.6861C13.5356 27.6861 15.3685 25.8608 15.3685 23.6096ZM9.91058 23.6096C9.91058 22.8585 10.5215 22.2507 11.2751 22.2507C12.0286 22.2507 12.6395 22.8585 12.6395 23.6096C12.6395 24.36 12.0286 24.9684 11.2751 24.9684C10.5215 24.9684 9.91058 24.36 9.91058 23.6096Z" fill="white"/>
<path d="M35.8356 27.6861C38.0962 27.6861 39.929 25.8608 39.929 23.6096C39.929 21.3577 38.0962 19.5331 35.8356 19.5331C33.575 19.5331 31.7422 21.3577 31.7422 23.6096C31.7422 25.8608 33.575 27.6861 35.8356 27.6861ZM35.8356 22.2507C36.5891 22.2507 37.2001 22.8585 37.2001 23.6096C37.2001 24.36 36.5891 24.9684 35.8356 24.9684C35.0821 24.9684 34.4711 24.36 34.4711 23.6096C34.4711 22.8585 35.0821 22.2507 35.8356 22.2507Z" fill="white"/>
<path d="M18.4971 9.0606L17.1326 10.4194C16.7775 10.7605 16.6356 11.2654 16.7602 11.7404C16.8855 12.2155 17.2579 12.5871 17.7349 12.7111C18.212 12.8352 18.7196 12.6939 19.0621 12.3402L20.4266 10.9814C20.9436 10.4486 20.9362 9.60135 20.4099 9.07719C19.8836 8.55303 19.0321 8.54507 18.4971 9.0606Z" fill="white"/>
<path d="M28.0479 9.0606L26.6834 10.4194C26.3283 10.7605 26.1864 11.2654 26.311 11.7404C26.4362 12.2155 26.8087 12.5871 27.2857 12.7111C27.7627 12.8352 28.2704 12.6939 28.6129 12.3402L29.9773 10.9814C30.4943 10.4486 30.487 9.60135 29.9607 9.07719C29.4343 8.55303 28.5829 8.54507 28.0479 9.0606Z" fill="white"/>
</g>
<g opacity="0.5">
<path d="M210.738 33.6199C213.749 33.6199 216.19 31.179 216.19 28.168C216.19 25.1571 213.749 22.7162 210.738 22.7162C207.727 22.7162 205.286 25.1571 205.286 28.168C205.286 31.179 207.727 33.6199 210.738 33.6199Z" fill="white"/>
<path d="M210.738 29.9851C211.742 29.9851 212.555 29.1715 212.555 28.1679C212.555 27.1642 211.742 26.3506 210.738 26.3506C209.735 26.3506 208.921 27.1642 208.921 28.1679C208.921 29.1715 209.735 29.9851 210.738 29.9851Z" fill="#D0D7DF"/>
<path d="M174.392 33.6199C177.403 33.6199 179.844 31.179 179.844 28.168C179.844 25.1571 177.403 22.7162 174.392 22.7162C171.381 22.7162 168.94 25.1571 168.94 28.168C168.94 31.179 171.381 33.6199 174.392 33.6199Z" fill="white"/>
<path d="M181.662 4.54314H178.936L177.119 0.908569H181.662C182.666 0.908569 183.48 1.72183 183.48 2.72585C183.48 3.72997 182.666 4.54314 181.662 4.54314Z" fill="white"/>
<path d="M219.825 21.3722V16.3556H214.373C216.665 17.425 218.569 19.1769 219.825 21.3722Z" fill="white"/>
<path d="M187.114 3.63455H183.479C182.977 3.63455 182.57 3.22746 182.57 2.7259C182.57 2.22435 182.977 1.81726 183.479 1.81726H187.114V3.63455Z" fill="#697B8C"/>
<path d="M220.733 25.093C220.733 19.0814 214.372 16.3555 214.372 16.3555V12.7209H194.382C194.382 15.4468 196.199 15.4468 196.199 15.4468H196.653C198.911 15.4468 200.742 17.2777 200.742 19.5357C200.742 21.7937 198.911 23.6246 196.653 23.6246H187.259C186.607 23.6246 186.004 23.2748 185.681 22.7087L182.569 17.2641L183.478 9.08631C183.629 6.85835 182.051 4.88475 179.843 4.54309L178.418 14.0048C178.18 15.4323 177.118 16.5826 175.715 16.9334L174.392 17.2641V19.99H176.209C179.22 19.99 181.661 22.4306 181.661 25.4419V27.2592H220.732V25.093H220.733Z" fill="#B6CDEE"/>
<path d="M176.21 19.9902H172.575C170.067 19.9902 168.032 22.0247 168.032 24.5335H172.121C173.596 24.5335 175.031 25.0114 176.21 25.8964C177.243 26.6624 178.472 27.1194 179.754 27.2157C179.935 27.2303 180.117 27.2594 180.299 27.2594H181.662V25.4421C181.662 22.4318 179.221 19.9902 176.21 19.9902Z" fill="white"/>
<path d="M196.2 9.08643H212.556C213.56 9.08643 214.373 9.89968 214.373 10.9037V12.721H194.383V10.9037C194.383 9.90051 195.196 9.08643 196.2 9.08643Z" fill="white"/>
<path d="M183.479 27.2593C184.013 29.3955 185.932 30.8938 188.133 30.8938H197.905C200.107 30.8938 202.026 29.3955 202.56 27.2593H183.479Z" fill="white"/>
<path d="M214.373 15.447H204.378V17.2643H214.373V15.447Z" fill="#61BDC7"/>
<path d="M174.392 29.9851C175.395 29.9851 176.209 29.1715 176.209 28.1679C176.209 27.1642 175.395 26.3506 174.392 26.3506C173.388 26.3506 172.574 27.1642 172.574 28.1679C172.574 29.1715 173.388 29.9851 174.392 29.9851Z" fill="white"/>
<path d="M216.109 27.2593H212.305C212.64 27.819 212.64 28.5168 212.305 29.0766H216.109C216.218 28.4759 216.218 27.8608 216.109 27.2593Z" fill="white"/>
<path d="M208.919 28.1679C208.921 27.848 209.008 27.5346 209.17 27.2593H205.366C205.257 27.8599 205.257 28.4759 205.366 29.0766H209.17C209.008 28.8013 208.921 28.4878 208.919 28.1679Z" fill="white"/>
<path d="M208.921 28.1679C208.923 28.4878 209.01 28.8013 209.173 29.0766H212.304C212.639 28.5168 212.639 27.819 212.304 27.2593H209.173C209.01 27.5346 208.923 27.8481 208.921 28.1679Z" fill="white"/>
<path d="M220.733 16.3556C220.733 15.854 220.326 15.4469 219.825 15.4469H215.281V10.9037C215.281 9.39814 214.061 8.17779 212.555 8.17779H196.2C194.694 8.17779 193.474 9.39814 193.474 10.9037V12.721C193.474 15.596 195.257 16.3556 196.2 16.3556H196.654C198.41 16.3556 199.834 17.7795 199.834 19.5358C199.834 21.2923 198.41 22.7161 196.654 22.7161H187.259C186.933 22.717 186.633 22.5434 186.47 22.2618L183.506 17.0707L184.382 9.18641C184.386 9.1537 184.387 9.12007 184.387 9.08643C184.454 7.62174 183.907 6.19601 182.879 5.15109C183.504 4.83672 183.985 4.29428 184.22 3.63457H187.113V1.81729H184.22C183.837 0.732392 182.813 0.00450278 181.661 0H177.118C176.617 0 176.209 0.40617 176.209 0.908643C176.209 1.04952 176.242 1.18938 176.305 1.31481L178.122 4.94939C178.255 5.20834 178.504 5.38735 178.791 5.43192L177.519 13.8551C177.341 14.9254 176.545 15.7887 175.492 16.0521L174.169 16.3829C173.765 16.4855 173.484 16.8481 173.484 17.2642V19.0815H172.575C169.565 19.0843 167.126 21.524 167.123 24.5334C167.123 25.0349 167.53 25.442 168.032 25.442H168.652C167.139 28.6123 168.482 32.4086 171.652 33.9224C174.822 35.4362 178.618 34.0932 180.132 30.923C180.543 30.0625 180.755 29.1212 180.753 28.1679H182.833C183.68 30.3578 185.786 31.8016 188.134 31.8025H197.905C200.253 31.8016 202.36 30.3578 203.206 28.1679H204.378C204.378 31.6808 207.225 34.5284 210.738 34.5284C214.251 34.5284 217.099 31.6808 217.099 28.1679H220.733C221.235 28.1679 221.642 27.7609 221.642 27.2593V25.0931C221.645 23.7229 221.334 22.3707 220.733 21.1396V16.3556H220.733ZM218.916 17.2642V18.5255C218.49 18.073 218.032 17.6514 217.546 17.2642H218.916ZM195.291 10.9037C195.291 10.4022 195.698 9.99508 196.2 9.99508H212.555C213.057 9.99508 213.464 10.4022 213.464 10.9037V11.8124H195.291V10.9037ZM178.588 1.81719H181.661C182.163 1.81719 182.57 2.22428 182.57 2.72584C182.57 3.22739 182.163 3.63448 181.661 3.63448H179.497L178.588 1.81719ZM174.392 32.7112C171.887 32.7148 169.853 30.6876 169.849 28.1825C169.847 27.1939 170.169 26.2316 170.765 25.442H172.121C172.572 25.4484 173.022 25.5065 173.461 25.6164C172.046 26.1308 171.316 27.6945 171.831 29.1093C172.345 30.5241 173.909 31.2546 175.324 30.7394C176.405 30.3468 177.123 29.3174 177.118 28.167C177.115 27.909 177.074 27.6536 176.997 27.4074C177.131 27.4684 177.266 27.5264 177.404 27.5837C177.52 27.6291 177.637 27.6746 177.754 27.7099C177.96 27.7799 178.168 27.8399 178.379 27.8917C178.498 27.9217 178.618 27.9517 178.743 27.9763C178.808 27.9899 178.871 28.0108 178.936 28.0217C178.936 28.0698 178.936 28.1125 178.936 28.1643C178.935 30.6749 176.902 32.7094 174.392 32.7112ZM173.484 28.1679C173.484 27.6664 173.891 27.2593 174.392 27.2593C174.894 27.2593 175.301 27.6664 175.301 28.1679C175.301 28.6695 174.894 29.0766 174.392 29.0766C173.891 29.0766 173.484 28.6704 173.484 28.1679ZM180.753 26.3507H180.298C180.21 26.3488 180.121 26.3416 180.034 26.3298L179.828 26.3098C178.716 26.228 177.651 25.8327 176.755 25.1694C175.416 24.1698 173.791 23.6283 172.121 23.6246H169.056C169.472 22.0209 170.918 20.9005 172.575 20.8987H176.209C178.717 20.9015 180.75 22.9341 180.753 25.4419V26.3507ZM197.905 29.9852H188.134C186.797 29.9861 185.553 29.3001 184.842 28.1679H201.197C200.486 29.3002 199.242 29.9871 197.905 29.9852ZM210.738 32.7112C208.23 32.7084 206.198 30.6758 206.195 28.1679H208.012C208.012 29.6735 209.233 30.8939 210.738 30.8939C212.244 30.8939 213.464 29.6735 213.464 28.1679H215.281C215.279 30.6758 213.246 32.7085 210.738 32.7112ZM209.829 28.1679H211.647C211.647 28.6695 211.24 29.0766 210.738 29.0766C210.236 29.0766 209.829 28.6704 209.829 28.1679ZM219.825 26.3507H182.57V25.442C182.566 21.931 179.721 19.0851 176.21 19.0815H175.301V17.9739L175.937 17.8149C177.697 17.3751 179.027 15.9304 179.32 14.1404L180.584 5.75088C181.887 6.30151 182.688 7.62726 182.57 9.03745L181.667 17.1644C181.645 17.3552 181.685 17.5488 181.781 17.7151L184.893 23.1606C185.379 24.0083 186.281 24.5317 187.259 24.5336H196.654C199.415 24.5336 201.652 22.2965 201.652 19.536C201.652 16.7755 199.415 14.5385 196.654 14.5385H196.225C196.105 14.5312 195.609 14.4476 195.392 13.6298H213.464V15.4471H204.378V17.2644H214.169C215.061 17.6987 219.825 20.2402 219.825 25.0933V26.3507Z" fill="#B6CDEE"/>
</g>
<g opacity="0.5">
<path d="M132.667 18.126C127.969 18.126 124.162 21.9333 124.162 26.6307C124.162 31.3281 127.969 35.1353 132.667 35.1353C137.364 35.1353 141.171 31.3281 141.171 26.6307C141.171 21.9333 137.363 18.126 132.667 18.126ZM132.667 31.3555C130.058 31.3555 127.942 29.2397 127.942 26.6307C127.942 24.0216 130.058 21.9058 132.667 21.9058C135.276 21.9058 137.392 24.0216 137.392 26.6307C137.392 29.2397 135.276 31.3555 132.667 31.3555Z" fill="white"/>
<path d="M117.053 24.7407H109.348L107.841 20.9769C107.415 19.911 107.934 18.7015 109 18.2743C109.246 18.1761 109.507 18.126 109.772 18.126H112.999C113.851 18.1231 114.617 18.641 114.93 19.4329L117.053 24.7407Z" fill="#B6CDEE"/>
<path d="M94.868 18.126C90.1706 18.126 86.3633 21.9333 86.3633 26.6307C86.3633 31.3281 90.1706 35.1353 94.868 35.1353C99.5654 35.1353 103.373 31.3281 103.373 26.6307C103.373 21.9333 99.5645 18.126 94.868 18.126ZM94.868 31.3555C92.2589 31.3555 90.1431 29.2397 90.1431 26.6307C90.1431 24.0216 92.2589 21.9058 94.868 21.9058C97.477 21.9058 99.5928 24.0216 99.5928 26.6307C99.5928 29.2397 97.477 31.3555 94.868 31.3555Z" fill="white"/>
<path d="M98.6481 14.3461H97.7031V8.67627H98.6481C100.214 8.67627 101.483 9.9454 101.483 11.5112C101.483 13.0761 100.214 14.3461 98.6481 14.3461Z" fill="#B6CDEE"/>
<path d="M129.832 14.346H129.436C128.446 14.346 127.463 14.5057 126.524 14.8185C125.586 15.1313 124.602 15.291 123.613 15.291H116.602L115.45 11.5111H123.613C124.602 11.5111 125.586 11.3514 126.524 11.0386C127.463 10.7259 128.446 10.5662 129.436 10.5662H129.832C130.876 10.5662 131.722 11.4119 131.722 12.4561C131.722 13.4994 130.875 14.346 129.832 14.346Z" fill="#B6CDEE"/>
<path d="M133.612 24.7408H118.492V28.5207H133.612V24.7408Z" fill="white"/>
<path d="M116.962 16.5054L117.524 18.3953C117.643 18.7961 118.011 19.071 118.43 19.071H122.633C122.992 19.071 123.318 18.8688 123.478 18.5484L124.423 16.6585C124.656 16.1917 124.468 15.6238 124 15.3903C123.868 15.3252 123.725 15.2911 123.578 15.2911H117.869C117.347 15.2911 116.924 15.7135 116.924 16.2361C116.923 16.3268 116.936 16.4175 116.962 16.5054Z" fill="#B6CDEE"/>
<path d="M116.602 15.291H104.318C103.274 15.291 102.428 14.4453 102.428 13.4011V12.4561C102.428 10.3687 104.12 8.67627 106.208 8.67627H109.987C113.641 8.67627 116.602 11.6378 116.602 15.291Z" fill="white"/>
<path d="M109.987 23.7958H117.547C119.113 23.7958 120.382 25.0649 120.382 26.6307C120.382 28.1964 119.113 29.4656 117.547 29.4656H109.987C108.421 29.4656 107.152 28.1964 107.152 26.6307C107.152 25.0648 108.421 23.7958 109.987 23.7958Z" fill="#B6CDEE"/>
<path d="M101.338 21.1187C100.853 22.486 100.151 23.7655 99.2591 24.9099C100.22 27.3262 99.0399 30.0637 96.6235 31.0239C94.7922 31.7525 92.701 31.263 91.3837 29.7973C90.0438 30.1488 88.6745 30.3784 87.293 30.4814C89.4163 34.6686 94.5314 36.3412 98.7186 34.2178C102.906 32.0944 104.578 26.9794 102.455 22.7922C102.151 22.1922 101.776 21.6298 101.338 21.1187Z" fill="white"/>
<path d="M139.137 21.1187C138.652 22.486 137.95 23.7655 137.058 24.9099C138.019 27.3262 136.839 30.0637 134.422 31.0239C132.591 31.7525 130.5 31.263 129.183 29.7973C127.843 30.1488 126.473 30.3784 125.092 30.4814C127.215 34.6686 132.33 36.3412 136.517 34.2178C140.705 32.0944 142.377 26.9794 140.254 22.7922C139.95 22.1922 139.574 21.6298 139.137 21.1187Z" fill="white"/>
<path d="M132.667 17.181C128.536 17.164 124.88 19.8496 123.659 23.7958H122.178L125.823 15.9856C126.158 15.91 126.492 15.824 126.819 15.7153C127.663 15.4337 128.547 15.29 129.436 15.291H135.502C136.023 15.291 136.447 14.8676 136.447 14.346C136.447 13.8244 136.023 13.4011 135.502 13.4011H134.196L134.458 12.8785C134.478 12.8388 134.495 12.7973 134.509 12.7547C134.637 12.3692 134.998 12.1084 135.405 12.1084H135.933V10.2185H135.407C134.214 10.2185 133.149 10.9659 132.743 12.0877L132.648 12.271C132.553 10.7836 131.322 9.62511 129.832 9.62129H129.436C128.344 9.62129 127.259 9.79703 126.223 10.1419C125.381 10.4226 124.501 10.5663 123.613 10.5663H115.88C114.448 8.77552 112.28 7.73231 109.988 7.73136H106.208C105.309 7.73327 104.429 7.99407 103.674 8.48165L104.241 7.15872L102.505 6.41406L101.415 8.95977C100.706 8.18014 99.7018 7.73413 98.6482 7.73136H97.7032C97.1816 7.73136 96.7582 8.15472 96.7582 8.67632V14.3461C96.7582 14.8677 97.1816 15.2911 97.7032 15.2911H98.6482C98.6671 15.2911 98.6841 15.2911 98.703 15.2854L97.7032 17.6167C92.7099 16.031 87.3765 18.7931 85.7919 23.7863C84.2072 28.7795 86.9684 34.112 91.9616 35.6977C96.9547 37.2833 102.287 34.5211 103.873 29.528C105.239 25.2255 103.384 20.5564 99.4381 18.3651L101.183 14.296L106.27 27.3791H106.282C106.638 29.1434 108.189 30.4116 109.988 30.4106H117.547C118.459 30.4068 119.339 30.0714 120.021 29.4657H123.659C125.224 34.4437 130.529 37.2106 135.508 35.6448C140.486 34.079 143.252 28.7739 141.687 23.7959C140.449 19.8562 136.796 17.1781 132.667 17.181ZM98.6482 26.6307C98.6482 28.7181 96.9558 30.4105 94.8683 30.4105C92.7809 30.4105 91.0885 28.7181 91.0885 26.6307C91.0885 24.5432 92.7809 22.8508 94.8683 22.8508C95.0582 22.8555 95.2482 22.8744 95.4353 22.9084L93.9999 26.2583L95.7367 27.003L97.1712 23.655C98.0982 24.3636 98.6444 25.4626 98.6482 26.6307ZM102.428 26.6307C102.441 30.8188 99.0563 34.2244 94.8683 34.2377C90.6803 34.251 87.2746 30.8661 87.2613 26.678C87.248 22.4898 90.6329 19.0842 94.821 19.0709C95.5421 19.069 96.2593 19.1692 96.952 19.3696L96.196 21.1253C93.1504 20.3873 90.083 22.2584 89.345 25.304C88.6071 28.3496 90.4781 31.417 93.5237 32.155C96.5693 32.893 99.6367 31.022 100.375 27.9763C100.944 25.6281 99.9637 23.1778 97.9329 21.87L98.6888 20.1181C101.001 21.4721 102.424 23.9498 102.428 26.6307ZM99.6318 13.1176C99.337 13.3019 98.9958 13.4002 98.6482 13.4011V9.62119C99.5365 9.62215 100.304 10.2411 100.493 11.1086L99.6318 13.1176ZM122.633 18.126H118.439L117.873 16.236H123.578L122.633 18.126ZM123.613 12.4561C124.706 12.4561 125.79 12.2803 126.826 11.9354C127.668 11.6548 128.549 11.5111 129.436 11.5111H129.832C130.354 11.5111 130.777 11.9345 130.777 12.4561C130.777 12.9777 130.354 13.4011 129.832 13.4011H128.887C128.841 13.4067 128.795 13.4162 128.751 13.4285C127.892 13.4852 127.043 13.6515 126.226 13.9218C125.384 14.2034 124.501 14.3461 123.613 14.3461H117.482C117.401 13.6979 117.236 13.0619 116.991 12.4562C116.991 12.4561 123.613 12.4561 123.613 12.4561ZM115.898 16.236L116.819 19.3402C116.826 19.3629 116.841 19.3809 116.849 19.4026L117.894 22.8858C117.778 22.8754 117.667 22.8508 117.547 22.8508H116.297L114.93 19.4328C114.713 18.8952 114.278 18.4747 113.734 18.2743C113.754 18.1628 113.766 18.0504 113.768 17.9369V16.236H115.898ZM114.262 22.8508H110.627L109.597 20.2748C109.558 20.1775 109.605 20.0679 109.702 20.0291C109.725 20.0206 109.749 20.0159 109.772 20.0159H112.999C113.077 20.0159 113.147 20.0631 113.175 20.135L114.262 22.8508ZM103.373 13.4011V12.4561C103.373 10.8903 104.642 9.62119 106.208 9.62119H109.988C111.85 9.62683 113.591 10.5501 114.639 12.0895L115.327 14.3461H104.318C103.796 14.346 103.373 13.9228 103.373 13.4011ZM105.561 20.3334L103.954 16.1992C104.074 16.22 104.196 16.2322 104.318 16.236H111.878V17.9369C111.878 18.0409 111.793 18.126 111.689 18.126H109.772C108.697 18.1231 107.799 18.9443 107.706 20.0159H106.586C106.22 20.0187 105.864 20.1292 105.561 20.3334ZM106.586 21.9058H108.213L108.686 23.0946C108.214 23.2684 107.781 23.534 107.413 23.876L106.586 21.9058ZM109.988 28.5206C108.944 28.5206 108.098 27.6748 108.098 26.6307C108.098 25.5865 108.944 24.7407 109.988 24.7407C111.032 24.7407 111.878 25.5865 111.878 26.6307C111.878 27.6748 111.031 28.5206 109.988 28.5206ZM119.393 27.0304C119.386 27.0588 119.375 27.0853 119.367 27.1136C119.287 27.4008 119.143 27.6663 118.945 27.8884C118.94 27.895 118.936 27.9016 118.932 27.9083C118.577 28.2976 118.075 28.5197 117.547 28.5206H113.242C113.942 27.3583 113.942 25.903 113.242 24.7407H117.547C118.075 24.7417 118.577 24.9638 118.932 25.353C118.936 25.3596 118.94 25.3662 118.945 25.3729C119.143 25.595 119.287 25.8605 119.367 26.1478C119.375 26.1761 119.386 26.2026 119.393 26.2309C119.453 26.4936 119.453 26.7667 119.393 27.0304ZM119.007 20.0159H121.859L120.123 23.7372L119.007 20.0159ZM121.205 27.5756C121.213 27.5426 121.217 27.5085 121.224 27.4755C121.239 27.414 121.25 27.3527 121.26 27.2864C121.35 26.8499 121.35 26.4001 121.26 25.9635C121.251 25.9096 121.244 25.8568 121.233 25.8048H121.239L121.299 25.6857H132.667V27.5756H121.205ZM133.612 23.7958H130.172C130.326 23.6616 130.491 23.5406 130.665 23.4339C130.719 23.3998 130.776 23.3714 130.833 23.3393C130.958 23.2684 131.087 23.2052 131.22 23.1503C131.286 23.1219 131.354 23.0964 131.422 23.0728C131.559 23.0256 131.698 22.9858 131.84 22.9547C131.904 22.9405 131.967 22.9226 132.029 22.9122C132.24 22.8734 132.454 22.8526 132.667 22.8507C134.754 22.8507 136.447 24.5431 136.447 26.6306C136.447 28.718 134.754 30.4104 132.667 30.4104C132.455 30.4095 132.244 30.3896 132.036 30.3518C131.971 30.3414 131.908 30.3235 131.847 30.3093C131.705 30.2782 131.566 30.2384 131.429 30.1912C131.361 30.1676 131.293 30.1421 131.227 30.1137C131.094 30.0588 130.964 29.9956 130.839 29.9247C130.783 29.8935 130.726 29.8651 130.671 29.8301C130.496 29.7224 130.331 29.6005 130.176 29.4654H133.612C134.134 29.4654 134.557 29.042 134.557 28.5204V24.7405C134.557 24.2182 134.134 23.7958 133.612 23.7958ZM132.667 34.1904C129.583 34.2036 126.804 32.3297 125.661 29.4656H127.762C127.78 29.4977 127.803 29.5251 127.822 29.5601C127.878 29.6546 127.939 29.7368 128 29.8247C128.089 29.9542 128.178 30.0826 128.278 30.2027C128.347 30.2868 128.419 30.3671 128.493 30.4474C128.595 30.5599 128.7 30.6686 128.811 30.7716C128.892 30.8472 128.975 30.919 129.059 30.9889C129.175 31.0834 129.293 31.1779 129.416 31.2611C129.506 31.3244 129.596 31.3858 129.689 31.4444C129.818 31.5238 129.95 31.5956 130.085 31.6645C130.18 31.7137 130.274 31.7647 130.369 31.8082C130.512 31.8724 130.661 31.9254 130.81 31.9764C130.905 32.0104 130.999 32.0482 131.1 32.0765C131.268 32.1247 131.439 32.1578 131.611 32.1908C131.697 32.2069 131.781 32.2305 131.868 32.2428C134.966 32.6917 137.843 30.5437 138.292 27.4443C138.74 24.3458 136.593 21.4693 133.493 21.0204C132.954 20.9419 132.406 20.9419 131.867 21.0204C131.78 21.0327 131.697 21.0563 131.611 21.0724C131.439 21.1045 131.267 21.1385 131.099 21.1867C131.004 21.2151 130.91 21.2528 130.815 21.2859C130.666 21.3379 130.517 21.3908 130.373 21.455C130.278 21.4985 130.184 21.5496 130.089 21.5987C129.954 21.6677 129.822 21.7395 129.693 21.8189C129.599 21.8775 129.51 21.9389 129.42 22.0022C129.295 22.0882 129.176 22.1789 129.063 22.2743C128.979 22.3443 128.896 22.4161 128.815 22.4917C128.705 22.5947 128.599 22.7033 128.497 22.8158C128.423 22.8961 128.351 22.9765 128.282 23.0606C128.187 23.1825 128.093 23.311 128.004 23.4385C127.943 23.5265 127.882 23.6114 127.826 23.7032C127.807 23.7353 127.784 23.7627 127.766 23.7977H125.66C127.225 19.9271 131.631 18.057 135.502 19.6219C139.373 21.1868 141.243 25.5931 139.678 29.4637C138.524 32.3213 135.749 34.1913 132.667 34.1904Z" fill="#B6CDEE"/>
</g>
</svg>
