<svg width="28" height="20" viewBox="0 0 28 20" fill="none" xmlns="http://www.w3.org/2000/svg">
<g id="Group 175">
<path id="Vector" d="M23.2824 8.80677C22.9285 8.80716 22.616 8.57643 22.5133 8.23914C22.4102 7.90184 22.5415 7.5376 22.8359 7.34202L25.2445 5.74298C25.6133 5.49781 26.112 5.59697 26.3582 5.96433C26.604 6.33169 26.5044 6.82826 26.1355 7.07304L23.727 8.67208C23.5953 8.75992 23.4408 8.80637 23.2824 8.80677Z" fill="#FFB74F"/>
<path id="Vector_2" d="M4.01457 8.80677C3.85619 8.80637 3.70135 8.75992 3.56963 8.67208L1.16112 7.07304C0.792234 6.82826 0.692663 6.33169 0.938846 5.96433C1.18503 5.59697 1.68328 5.49781 2.05216 5.74298L4.46067 7.34202C4.75547 7.5376 4.8864 7.90184 4.78369 8.23914C4.68098 8.57643 4.36855 8.80716 4.01457 8.80677Z" fill="#FFB74F"/>
<path id="Vector_3" d="M24.029 7.71273C23.9968 7.6327 23.9423 7.43828 23.8686 7.17282C23.2367 5.02567 22.4531 2.69074 21.4386 1.6562C21.1485 1.34935 20.809 1.09287 20.4338 0.897672C20.339 0.851606 20.2359 0.824278 20.1304 0.817642C20.1814 0.821545 20.2319 0.829353 20.2813 0.841455C18.1284 0.21722 15.8896 -0.0630807 13.6485 0.0118744C8.78248 0.0118744 7.04822 0.804759 6.86594 0.89611C6.49078 1.09677 6.15169 1.35833 5.86239 1.66987C5.00192 2.58065 4.13401 4.58882 3.28452 7.6409L3.25316 7.75333C3.17162 7.99732 3.21239 8.26552 3.36292 8.47399C3.51385 8.68246 3.75611 8.80622 4.01445 8.80661H23.2826C23.5484 8.80661 23.7969 8.67543 23.9466 8.45642C24.096 8.23742 24.127 7.95907 24.029 7.71273Z" fill="white"/>
<path id="Vector_4" d="M26.8893 13.7077C26.6377 13.5656 26.3284 13.5695 26.0802 13.7178L22.066 16.1164C21.8245 16.2612 21.6768 16.5212 21.6768 16.8019V18.4009C21.6768 19.284 22.3957 20 23.2824 20H25.691C26.5777 20 27.2966 19.284 27.2966 18.4009V14.4033C27.2966 14.1152 27.141 13.8494 26.8893 13.7077Z" fill="white"/>
<path id="Vector_5" d="M5.23021 16.1164L1.21602 13.7179C0.968268 13.5695 0.659363 13.5656 0.4073 13.7073C0.155629 13.8494 0 14.1153 0 14.4034V18.401C0 19.2841 0.718949 20 1.60568 20H4.01419C4.90092 20 5.61987 19.2841 5.61987 18.401V16.802C5.61987 16.5213 5.47208 16.2613 5.23021 16.1164Z" fill="white"/>
<path id="Vector_6" d="M8.83168 12.0049C8.83168 13.3295 7.75326 14.4034 6.42317 14.4034C5.09307 14.4034 4.01465 13.3295 4.01465 12.0049C4.01465 10.6799 5.09307 9.60632 6.42317 9.60632C7.75326 9.60632 8.83168 10.6799 8.83168 12.0049Z" fill="white"/>
<path id="Vector_7" d="M23.2819 12.0049C23.2819 13.3295 22.2035 14.4034 20.8734 14.4034C19.5433 14.4034 18.4648 13.3295 18.4648 12.0049C18.4648 10.6799 19.5433 9.60632 20.8734 9.60632C22.2035 9.60632 23.2819 10.6799 23.2819 12.0049Z" fill="white"/>
<path id="Vector_8" d="M10.4366 5.60874C10.112 5.60835 9.81921 5.41354 9.69495 5.11489C9.57068 4.81624 9.63928 4.47231 9.869 4.24393L10.6718 3.4444C10.9866 3.14107 11.4876 3.14576 11.7973 3.45416C12.107 3.76257 12.1113 4.2611 11.8071 4.57459L11.0043 5.37411C10.8537 5.52441 10.6495 5.60835 10.4366 5.60874Z" fill="#F5F5F5"/>
<path id="Vector_9" d="M16.0567 5.60874C15.7322 5.60835 15.4393 5.41354 15.3151 5.11489C15.1908 4.81624 15.2594 4.47231 15.4891 4.24393L16.292 3.4444C16.6067 3.14107 17.1077 3.14576 17.4174 3.45416C17.7271 3.76257 17.7314 4.2611 17.4272 4.57459L16.6244 5.37411C16.4738 5.52441 16.2696 5.60835 16.0567 5.60874Z" fill="#F5F5F5"/>
<path id="Vector_10" d="M0 9.60617V18.4009C0 19.284 0.718949 20 1.60568 20H4.01419C4.90092 20 5.61987 19.284 5.61987 18.4009V17.6014H21.6767V18.4009C21.6767 19.284 22.3956 20 23.2823 20H25.6908C26.5776 20 27.2965 19.284 27.2965 18.4009V9.60617C27.2965 9.3938 27.2118 9.19079 27.0613 9.04088C26.4886 8.48341 25.799 8.05983 25.0421 7.79983L26.1362 7.07292C26.5051 6.82815 26.6046 6.33157 26.3588 5.96421C26.1126 5.59685 25.614 5.49769 25.2451 5.74286L23.7351 6.74538C23.1255 4.72238 22.3823 2.62207 21.434 1.6539C21.1443 1.34705 20.8048 1.09056 20.4297 0.895369C20.3344 0.849693 20.2317 0.822366 20.1262 0.815339C20.1772 0.818462 20.2278 0.82627 20.2772 0.838372C18.1254 0.216088 15.8878 -0.0630419 13.6483 0.0119133C8.78144 0.0119133 7.04797 0.804798 6.86647 0.895369C6.49092 1.09603 6.15144 1.35759 5.86214 1.66991C5.08987 2.48621 4.31291 4.19418 3.5477 6.7364L2.051 5.74286C1.68212 5.49769 1.18387 5.59685 0.937691 5.96421C0.691508 6.33157 0.791079 6.82815 1.15996 7.07292L2.25446 7.79983C1.49748 8.05983 0.807935 8.48341 0.235207 9.04088C0.0846744 9.19079 0 9.3938 0 9.60617ZM4.01419 18.4009H1.60568V15.8157L4.01419 17.2551V18.4009ZM25.6908 18.4009H23.2823V17.2543L25.6908 15.815V18.4009ZM7.02406 2.77393C7.18243 2.59748 7.36863 2.44756 7.57562 2.33045C7.5909 2.32381 9.17071 1.61096 13.6483 1.61096C15.6942 1.52624 17.7401 1.76906 19.7088 2.33045L19.7601 2.34958C19.9542 2.4624 20.1306 2.60294 20.2834 2.76691C21.0616 3.56643 21.8193 5.93298 22.2 7.20565H5.08046C6.02129 4.08057 6.74377 3.06673 7.02406 2.77393ZM1.60568 9.95635C2.38108 9.43323 3.23958 9.0444 4.14513 8.80665H23.1514C24.0569 9.0444 24.9154 9.43323 25.6908 9.95635V13.954L22.2568 16.0023H5.0393L1.60568 13.9504V9.95635Z" fill="#0072FF"/>
<path id="Vector_11" d="M8.83168 12.0046C8.83168 10.6797 7.75326 9.60608 6.42317 9.60608C5.09307 9.60608 4.01465 10.6797 4.01465 12.0046C4.01465 13.3292 5.09307 14.4032 6.42317 14.4032C7.75326 14.4032 8.83168 13.3292 8.83168 12.0046ZM5.62033 12.0046C5.62033 11.5627 5.9798 11.2051 6.42317 11.2051C6.86653 11.2051 7.22601 11.5627 7.22601 12.0046C7.22601 12.4462 6.86653 12.8042 6.42317 12.8042C5.9798 12.8042 5.62033 12.4462 5.62033 12.0046Z" fill="#0072FF"/>
<path id="Vector_12" d="M20.8734 14.4032C22.2035 14.4032 23.2819 13.3292 23.2819 12.0046C23.2819 10.6797 22.2035 9.60608 20.8734 9.60608C19.5433 9.60608 18.4648 10.6797 18.4648 12.0046C18.4648 13.3292 19.5433 14.4032 20.8734 14.4032ZM20.8734 11.2051C21.3167 11.2051 21.6762 11.5627 21.6762 12.0046C21.6762 12.4462 21.3167 12.8042 20.8734 12.8042C20.43 12.8042 20.0705 12.4462 20.0705 12.0046C20.0705 11.5627 20.43 11.2051 20.8734 11.2051Z" fill="#0072FF"/>
<path id="Vector_13" d="M10.6721 3.44416L9.86928 4.24368C9.66033 4.44434 9.57684 4.74143 9.65014 5.02095C9.72384 5.30047 9.94297 5.51909 10.2237 5.59209C10.5043 5.6651 10.803 5.58194 11.0045 5.37387L11.8074 4.57434C12.1116 4.26086 12.1073 3.76233 11.7976 3.45392C11.4879 3.14551 10.9869 3.14083 10.6721 3.44416Z" fill="white"/>
<path id="Vector_14" d="M16.2922 3.44416L15.4894 4.24368C15.2805 4.44434 15.197 4.74143 15.2703 5.02095C15.344 5.30047 15.5631 5.51909 15.8438 5.59209C16.1245 5.6651 16.4232 5.58194 16.6247 5.37387L17.4275 4.57434C17.7317 4.26086 17.7274 3.76233 17.4177 3.45392C17.108 3.14551 16.607 3.14083 16.2922 3.44416Z" fill="white"/>
</g>
</svg>
