<svg width="205" height="62" viewBox="0 0 205 62" fill="none" xmlns="http://www.w3.org/2000/svg">
<rect width="205" height="62" rx="10" fill="#F6FBFF"/>
<path d="M49.12 37.144C48.256 37.144 47.424 37.032 46.624 36.808C45.8347 36.5733 45.1787 36.248 44.656 35.832L45.456 34.04C46.5547 34.808 47.7813 35.192 49.136 35.192C49.8613 35.192 50.416 35.08 50.8 34.856C51.1947 34.6213 51.392 34.296 51.392 33.88C51.392 33.5173 51.2107 33.2347 50.848 33.032C50.496 32.8187 49.872 32.616 48.976 32.424C47.9733 32.2213 47.1733 31.976 46.576 31.688C45.9893 31.3893 45.5573 31.032 45.28 30.616C45.0133 30.1893 44.88 29.6613 44.88 29.032C44.88 28.3493 45.0667 27.736 45.44 27.192C45.824 26.648 46.3573 26.2267 47.04 25.928C47.7227 25.6187 48.512 25.464 49.408 25.464C50.2187 25.464 50.9973 25.5813 51.744 25.816C52.4907 26.0507 53.088 26.3707 53.536 26.776L52.736 28.568C51.7333 27.8 50.6293 27.416 49.424 27.416C48.784 27.416 48.272 27.544 47.888 27.8C47.504 28.056 47.312 28.4027 47.312 28.84C47.312 29.096 47.3813 29.3093 47.52 29.48C47.6693 29.6507 47.9147 29.8053 48.256 29.944C48.5973 30.072 49.0827 30.2 49.712 30.328C51.1733 30.648 52.224 31.064 52.864 31.576C53.5147 32.088 53.84 32.7867 53.84 33.672C53.84 34.7387 53.424 35.5867 52.592 36.216C51.76 36.8347 50.6027 37.144 49.12 37.144ZM75.9932 25.608L71.9453 37H69.9453L67.2893 29.464L64.6173 37H62.6173L58.5693 25.608H61.1133L63.7373 33.48L66.4893 25.608H68.2333L70.9213 33.592L73.6093 25.608H75.9932ZM87.9239 34.472H82.5959L81.5079 37H78.9959L84.2279 25.608H86.2439L91.4759 37H89.0119L87.9239 34.472ZM87.1079 32.568L85.2679 28.296L83.4279 32.568H87.1079ZM96.4485 25.608H101.617C102.875 25.608 103.851 25.912 104.545 26.52C105.249 27.128 105.601 27.9547 105.601 29C105.601 30.0347 105.249 30.8613 104.545 31.48C103.841 32.088 102.865 32.392 101.617 32.392H98.9445V37H96.4485V25.608ZM101.297 30.488C102.598 30.488 103.249 29.9973 103.249 29.016C103.249 28.024 102.598 27.528 101.297 27.528H98.9445V30.488H101.297ZM119.181 35V37H111.757V35H114.221V28.392L111.917 29.752V27.56L115.261 25.608H116.717V35H119.181ZM132.567 35V37H124.743V35.16L128.535 31.128C129.324 30.2747 129.719 29.496 129.719 28.792C129.719 28.344 129.586 28.008 129.319 27.784C129.063 27.5493 128.684 27.432 128.183 27.432C127.212 27.432 126.204 27.8 125.159 28.536L124.359 26.744C124.818 26.3493 125.404 26.04 126.119 25.816C126.834 25.5813 127.559 25.464 128.295 25.464C129.479 25.464 130.418 25.752 131.111 26.328C131.815 26.8933 132.167 27.656 132.167 28.616C132.167 29.2773 132.028 29.8907 131.751 30.456C131.484 31.0107 131.031 31.6293 130.391 32.312L127.815 35H132.567ZM144.001 31.144C144.662 31.336 145.169 31.672 145.521 32.152C145.883 32.6213 146.065 33.2027 146.065 33.896C146.065 34.8987 145.686 35.688 144.929 36.264C144.171 36.84 143.142 37.128 141.841 37.128C141.051 37.128 140.294 37.016 139.569 36.792C138.843 36.5573 138.257 36.2427 137.809 35.848L138.609 34.056C139.622 34.792 140.662 35.16 141.729 35.16C142.422 35.16 142.923 35.0427 143.233 34.808C143.553 34.5627 143.713 34.1787 143.713 33.656C143.713 33.1547 143.553 32.792 143.233 32.568C142.923 32.3333 142.422 32.216 141.729 32.216H140.097V30.264H141.457C142.118 30.264 142.609 30.152 142.929 29.928C143.249 29.6933 143.409 29.3413 143.409 28.872C143.409 28.4027 143.265 28.0453 142.977 27.8C142.699 27.5547 142.299 27.432 141.777 27.432C141.286 27.432 140.785 27.528 140.273 27.72C139.761 27.9013 139.259 28.1733 138.769 28.536L137.969 26.744C138.427 26.3493 139.014 26.04 139.729 25.816C140.443 25.5813 141.179 25.464 141.937 25.464C142.705 25.464 143.377 25.592 143.953 25.848C144.539 26.104 144.987 26.4613 145.297 26.92C145.617 27.3787 145.777 27.9173 145.777 28.536C145.777 29.1547 145.622 29.6933 145.312 30.152C145.003 30.6 144.566 30.9307 144.001 31.144ZM160.218 34.92H158.666V37H156.218V34.92H151.434V33.064L156.666 25.608H158.666V32.984H160.218V34.92ZM156.218 32.984V29.4L153.722 32.984H156.218Z" fill="#0072FF"/>
</svg>
