<svg width="42" height="42" viewBox="0 0 42 42" fill="none" xmlns="http://www.w3.org/2000/svg">
<path d="M11.0423 9.32883C13.7873 13.3194 12.9714 14.7886 11.2965 16.2623C10.9565 16.5616 10.5812 16.8609 10.193 17.1815C8.64022 18.5311 11.3925 22.3819 14.2425 25.735C17.1946 29.1827 20.5947 32.4863 22.1458 31.1351C22.3012 31.0009 22.4526 30.8677 22.6014 30.7374C24.5592 29.023 26.0512 27.8166 30.0508 31.5364C31.2798 32.7069 31.8369 33.7188 31.955 34.6123C37.1001 31.3469 40.2175 25.6764 40.2175 19.5825C40.2174 9.75117 32.2476 1.78125 22.4163 1.78125C17.4559 1.78125 12.7205 3.85102 9.35132 7.49172C9.8964 7.88695 10.46 8.48187 11.0423 9.32883ZM24.0164 20.9227V16.4093C24.0164 15.4752 24.7806 14.711 25.7148 14.711C26.6488 14.711 27.413 15.4752 27.413 16.4093V20.9227C27.413 21.8568 26.6488 22.621 25.7147 22.621C24.7806 22.621 24.0164 21.8568 24.0164 20.9227Z" fill="white" stroke="#0072FF" stroke-width="0.7"/>
<path d="M24.0164 16.4093V20.9227C24.0164 21.8568 24.7806 22.621 25.7147 22.621C26.6488 22.621 27.4131 21.8567 27.4131 20.9227V16.4093C27.4131 15.4752 26.6488 14.711 25.7148 14.711C24.7806 14.711 24.0164 15.4752 24.0164 16.4093Z" fill="white" stroke="#0072FF" stroke-width="0.7"/>
<path d="M11.2965 16.2624C12.9714 14.7886 13.7873 13.3193 11.0423 9.3288C10.46 8.48177 9.89642 7.88685 9.35134 7.49161C7.97806 6.49591 6.72165 6.76732 5.57751 7.46763C7.39439 9.38404 10.1547 13.8075 11.2965 16.2624Z" fill="white" stroke="#0072FF" stroke-width="0.7"/>
<path d="M30.0508 31.5364C26.0512 27.8166 24.5592 29.0229 22.6014 30.7374C24.9504 31.9907 28.8965 35.173 30.7059 37.58C31.5222 36.7315 32.108 35.7715 31.9549 34.6123C31.8369 33.7188 31.2798 32.7069 30.0508 31.5364Z" fill="white" stroke="#0072FF" stroke-width="0.7"/>
<path d="M30.7059 37.58C28.8966 35.1731 24.9505 31.9907 22.6014 30.7374C22.4527 30.8677 22.3012 31.0009 22.1458 31.1351C20.5947 32.4863 17.1946 29.1828 14.2425 25.735C11.3925 22.382 8.64024 18.5312 10.193 17.1815C10.5812 16.8609 10.9565 16.5616 11.2965 16.2624C10.1547 13.8075 7.39438 9.38409 5.5775 7.46768C4.60047 8.06588 3.70539 8.97698 2.88938 9.67901C0.387894 11.7773 1.88813 20.4808 9.7418 29.6365C17.4944 38.7874 25.9493 41.6382 28.4002 39.5875C29.1221 38.9639 30.0002 38.3136 30.7059 37.58Z" fill="white" stroke="#0072FF" stroke-width="0.7"/>
<path d="M35.557 6.44266C32.0472 2.93289 27.3808 1 22.4173 1C17.4724 1 12.7034 2.99516 9.22907 6.49344C8.67548 6.2032 8.10571 6.05898 7.51509 6.05898C5.73837 6.05898 4.29649 7.36313 3.02438 8.51375C2.80095 8.71586 2.58977 8.9068 2.38438 9.08359C1.61438 9.7318 1.14579 10.8245 1.02923 12.244C0.856259 14.3505 1.45517 17.1366 2.71548 20.0889C4.1361 23.4166 6.36102 26.894 9.14665 30.1415C15.5013 37.6425 22.2999 41 26.2184 41C27.3545 41 28.2576 40.7264 28.9025 40.1867L28.9119 40.1787C29.1289 39.9912 29.3606 39.8013 29.6059 39.6001C31.0498 38.4159 32.6864 37.0736 32.7591 35.1097C32.7603 35.0791 32.7606 35.0485 32.7609 35.018C35.2233 33.367 37.2715 31.1347 38.7009 28.5349C40.2046 25.7996 40.9995 22.7039 40.9995 19.5825C40.9996 14.6189 39.0667 9.95242 35.557 6.44266ZM10.3995 9.77164C11.7013 11.6641 12.2252 13.0493 12.001 14.0064C11.9227 14.341 11.7514 14.644 11.5126 14.9386C10.338 12.6869 8.40095 9.62867 6.84524 7.73086C7.06876 7.66086 7.29251 7.62164 7.51509 7.62164C8.44829 7.62164 9.41868 8.34492 10.3995 9.77164ZM28.615 38.3919C28.3637 38.598 28.1262 38.7927 27.8957 38.9917C27.5441 39.2833 26.9643 39.4374 26.2184 39.4374C22.7756 39.4374 16.3377 36.2123 10.3358 29.1278C7.64946 25.9962 5.51134 22.6584 4.15251 19.4755C2.99016 16.7527 2.43399 14.2298 2.58657 12.372C2.6672 11.3897 2.95337 10.6459 3.39227 10.2777L3.39977 10.2713C3.62102 10.0809 3.84032 9.88258 4.07243 9.67266C4.5122 9.27492 4.97626 8.85531 5.45243 8.49992C7.03907 10.3685 9.20016 13.8045 10.3302 16.0584C10.2274 16.1434 10.1223 16.2295 10.0141 16.3181C9.90938 16.4038 9.80337 16.4906 9.69626 16.5791L9.68134 16.5918C8.66516 17.475 8.73282 18.9859 9.88251 21.0826C10.6396 22.4633 11.8713 24.1507 13.6499 26.2431C17.1449 30.3249 19.5719 32.226 21.2877 32.226C21.8085 32.226 22.2831 32.0525 22.6573 31.7264C22.672 31.7138 22.6858 31.7014 22.7005 31.6888C24.8077 32.9281 27.8983 35.4276 29.6531 37.5127C29.323 37.8111 28.9674 38.1029 28.615 38.3919ZM31.1976 35.0518C31.1806 35.5091 30.9995 35.9395 30.7168 36.3514C28.9329 34.2828 26.0977 31.969 23.9538 30.623C24.5338 30.1748 25.0767 29.8775 25.6863 29.8775C26.6509 29.8775 27.9038 30.6063 29.5163 32.1053C30.6638 33.1991 31.2296 34.1905 31.1976 35.0518ZM32.4011 33.3665C32.0534 32.5855 31.4527 31.7916 30.5906 30.9706L30.5838 30.9643C28.6404 29.1567 27.0841 28.3149 25.6862 28.3149C24.1809 28.3149 23.1231 29.242 22.0032 30.2234C21.883 30.3288 21.7609 30.4359 21.6334 30.5459C21.5389 30.6282 21.4355 30.6634 21.2876 30.6634C20.617 30.6634 18.8872 29.9571 14.8387 25.229C13.1313 23.2202 11.9583 21.6182 11.2527 20.3313C10.5505 19.0507 10.3448 18.0968 10.701 17.7759C10.803 17.6917 10.9041 17.6091 11.0038 17.5274C11.2797 17.3016 11.5518 17.0787 11.8103 16.8511C11.8159 16.8462 11.8216 16.8416 11.827 16.8366C12.6206 16.1356 13.2825 15.3875 13.5224 14.3627C13.8616 12.9138 13.2956 11.2247 11.687 8.88625C11.295 8.31609 10.8979 7.83445 10.4937 7.43852C13.6619 4.33055 17.9618 2.5625 22.4173 2.5625C31.802 2.5625 39.4371 10.1976 39.4371 19.5824C39.4371 25.0916 36.8256 30.1697 32.4011 33.3665Z" fill="#0072FF" stroke="#0072FF" stroke-width="0.7"/>
<path d="M25.7147 13.9298C24.3474 13.9298 23.2352 15.0421 23.2352 16.4093V20.9227C23.2352 22.2899 24.3475 23.4023 25.7148 23.4023C27.082 23.4023 28.1943 22.2899 28.1943 20.9227V16.4093C28.1943 15.0421 27.0819 13.9298 25.7147 13.9298ZM26.6318 20.9227C26.6318 21.4285 26.2204 21.8398 25.7148 21.8398H25.7147C25.209 21.8398 24.7977 21.4284 24.7977 20.9227V16.4093C24.7977 15.9036 25.2092 15.4923 25.7148 15.4923C26.2205 15.4923 26.6318 15.9037 26.6318 16.4093V20.9227Z" fill="#0072FF"/>
<path d="M32.3945 17.8848C31.7644 17.8848 31.2518 17.3721 31.2518 16.742C31.2518 16.1119 31.7643 15.5994 32.3944 15.5994C32.8014 15.5994 33.1806 15.8183 33.384 16.1707C33.5997 16.5443 34.0772 16.6724 34.4511 16.4567C34.8248 16.241 34.9529 15.7632 34.7372 15.3895C34.2556 14.5551 33.3579 14.0369 32.3944 14.0369C30.9028 14.0369 29.6893 15.2504 29.6893 16.742C29.6893 18.2337 30.9028 19.4473 32.3944 19.4473C32.3944 19.4473 32.3944 19.4473 32.3945 19.4473C33.0246 19.4473 33.5372 19.9598 33.5372 20.5899C33.5372 21.22 33.0246 21.7326 32.3945 21.7326C31.9876 21.7326 31.6083 21.5137 31.4048 21.1612C31.1891 20.7876 30.7113 20.6595 30.3376 20.8753C29.964 21.091 29.8359 21.5688 30.0517 21.9425C30.5334 22.7769 31.4311 23.2951 32.3945 23.2951C33.8861 23.2951 35.0997 22.0816 35.0997 20.5899C35.0997 19.0983 33.8861 17.8848 32.3945 17.8848Z" fill="#0072FF"/>
<path d="M19.0351 17.8848C18.405 17.8848 17.8923 17.3721 17.8923 16.742C17.8923 16.1119 18.405 15.5994 19.035 15.5994C19.4419 15.5994 19.8212 15.8183 20.0245 16.1707C20.2402 16.5443 20.7179 16.6724 21.0917 16.4567C21.4654 16.241 21.5935 15.7632 21.3778 15.3895C20.8962 14.5551 19.9984 14.0369 19.035 14.0369C17.5434 14.0369 16.3298 15.2504 16.3298 16.742C16.3298 18.2337 17.5434 19.4473 19.035 19.4473C19.035 19.4473 19.035 19.4473 19.0351 19.4473C19.6651 19.4473 20.1777 19.9598 20.1777 20.5899C20.1777 21.22 19.6651 21.7326 19.0351 21.7326C18.6281 21.7326 18.2489 21.5137 18.0454 21.1612C17.8297 20.7876 17.3519 20.6595 16.9782 20.8753C16.6045 21.091 16.4765 21.5688 16.6923 21.9425C17.174 22.7769 18.0716 23.2951 19.0351 23.2951C20.5267 23.2951 21.7402 22.0816 21.7402 20.5899C21.7402 19.0983 20.5267 17.8848 19.0351 17.8848Z" fill="#0072FF"/>
</svg>
