<svg width="28" height="14" viewBox="0 0 28 14" fill="none" xmlns="http://www.w3.org/2000/svg">
<path d="M26.537 4.51225L20.7618 3.54953L19.0882 1.03906C18.6541 0.388499 17.9284 0 17.1468 0H8.51984C7.73825 0 7.0125 0.388499 6.57844 1.03906L4.88954 3.5725L1.32617 4.46325C0.545724 4.65804 0 5.35646 0 6.16085V9.09176C0 9.77935 0.267749 10.4259 0.754247 10.9124C1.23391 11.3915 1.89699 11.6667 2.5749 11.6667H4.14229C4.41332 12.9963 5.59106 14 6.99997 14C8.40888 14 9.58663 12.9963 9.85766 11.6667H17.5589C17.8299 12.9963 19.0077 14 20.4166 14C21.8255 14 23.0032 12.9963 23.2743 11.6667H25.8887C26.3342 11.6667 26.734 11.42 26.9334 11.0218L27.8768 9.13393C27.8973 9.09291 27.9133 9.0496 27.9235 9.00519L27.985 8.74428C27.9953 8.70097 27.9998 8.65656 27.9998 8.6121V6.23834C27.9999 5.37871 27.3847 4.65296 26.537 4.51225Z" fill="#0077F2"/>
<path d="M7.54903 1.68622C7.76549 1.36094 8.12894 1.16669 8.51973 1.16669H17.1467C17.5374 1.16669 17.9009 1.36094 18.1174 1.68622L19.3265 3.50003H6.33984L7.54903 1.68622Z" fill="white"/>
<path d="M6.99999 12.8332C7.96649 12.8332 8.74999 12.0497 8.74999 11.0832C8.74999 10.1167 7.96649 9.33319 6.99999 9.33319C6.0335 9.33319 5.25 10.1167 5.25 11.0832C5.25 12.0497 6.0335 12.8332 6.99999 12.8332Z" fill="#0072FF"/>
<path d="M20.4165 12.8332C21.383 12.8332 22.1665 12.0497 22.1665 11.0832C22.1665 10.1167 21.383 9.33319 20.4165 9.33319C19.45 9.33319 18.6665 10.1167 18.6665 11.0832C18.6665 12.0497 19.45 12.8332 20.4165 12.8332Z" fill="#0072FF"/>
<path d="M26.8331 8.54434L25.8886 10.5H23.2742C23.0031 9.1703 21.8254 8.16662 20.4165 8.16662C19.0076 8.16662 17.8298 9.1703 17.5588 10.5H9.85752C9.58649 9.1703 8.40874 8.16662 6.99983 8.16662C5.59092 8.16662 4.41318 9.1703 4.14215 10.5H2.5747C2.20441 10.5 1.84096 10.3496 1.57896 10.0875C1.3135 9.82146 1.1665 9.46774 1.1665 9.09176V6.16091C1.1665 5.89261 1.34878 5.66019 1.60854 5.59468L5.32159 4.66669H20.3686L26.3455 5.66303C26.628 5.70974 26.8331 5.95184 26.8331 6.2384V8.54434Z" fill="white"/>
<path opacity="0.1" d="M7.9061 9.59375C8.06803 9.85893 8.16653 10.1672 8.16653 10.5C8.16653 11.465 7.38154 12.25 6.41653 12.25C6.0837 12.25 5.77543 12.1515 5.51025 11.9896C5.81787 12.4932 6.36764 12.8333 6.99983 12.8333C7.96484 12.8333 8.74982 12.0483 8.74982 11.0833C8.74982 10.4511 8.40972 9.90137 7.9061 9.59375Z" fill="white"/>
<path opacity="0.1" d="M21.3226 9.59375C21.4845 9.85893 21.583 10.1672 21.583 10.5C21.583 11.465 20.798 12.25 19.833 12.25C19.5002 12.25 19.1919 12.1515 18.9268 11.9896C19.2344 12.4933 19.7841 12.8333 20.4163 12.8333C21.3813 12.8333 22.1663 12.0483 22.1663 11.0833C22.1663 10.4511 21.8263 9.90137 21.3226 9.59375Z" fill="white"/>
<path opacity="0.1" d="M24.086 9.33322C23.8529 9.33322 23.6552 9.1883 23.5536 8.97852C23.0655 7.97156 22.114 7.23859 20.9697 7.05566C20.7902 7.02099 20.606 6.99988 20.4165 6.99988C20.227 6.99988 20.0428 7.02093 19.8633 7.05566C18.7188 7.23864 17.7671 7.97178 17.2792 8.97912C17.1777 9.18852 16.9804 9.33322 16.7477 9.33322H10.6674C10.4355 9.33322 10.2387 9.18896 10.1376 8.98016C9.64987 7.97233 8.69793 7.23875 7.55305 7.05571C7.37351 7.02104 7.18932 6.99993 6.99983 6.99993C6.81034 6.99993 6.62615 7.02099 6.44662 7.05571C5.30272 7.23859 4.35144 7.97107 3.86319 8.97748C3.76109 9.18786 3.56279 9.33328 3.32895 9.33328H2.9165C2.54052 9.33328 1.84495 9.18688 1.57896 8.92082C1.31296 8.65477 1.1665 8.30105 1.1665 7.92508V9.09172C1.1665 9.4677 1.3129 9.82147 1.57896 10.0875C1.84501 10.3535 2.19873 10.4999 2.5747 10.4999H4.1422C4.41323 9.17025 5.59142 8.16658 6.99983 8.16658C8.40825 8.16658 9.58643 9.17025 9.85746 10.4999H10.4999H16.9165H17.5589C17.8299 9.17025 19.0081 8.16658 20.4165 8.16658C21.8249 8.16658 23.0031 9.17025 23.2741 10.4999H23.9165H25.8892L26.8331 8.5443V7.3776L26.0469 9.00652C25.9505 9.20629 25.7482 9.33322 25.5264 9.33322H24.086Z" fill="white"/>
</svg>
