<svg width="21" height="11" viewBox="0 0 21 11" fill="none" xmlns="http://www.w3.org/2000/svg">
<path d="M19.9029 3.88415L15.5714 3.1621L14.3162 1.27924C13.9906 0.791315 13.4463 0.499939 12.8601 0.499939H6.38992C5.80372 0.499939 5.2594 0.791315 4.93386 1.27924L3.66717 3.17933L0.994631 3.8474C0.409296 3.99349 0 4.5173 0 5.1206V7.3188C0 7.83449 0.200813 8.31942 0.565689 8.6843C0.925437 9.04359 1.42275 9.24998 1.93118 9.24998H3.10673C3.31001 10.2472 4.19332 11 5.25001 11C6.3067 11 7.19001 10.2472 7.39329 9.24998H13.1692C13.3725 10.2472 14.2558 11 15.3125 11C16.3692 11 17.2525 10.2472 17.4558 9.24998H19.4166C19.7507 9.24998 20.0507 9.065 20.2002 8.76633L20.9077 7.35042C20.9231 7.31966 20.9351 7.28718 20.9427 7.25387L20.9889 7.05819C20.9966 7.0257 21 6.9924 21 6.95905V5.17872C21 4.534 20.5386 3.98968 19.9029 3.88415Z" fill="#333333"/>
<path d="M5.66178 1.76459C5.82412 1.52063 6.09671 1.37494 6.38981 1.37494H12.86C13.1531 1.37494 13.4257 1.52063 13.5881 1.76459L14.495 3.12496H4.75488L5.66178 1.76459Z" fill="white"/>
<path d="M5.25 10.1249C5.97488 10.1249 6.56251 9.53726 6.56251 8.81238C6.56251 8.08751 5.97488 7.49988 5.25 7.49988C4.52513 7.49988 3.9375 8.08751 3.9375 8.81238C3.9375 9.53726 4.52513 10.1249 5.25 10.1249Z" fill="white"/>
<path d="M15.3125 10.1249C16.0374 10.1249 16.625 9.53726 16.625 8.81238C16.625 8.08751 16.0374 7.49988 15.3125 7.49988C14.5876 7.49988 14 8.08751 14 8.81238C14 9.53726 14.5876 10.1249 15.3125 10.1249Z" fill="white"/>
<path d="M20.1251 6.90821L19.4167 8.37494H17.4558C17.2526 7.37768 16.3693 6.62492 15.3126 6.62492C14.2559 6.62492 13.3726 7.37768 13.1693 8.37494H7.3933C7.19003 7.37768 6.30671 6.62492 5.25002 6.62492C4.19334 6.62492 3.31002 7.37768 3.10675 8.37494H1.93115C1.65344 8.37494 1.38085 8.26214 1.18434 8.06559C0.98525 7.86605 0.875 7.60076 0.875 7.31878V5.12063C0.875 4.9194 1.01171 4.74509 1.20653 4.69595L3.99133 3.99995H15.2766L19.7593 4.74722C19.9713 4.78225 20.1251 4.96382 20.1251 5.17875V6.90821Z" fill="white"/>
<path opacity="0.1" d="M5.92971 7.69527C6.05116 7.89415 6.12503 8.12536 6.12503 8.37498C6.12503 9.09874 5.53629 9.68748 4.81252 9.68748C4.5629 9.68748 4.3317 9.61361 4.13281 9.49216C4.36353 9.86988 4.77586 10.125 5.25 10.125C5.97376 10.125 6.5625 9.53621 6.5625 8.81245C6.5625 8.33831 6.30742 7.92598 5.92971 7.69527Z" fill="white"/>
<path opacity="0.1" d="M15.992 7.69527C16.1134 7.89415 16.1873 8.12536 16.1873 8.37498C16.1873 9.09874 15.5985 9.68748 14.8748 9.68748C14.6252 9.68748 14.394 9.61361 14.1951 9.49216C14.4258 9.86992 14.8381 10.125 15.3123 10.125C16.036 10.125 16.6248 9.53621 16.6248 8.81245C16.6248 8.33831 16.3697 7.92598 15.992 7.69527Z" fill="white"/>
<path opacity="0.1" d="M18.0647 7.4999C17.8899 7.4999 17.7416 7.3912 17.6654 7.23387C17.2994 6.47865 16.5857 5.92891 15.7275 5.79171C15.5928 5.76571 15.4547 5.74988 15.3126 5.74988C15.1705 5.74988 15.0323 5.76567 14.8977 5.79171C14.0393 5.92895 13.3255 6.47881 12.9596 7.23432C12.8835 7.39137 12.7355 7.4999 12.5609 7.4999H8.00074C7.82675 7.4999 7.67918 7.3917 7.60338 7.2351C7.23756 6.47922 6.5236 5.92903 5.66494 5.79175C5.53028 5.76575 5.39214 5.74992 5.25002 5.74992C5.1079 5.74992 4.96976 5.76571 4.83511 5.79175C3.97718 5.92891 3.26371 6.47828 2.89753 7.23309C2.82095 7.39088 2.67223 7.49994 2.49684 7.49994H2.1875C1.90552 7.49994 1.38384 7.39014 1.18434 7.1906C0.98484 6.99106 0.875 6.72577 0.875 6.44378V7.31877C0.875 7.60075 0.984799 7.86608 1.18434 8.06558C1.38388 8.26513 1.64917 8.37493 1.93115 8.37493H3.10679C3.31006 7.37767 4.1937 6.62491 5.25002 6.62491C6.30634 6.62491 7.18998 7.37767 7.39326 8.37493H7.87507H12.6876H13.1693C13.3726 7.37767 14.2563 6.62491 15.3126 6.62491C16.3689 6.62491 17.2525 7.37767 17.4558 8.37493H17.9376H19.4171L20.1251 6.9082V6.03317L19.5354 7.25487C19.4631 7.4047 19.3114 7.4999 19.145 7.4999H18.0647Z" fill="white"/>
</svg>
