<svg width="32" height="32" viewBox="0 0 32 32" fill="none" xmlns="http://www.w3.org/2000/svg">
<path d="M8.43383 7.17784C10.4699 10.1378 9.86476 11.2276 8.6224 12.3207C8.37021 12.5427 8.09182 12.7647 7.80388 13.0025C6.65215 14.0035 8.69362 16.8598 10.8076 19.347C12.9973 21.9043 15.5193 24.3547 16.6698 23.3524C16.785 23.2529 16.8974 23.1541 17.0077 23.0575C18.4599 21.7858 19.5666 20.891 22.5333 23.6501C23.4448 24.5183 23.8581 25.2689 23.9457 25.9316C27.7621 23.5095 30.0743 19.3035 30.0743 14.7834C30.0743 7.49111 24.1627 1.57948 16.8705 1.57948C13.1911 1.57948 9.67863 3.11471 7.1796 5.81518C7.5839 6.10834 8.00194 6.54962 8.43383 7.17784ZM18.0573 15.7775V12.4297C18.0573 11.7369 18.6242 11.17 19.317 11.17C20.0099 11.17 20.5767 11.7369 20.5767 12.4297V15.7775C20.5767 16.4704 20.0099 17.0372 19.317 17.0372C18.6242 17.0372 18.0573 16.4704 18.0573 15.7775Z" fill="white" stroke="#0072FF" stroke-width="0.7"/>
<path d="M18.0573 12.4297V15.7775C18.0573 16.4704 18.6242 17.0372 19.317 17.0372C20.0099 17.0372 20.5768 16.4703 20.5768 15.7775V12.4297C20.5768 11.7369 20.0099 11.17 19.3171 11.17C18.6242 11.17 18.0573 11.7369 18.0573 12.4297Z" fill="white" stroke="#0072FF" stroke-width="0.7"/>
<path d="M8.62241 12.3208C9.86477 11.2276 10.4699 10.1378 8.43385 7.17783C8.00195 6.54955 7.58391 6.10827 7.17961 5.81511C6.16099 5.07656 5.22906 5.27787 4.3804 5.79732C5.72805 7.2188 7.77549 10.4998 8.62241 12.3208Z" fill="white" stroke="#0072FF" stroke-width="0.7"/>
<path d="M22.5333 23.6501C19.5666 20.891 18.4599 21.7858 17.0077 23.0575C18.7501 23.9871 21.6771 26.3475 23.0192 28.1329C23.6247 27.5036 24.0592 26.7915 23.9456 25.9316C23.8581 25.2689 23.4449 24.5183 22.5333 23.6501Z" fill="white" stroke="#0072FF" stroke-width="0.7"/>
<path d="M23.0192 28.1329C21.6771 26.3476 18.7501 23.9871 17.0077 23.0575C16.8974 23.1541 16.7851 23.2529 16.6698 23.3525C15.5193 24.3547 12.9973 21.9044 10.8076 19.347C8.69363 16.8599 6.65216 14.0036 7.80389 13.0025C8.09184 12.7647 8.37022 12.5427 8.62241 12.3208C7.7755 10.4999 5.72806 7.21883 4.3804 5.79735C3.6557 6.24106 2.99178 6.91686 2.38651 7.43758C0.531055 8.99396 1.64384 15.4497 7.46924 22.2409C13.2196 29.0285 19.491 31.1431 21.3089 29.622C21.8444 29.1594 22.4958 28.6771 23.0192 28.1329Z" fill="white" stroke="#0072FF" stroke-width="0.7"/>
<path d="M26.6173 5.03705C24.014 2.43371 20.5527 1 16.8711 1C13.2032 1 9.66592 2.47989 7.08883 5.07471C6.67821 4.85943 6.25559 4.75246 5.8175 4.75246C4.49963 4.75246 3.43013 5.7198 2.48656 6.57326C2.32082 6.72318 2.16419 6.8648 2.01184 6.99594C1.4407 7.47674 1.09312 8.28727 1.00666 9.34013C0.878367 10.9027 1.3226 12.9692 2.25743 15.159C3.31116 17.6274 4.96148 20.2066 7.02769 22.6155C11.7412 28.1793 16.784 30.6697 19.6905 30.6697C20.5332 30.6697 21.2031 30.4667 21.6814 30.0664L21.6884 30.0605C21.8494 29.9214 22.0212 29.7805 22.2031 29.6313C23.2742 28.7529 24.4881 27.7573 24.5421 26.3006C24.5429 26.2779 24.5431 26.2552 24.5434 26.2325C26.3698 25.008 27.8891 23.3522 28.9493 21.4238C30.0647 19.3949 30.6543 17.0987 30.6543 14.7834C30.6544 11.1017 29.2207 7.64039 26.6173 5.03705ZM7.95702 7.50629C8.92256 8.90998 9.31116 9.93747 9.1449 10.6474C9.08678 10.8956 8.95976 11.1203 8.78261 11.3388C7.91135 9.66864 6.47458 7.40025 5.32065 5.99256C5.48644 5.94064 5.6524 5.91155 5.8175 5.91155C6.50969 5.91155 7.22947 6.44804 7.95702 7.50629ZM21.4682 28.7351C21.2818 28.888 21.1056 29.0324 20.9347 29.18C20.6739 29.3963 20.2438 29.5106 19.6905 29.5106C17.1368 29.5106 12.3616 27.1185 7.90973 21.8636C5.91717 19.5407 4.33123 17.065 3.32333 14.704C2.46117 12.6844 2.04864 10.8131 2.16181 9.43505C2.22161 8.70647 2.43388 8.15479 2.75943 7.88162L2.765 7.87693C2.92911 7.73571 3.09177 7.58858 3.26394 7.43287C3.59013 7.13786 3.93434 6.82661 4.28754 6.56301C5.46442 7.94902 7.06739 10.4977 7.90562 12.1694C7.82936 12.2325 7.75136 12.2964 7.6711 12.3621C7.59345 12.4257 7.51481 12.49 7.43536 12.5556L7.42429 12.5651C6.67056 13.2202 6.72074 14.3409 7.57351 15.8961C8.13509 16.9202 9.04871 18.1718 10.368 19.7239C12.9604 22.7515 14.7605 24.1616 16.0332 24.1616C16.4195 24.1616 16.7715 24.0329 17.0491 23.7911C17.06 23.7817 17.0702 23.7725 17.0811 23.7631C18.6442 24.6824 20.9366 26.5364 22.2382 28.083C21.9933 28.3043 21.7295 28.5208 21.4682 28.7351ZM23.3838 26.2576C23.3712 26.5968 23.2369 26.9161 23.0272 27.2216C21.704 25.6873 19.601 23.971 18.0108 22.9726C18.441 22.6402 18.8437 22.4196 19.2958 22.4196C20.0114 22.4196 20.9407 22.9603 22.1367 24.0721C22.9879 24.8834 23.4076 25.6188 23.3838 26.2576ZM24.2765 25.0076C24.0186 24.4283 23.5731 23.8394 22.9336 23.2305L22.9285 23.2258C21.487 21.885 20.3326 21.2606 19.2958 21.2606C18.1792 21.2606 17.3946 21.9482 16.5639 22.6762C16.4748 22.7544 16.3842 22.8339 16.2897 22.9154C16.2196 22.9765 16.1428 23.0026 16.0331 23.0026C15.5357 23.0026 14.2527 22.4787 11.2497 18.9717C9.9833 17.4817 9.11321 16.2934 8.58981 15.3389C8.06897 14.389 7.91639 13.6814 8.18064 13.4434C8.25626 13.3809 8.33125 13.3196 8.40519 13.2591C8.60986 13.0915 8.8117 12.9262 9.00345 12.7574C9.00757 12.7538 9.01185 12.7503 9.01585 12.7466C9.60444 12.2267 10.0954 11.6718 10.2734 10.9116C10.525 9.83693 10.1051 8.58408 8.91195 6.84956C8.62122 6.42665 8.32667 6.0694 8.02684 5.77572C10.3768 3.47041 13.5663 2.15897 16.8711 2.15897C23.8321 2.15897 29.4954 7.82223 29.4954 14.7834C29.4954 18.8697 27.5583 22.6364 24.2765 25.0076Z" stroke="#0072FF" stroke-width="0.7"/>
<path d="M19.3169 10.5906C18.3027 10.5906 17.4777 11.4156 17.4777 12.4297V15.7775C17.4777 16.7916 18.3028 17.6167 19.317 17.6167C20.3311 17.6167 21.1561 16.7916 21.1561 15.7775V12.4297C21.1561 11.4156 20.331 10.5906 19.3169 10.5906ZM19.9972 15.7775C19.9972 16.1526 19.692 16.4577 19.317 16.4577H19.3169C18.9418 16.4577 18.6367 16.1526 18.6367 15.7775V12.4297C18.6367 12.0546 18.9419 11.7495 19.317 11.7495C19.6921 11.7495 19.9972 12.0547 19.9972 12.4297V15.7775Z" fill="#0072FF"/>
<path d="M24.2716 13.5241C23.8042 13.5241 23.424 13.1439 23.424 12.6765C23.424 12.2092 23.8042 11.829 24.2715 11.829C24.5734 11.829 24.8547 11.9913 25.0055 12.2527C25.1655 12.5298 25.5198 12.6249 25.7971 12.4649C26.0743 12.3049 26.1693 11.9505 26.0093 11.6733C25.6521 11.0544 24.9862 10.67 24.2715 10.67C23.1651 10.67 22.265 11.5701 22.265 12.6765C22.265 13.7829 23.1651 14.6831 24.2715 14.6831C24.2715 14.6831 24.2715 14.6831 24.2716 14.6831C24.739 14.6831 25.1192 15.0633 25.1192 15.5307C25.1192 15.998 24.739 16.3783 24.2716 16.3783C23.9697 16.3783 23.6885 16.2158 23.5375 15.9544C23.3775 15.6773 23.0231 15.5823 22.7459 15.7423C22.4688 15.9023 22.3738 16.2567 22.5338 16.5339C22.8911 17.1528 23.557 17.5372 24.2716 17.5372C25.378 17.5372 26.2781 16.6371 26.2781 15.5307C26.2781 14.4242 25.378 13.5241 24.2716 13.5241Z" fill="#0072FF"/>
<path d="M14.3624 13.5241C13.895 13.5241 13.5148 13.1439 13.5148 12.6765C13.5148 12.2092 13.895 11.829 14.3623 11.829C14.6642 11.829 14.9455 11.9913 15.0963 12.2527C15.2563 12.5298 15.6106 12.6249 15.8879 12.4649C16.1651 12.3049 16.2601 11.9505 16.1001 11.6733C15.7428 11.0544 15.077 10.67 14.3623 10.67C13.2559 10.67 12.3558 11.5701 12.3558 12.6765C12.3558 13.7829 13.2559 14.6831 14.3623 14.6831C14.3623 14.6831 14.3623 14.6831 14.3624 14.6831C14.8297 14.6831 15.2099 15.0633 15.2099 15.5307C15.2099 15.998 14.8297 16.3783 14.3624 16.3783C14.0605 16.3783 13.7793 16.2158 13.6283 15.9544C13.4683 15.6773 13.1139 15.5823 12.8367 15.7423C12.5596 15.9023 12.4646 16.2567 12.6246 16.5339C12.9819 17.1528 13.6478 17.5372 14.3624 17.5372C15.4688 17.5372 16.3689 16.6371 16.3689 15.5307C16.3689 14.4242 15.4688 13.5241 14.3624 13.5241Z" fill="#0072FF"/>
</svg>
