<svg width="193" height="40" viewBox="0 0 193 40" fill="none" xmlns="http://www.w3.org/2000/svg">
<path d="M36.679 6.43281e-10H4.35451C3.39478 6.43282e-10 2.47436 0.379162 1.79572 1.05407C1.11709 1.72899 0.73584 2.64437 0.73584 3.59884L0.73584 34.2429C3.66517 31.3708 8.54483 26.6001 10.876 24.3216C11.2498 23.9403 11.5256 23.4749 11.68 22.9649C11.8344 22.455 11.8629 21.9155 11.763 21.3922C11.5004 19.7431 11.7045 18.0538 12.3525 16.5135C13.0006 14.9732 14.0668 13.6427 15.4321 12.6709C16.7973 11.6991 18.4075 11.1243 20.0826 11.011C21.7576 10.8977 23.4313 11.2503 24.9162 12.0293L18.7416 17.9669L22.452 21.7831L28.6266 15.8455C29.3596 17.3477 29.6577 19.0232 29.4875 20.6843C29.3174 22.3454 28.6857 23.9266 27.6633 25.251C26.6408 26.5753 25.2679 27.5905 23.6983 28.183C22.1286 28.7754 20.4241 28.9216 18.7756 28.6054C18.1978 28.5088 17.6051 28.5517 17.0473 28.7304C16.4896 28.9091 15.9832 29.2183 15.5706 29.6321L5.47064 39.345H36.6781C37.6379 39.345 38.5583 38.9658 39.2369 38.2909C39.9156 37.616 40.2968 36.7006 40.2968 35.7462V3.59885C40.2969 3.12628 40.2034 2.65831 40.0217 2.22168C39.8399 1.78505 39.5735 1.38831 39.2375 1.05411C38.9015 0.719913 38.5027 0.454811 38.0637 0.273944C37.6247 0.0930781 37.1542 -8.93519e-06 36.679 6.43282e-10V6.43281e-10Z" fill="#D6E4F7"/>
<path d="M62.4486 25.6387C62.4486 24.6942 61.6623 24.0747 58.3207 23.032C54.684 21.8919 52.9477 20.0347 52.9477 17.3299C52.9477 12.508 56.9772 9.11939 62.6454 9.11939C66.1181 9.11939 69.0011 10.3902 70.5737 12.8662L65.8886 15.7985C65.5191 15.2279 65.0092 14.7608 64.4071 14.4415C63.805 14.1221 63.1309 13.9612 62.4486 13.9738C60.614 13.9738 59.5656 14.7558 59.5656 15.9941C59.5656 16.9718 60.4829 17.5906 63.4317 18.5682C67.2321 19.8066 69.0995 21.403 69.0995 24.1397C69.0995 29.2554 64.6111 32.7091 58.5498 32.7091C54.4876 32.7091 51.5388 31.2432 49.7368 28.5709L54.684 25.4762C55.1865 26.2082 55.8609 26.8075 56.6487 27.2219C57.4366 27.6364 58.3141 27.8535 59.2054 27.8547C61.2365 27.8546 62.4486 27.0401 62.4486 25.6387Z" fill="#D6E4F7"/>
<path d="M83.8765 26.8122L87.3822 29.3531C86.2898 30.4355 84.9909 31.29 83.5619 31.8663C82.1329 32.4426 80.6026 32.7292 79.0607 32.7092C74.2115 32.7092 71.4268 30.0376 71.4268 25.8345C71.4268 19.7417 76.1446 15.0498 82.7954 15.0498C87.1201 15.0498 89.5447 17.0369 89.5447 19.7742C89.5447 23.2279 86.3338 26.0627 81.4523 26.0627C80.0188 26.1313 78.5932 25.8161 77.324 25.15C77.297 25.2676 77.286 25.3883 77.2913 25.5088C77.2913 27.3335 78.3071 28.4411 80.3055 28.4411C80.9829 28.4373 81.6517 28.29 82.2674 28.0091C82.8831 27.7282 83.4317 27.3202 83.8765 26.8122ZM78.2414 21.7289C79.1881 22.0043 80.1712 22.1363 81.1575 22.1202C82.8281 22.1202 83.9092 21.5007 83.9092 20.3281C83.9092 19.6111 83.2213 19.1873 82.0745 19.1873C81.2583 19.2032 80.4638 19.4509 79.7846 19.9013C79.1055 20.3516 78.57 20.9858 78.2414 21.7289V21.7289Z" fill="#D6E4F7"/>
<path d="M105.011 19.7419C104.608 19.6998 104.203 19.6779 103.799 19.6762C102.831 19.6828 101.876 19.8923 100.995 20.2909C100.114 20.6895 99.3278 21.2684 98.6873 21.9897L96.6889 32.3187H90.5952L93.8715 15.4406H99.9651L99.572 17.5584C100.203 16.7544 101.015 16.1087 101.942 15.673C102.87 15.2374 103.887 15.024 104.912 15.0499C105.241 15.0532 105.569 15.0749 105.895 15.1149L105.011 19.7419Z" fill="#D6E4F7"/>
<path d="M109.401 32.3186L106.715 15.4405H113.005L113.923 26.7796L119.197 15.4405H125.488L116.249 32.3186H109.401Z" fill="#D6E4F7"/>
<path d="M128.078 15.4405H134.172L130.895 32.3186H124.802L128.078 15.4405ZM131.387 14.0721C131.017 14.1002 130.644 14.0504 130.294 13.9262C129.945 13.8019 129.625 13.6059 129.356 13.3509C129.087 13.0958 128.876 12.7875 128.734 12.4458C128.593 12.1041 128.526 11.7366 128.537 11.3673C128.576 10.2828 129.033 9.25477 129.814 8.49655C130.595 7.73832 131.639 7.30803 132.73 7.2949C133.104 7.2699 133.479 7.32253 133.832 7.44947C134.184 7.57641 134.506 7.77487 134.777 8.03224C135.048 8.28961 135.263 8.60026 135.407 8.94445C135.551 9.28864 135.621 9.65885 135.613 10.0315C135.608 10.2502 135.586 10.4681 135.548 10.6836C135.334 11.6293 134.809 12.4767 134.054 13.0908C133.3 13.705 132.361 14.0504 131.387 14.0721Z" fill="#D6E4F7"/>
<path d="M146.491 15.0498C150.095 15.0498 152.585 16.7438 153.633 19.4154L148.555 21.5664C148.398 21.0093 148.058 20.5206 147.589 20.1781C147.12 19.8355 146.549 19.6589 145.967 19.6761C143.641 19.6761 141.839 21.9246 141.839 25.3457C141.839 27.0729 142.658 28.083 144.329 28.083C145.672 28.083 146.721 27.366 147.638 26.1927L151.897 28.3437C150.853 29.6993 149.509 30.798 147.969 31.555C146.43 32.3119 144.736 32.7069 143.019 32.7093C138.301 32.7093 135.614 30.0051 135.614 25.932C135.629 25.2424 135.706 24.5554 135.844 23.8792C136.263 21.3841 137.568 19.1212 139.522 17.5012C141.475 15.8812 143.948 15.0115 146.491 15.0498Z" fill="#D6E4F7"/>
<path d="M164.446 8.53341L162.022 20.9796L167.657 15.4406H174.471L167.722 21.6966L171.916 32.3188H165.363L163.201 25.8672L160.613 28.2782L159.827 32.3188H153.733L158.352 8.53341H164.446Z" fill="#D6E4F7"/>
<path d="M181.387 32.709C176.768 32.709 173.983 30.0373 173.983 25.8992C173.965 24.4721 174.234 23.0559 174.774 21.7335C175.313 20.4111 176.113 19.2093 177.127 18.1986C178.14 17.188 179.346 16.3888 180.674 15.848C182.002 15.3072 183.425 15.0357 184.86 15.0495C189.48 15.0495 192.264 17.7537 192.264 21.8593C192.262 22.5371 192.197 23.2132 192.068 23.8789C191.634 26.3732 190.32 28.632 188.363 30.2502C186.406 31.8684 183.933 32.7401 181.387 32.709ZM180.012 25.4429C180.012 27.17 180.831 28.0827 182.304 28.0827C184.303 28.0827 186.236 26.0949 186.236 22.3481C186.236 20.5884 185.417 19.6758 183.943 19.6758C182.076 19.6758 180.699 21.1098 180.175 23.8789C180.063 24.3926 180.008 24.9172 180.012 25.4429Z" fill="#D6E4F7"/>
</svg>
