<svg width="47" height="35" viewBox="0 0 47 35" fill="none" xmlns="http://www.w3.org/2000/svg">
<g opacity="0.5">
<path d="M39.9288 15.1746C39.3272 15.1752 38.7962 14.7831 38.6217 14.2099C38.4464 13.6366 38.6696 13.0176 39.17 12.6852L43.2634 9.96749C43.8903 9.55082 44.7378 9.71934 45.1562 10.3437C45.5739 10.968 45.4047 11.812 44.7778 12.228L40.6844 14.9457C40.4605 15.095 40.198 15.1739 39.9288 15.1746Z" fill="#FFB74F"/>
<path d="M7.18164 15.1746C6.91247 15.1739 6.64931 15.095 6.42545 14.9457L2.33204 12.228C1.7051 11.812 1.53588 10.968 1.95428 10.3437C2.37268 9.71934 3.21948 9.55082 3.84641 9.96749L7.93982 12.6852C8.44084 13.0176 8.66336 13.6366 8.48881 14.2099C8.31425 14.7831 7.78325 15.1752 7.18164 15.1746Z" fill="#FFB74F"/>
<path d="M41.1971 13.3152C41.1425 13.1792 41.0499 12.8488 40.9246 12.3976C39.8507 8.74843 38.5188 4.78009 36.7946 3.02184C36.3016 2.50033 35.7246 2.06442 35.087 1.73267C34.9258 1.65438 34.7505 1.60794 34.5713 1.59666C34.6579 1.60329 34.7439 1.61656 34.8278 1.63713C31.1688 0.576209 27.3639 0.099822 23.555 0.227212C15.2849 0.227212 12.3374 1.57476 12.0276 1.73002C11.39 2.07106 10.8137 2.51559 10.322 3.04506C8.8596 4.59299 7.38454 8.00599 5.94078 13.1932L5.88748 13.3842C5.7489 13.7989 5.81819 14.2547 6.07403 14.6091C6.33054 14.9634 6.74228 15.1737 7.18133 15.1743H39.9286C40.3803 15.1743 40.8027 14.9514 41.0572 14.5792C41.3111 14.207 41.3637 13.7339 41.1971 13.3152Z" fill="white"/>
<path d="M46.0583 23.504C45.6305 23.2625 45.1049 23.2691 44.6831 23.5212L37.8608 27.5977C37.4504 27.8439 37.1992 28.2858 37.1992 28.7628V31.4805C37.1992 32.9813 38.4211 34.1981 39.9282 34.1981H44.0216C45.5286 34.1981 46.7505 32.9813 46.7505 31.4805V24.6863C46.7505 24.1967 46.486 23.7448 46.0583 23.504Z" fill="white"/>
<path d="M9.24841 27.5978L2.42607 23.5213C2.005 23.2692 1.48 23.2626 1.0516 23.5034C0.623874 23.7449 0.359375 24.1968 0.359375 24.6864V31.4806C0.359375 32.9814 1.58127 34.1982 3.08831 34.1982H7.18172C8.68877 34.1982 9.91066 32.9814 9.91066 31.4806V28.7629C9.91066 28.2859 9.65949 27.844 9.24841 27.5978Z" fill="white"/>
<path d="M46.3516 15.5726C45.5328 14.7572 44.5201 13.9703 41.023 12.7568L40.9184 12.3978C39.8444 8.74862 38.5125 4.78027 36.7876 3.02202C36.2953 2.50051 35.7183 2.0646 35.0807 1.73285C34.9195 1.65456 34.7443 1.60812 34.565 1.59684C34.6517 1.60347 34.7376 1.61674 34.8215 1.63731C31.1645 0.577051 27.3623 0.100664 23.5553 0.227391C15.2853 0.227391 12.3378 1.57494 12.028 1.7302C11.3904 2.07123 10.8141 2.51577 10.3224 3.04524C8.90196 4.54805 7.47087 7.8257 6.06709 12.7634C2.5873 13.973 1.5766 14.7585 0.759122 15.5726C0.503284 15.8274 0.359375 16.1724 0.359375 16.5334V24.6864C0.359375 25.1627 0.610549 25.6046 1.02096 25.8508L7.8433 29.9273C8.05583 30.054 8.29835 30.121 8.54619 30.1217H38.5645C38.8117 30.121 39.0549 30.054 39.2667 29.9273L46.0891 25.8508C46.5001 25.6046 46.7513 25.1627 46.7513 24.6864V16.5334C46.7513 16.1724 46.6074 15.8274 46.3516 15.5726ZM12.2958 4.92292C12.5663 4.62302 12.8828 4.36824 13.2346 4.16787C13.2605 4.15526 15.9455 2.94505 23.5553 2.94505C27.0325 2.80108 30.5096 3.21377 33.8555 4.16787L33.9428 4.20038C34.2719 4.39279 34.571 4.63165 34.8309 4.90965C36.156 6.26848 37.4412 10.2892 38.0895 12.4536H8.99391C10.5929 7.1423 11.8208 5.41921 12.2958 4.92292Z" fill="#B6CDEE"/>
<path d="M15.3685 20.6099C15.3685 22.8612 13.5356 24.6864 11.2751 24.6864C9.01448 24.6864 7.18164 22.8612 7.18164 20.6099C7.18164 18.358 9.01448 16.5334 11.2751 16.5334C13.5356 16.5334 15.3685 18.358 15.3685 20.6099Z" fill="white"/>
<path d="M39.929 20.6099C39.929 22.8612 38.0962 24.6864 35.8356 24.6864C33.575 24.6864 31.7422 22.8612 31.7422 20.6099C31.7422 18.358 33.575 16.5334 35.8356 16.5334C38.0962 16.5334 39.929 18.358 39.929 20.6099Z" fill="white"/>
<path d="M18.0969 9.73937C17.5452 9.7387 17.0476 9.40762 16.8364 8.90005C16.6252 8.39248 16.7418 7.80794 17.1322 7.4198L18.4966 6.06097C19.0316 5.54543 19.8831 5.5534 20.4094 6.07755C20.9358 6.60171 20.9431 7.44899 20.4261 7.98178L19.0616 9.34061C18.8058 9.59605 18.4587 9.7387 18.0969 9.73937Z" fill="#F5F5F5"/>
<path d="M27.6487 9.73937C27.097 9.7387 26.5993 9.40762 26.3881 8.90005C26.1769 8.39248 26.2935 7.80794 26.6839 7.4198L28.0484 6.06097C28.5834 5.54543 29.4349 5.5534 29.9612 6.07755C30.4875 6.60171 30.4949 7.44899 29.9778 7.98178L28.6134 9.34061C28.3575 9.59605 28.0104 9.7387 27.6487 9.73937Z" fill="#F5F5F5"/>
<path d="M0.359375 16.5333V31.4804C0.359375 32.9812 1.58127 34.1981 3.08831 34.1981H7.18172C8.68877 34.1981 9.91066 32.9812 9.91066 31.4804V30.1216H37.2001V31.4804C37.2001 32.9812 38.4219 34.1981 39.929 34.1981H44.0224C45.5294 34.1981 46.7513 32.9812 46.7513 31.4804V16.5333C46.7513 16.1723 46.6074 15.8273 46.3516 15.5725C45.3782 14.6251 44.2063 13.9052 42.9198 13.4633L44.7793 12.2279C45.4062 11.8118 45.5754 10.9679 45.1577 10.3435C44.7393 9.71919 43.8918 9.55067 43.2649 9.96734L40.6985 11.6712C39.6625 8.23297 38.3993 4.66339 36.7876 3.01793C36.2953 2.49642 35.7183 2.06051 35.0807 1.72876C34.9188 1.65113 34.7443 1.60469 34.5651 1.59274C34.6517 1.59805 34.7376 1.61132 34.8216 1.63189C31.1645 0.574285 27.3616 0.099888 23.5554 0.227278C15.2839 0.227278 12.3378 1.57483 12.0293 1.72876C11.3911 2.0698 10.8141 2.51433 10.3224 3.04513C9.0099 4.43249 7.6894 7.33527 6.38889 11.6559L3.84517 9.96734C3.21823 9.55067 2.37143 9.71919 1.95303 10.3435C1.53463 10.9679 1.70386 11.8118 2.33079 12.2279L4.19095 13.4633C2.90443 13.9052 1.73251 14.6251 0.759122 15.5725C0.503284 15.8273 0.359375 16.1723 0.359375 16.5333ZM7.18172 31.4804H3.08831V27.0868L7.18172 29.5331V31.4804ZM44.0224 31.4804H39.929V29.5317L44.0224 27.0854V31.4804ZM12.2972 4.92148C12.5663 4.62158 12.8828 4.3668 13.2346 4.16776C13.2605 4.15648 15.9455 2.94494 23.5554 2.94494C27.0325 2.80096 30.5096 3.21366 33.8555 4.16776L33.9428 4.20027C34.2726 4.39202 34.5724 4.63087 34.8322 4.90954C36.1547 6.26837 37.4426 10.2905 38.0895 12.4534H8.99391C10.5929 7.14219 11.8208 5.4191 12.2972 4.92148ZM3.08831 17.1284C4.40615 16.2393 5.86522 15.5785 7.40425 15.1744H39.7065C41.2455 15.5785 42.7046 16.2393 44.0224 17.1284V23.9226L38.1861 27.4039H8.92395L3.08831 23.9166V17.1284Z" fill="#B6CDEE"/>
<path d="M15.3685 20.6096C15.3685 18.3577 13.5356 16.5331 11.2751 16.5331C9.01448 16.5331 7.18164 18.3577 7.18164 20.6096C7.18164 22.8608 9.01448 24.6861 11.2751 24.6861C13.5356 24.6861 15.3685 22.8608 15.3685 20.6096ZM9.91058 20.6096C9.91058 19.8585 10.5215 19.2507 11.2751 19.2507C12.0286 19.2507 12.6395 19.8585 12.6395 20.6096C12.6395 21.36 12.0286 21.9684 11.2751 21.9684C10.5215 21.9684 9.91058 21.36 9.91058 20.6096Z" fill="white"/>
<path d="M35.8356 24.6861C38.0962 24.6861 39.929 22.8608 39.929 20.6096C39.929 18.3577 38.0962 16.5331 35.8356 16.5331C33.575 16.5331 31.7422 18.3577 31.7422 20.6096C31.7422 22.8608 33.575 24.6861 35.8356 24.6861ZM35.8356 19.2507C36.5891 19.2507 37.2001 19.8585 37.2001 20.6096C37.2001 21.36 36.5891 21.9684 35.8356 21.9684C35.0821 21.9684 34.4711 21.36 34.4711 20.6096C34.4711 19.8585 35.0821 19.2507 35.8356 19.2507Z" fill="white"/>
<path d="M18.4971 6.0606L17.1326 7.41943C16.7775 7.76047 16.6356 8.26538 16.7602 8.74044C16.8855 9.21551 17.2579 9.58706 17.7349 9.71113C18.212 9.83521 18.7196 9.69388 19.0621 9.34024L20.4266 7.98141C20.9436 7.44863 20.9362 6.60135 20.4099 6.07719C19.8836 5.55303 19.0321 5.54507 18.4971 6.0606Z" fill="white"/>
<path d="M28.0479 6.0606L26.6834 7.41943C26.3283 7.76047 26.1864 8.26538 26.311 8.74044C26.4362 9.21551 26.8087 9.58706 27.2857 9.71113C27.7627 9.83521 28.2704 9.69388 28.6129 9.34024L29.9773 7.98141C30.4943 7.44863 30.487 6.60135 29.9607 6.07719C29.4343 5.55303 28.5829 5.54507 28.0479 6.0606Z" fill="white"/>
</g>
</svg>
