<svg width="12" height="12" viewBox="0 0 12 12" fill="none" xmlns="http://www.w3.org/2000/svg">
<path d="M0.0313053 4.68891C0.109859 4.44593 0.32538 4.27335 0.58036 4.25037L4.04388 3.93588L5.41345 0.730264C5.51444 0.495334 5.74442 0.343262 5.99995 0.343262C6.25548 0.343262 6.48547 0.495334 6.58645 0.730814L7.95602 3.93588L11.4201 4.25037C11.6746 4.2739 11.8896 4.44593 11.9686 4.68891C12.0476 4.9319 11.9746 5.19842 11.7821 5.36642L9.16409 7.66243L9.93608 11.0631C9.99257 11.3131 9.89552 11.5716 9.68806 11.7215C9.57654 11.8021 9.44608 11.8431 9.31451 11.8431C9.20108 11.8431 9.08856 11.8125 8.98757 11.7521L5.99995 9.9665L3.01343 11.7521C2.79489 11.8836 2.5194 11.8716 2.3124 11.7215C2.10484 11.5711 2.00788 11.3125 2.06437 11.0631L2.83636 7.66243L0.218352 5.36688C0.0258121 5.19842 -0.0477066 4.93236 0.0313053 4.68891Z" fill="#F2994A"/>
</svg>
