<svg width="25" height="25" viewBox="0 0 25 25" fill="none" xmlns="http://www.w3.org/2000/svg">
<path opacity="0.2" d="M14.0312 3.75263C14.5935 4.19897 14.9584 4.81508 15.0578 5.49892C15.0813 5.34438 15.1042 5.1894 15.1042 5.03017C15.1042 4.04448 14.649 3.13501 13.91 2.54707L14.0305 3.17675C14.0692 3.37041 14.0608 3.56352 14.0312 3.75263Z" fill="white"/>
<path d="M23.6938 12.361L18.5374 11.5014L17.0431 9.2599C16.6555 8.67904 16.0075 8.33217 15.3097 8.33217H7.60703C6.90918 8.33217 6.26118 8.67904 5.87363 9.2599L4.36567 11.5219L1.18408 12.3172C0.487256 12.4912 0 13.1148 0 13.8329V16.4498C0 17.0638 0.239062 17.6411 0.673437 18.0754C1.10171 18.5032 1.69375 18.7489 2.29902 18.7489H3.69849C3.94048 19.9361 4.99204 20.8322 6.25 20.8322C7.50796 20.8322 8.55952 19.9361 8.80151 18.7489H15.6776C15.9196 19.9361 16.9712 20.8322 18.2291 20.8322C19.4871 20.8322 20.5387 19.9361 20.7807 18.7489H23.115C23.5127 18.7489 23.8698 18.5286 24.0478 18.1731L24.8901 16.4875C24.9084 16.4509 24.9227 16.4122 24.9318 16.3725L24.9867 16.1396C24.9959 16.1009 24.9999 16.0613 24.9999 16.0216V13.9021C25 13.1346 24.4507 12.4866 23.6938 12.361Z" fill="#212121"/>
<path d="M6.74034 9.8377C6.93361 9.54727 7.25812 9.37383 7.60704 9.37383H15.3097C15.6586 9.37383 15.9831 9.54727 16.1764 9.8377L17.256 11.4572H5.66071L6.74034 9.8377Z" fill="#BDDDF4"/>
<path d="M6.74034 9.8377C6.93361 9.54727 7.25812 9.37383 7.60704 9.37383H15.3097C15.6586 9.37383 15.9831 9.54727 16.1764 9.8377L17.256 11.4572H5.66071L6.74034 9.8377Z" fill="url(#paint0_linear)"/>
<path d="M6.25 19.7906C7.11295 19.7906 7.8125 19.0911 7.8125 18.2281C7.8125 17.3652 7.11295 16.6656 6.25 16.6656C5.38706 16.6656 4.6875 17.3652 4.6875 18.2281C4.6875 19.0911 5.38706 19.7906 6.25 19.7906Z" fill="white"/>
<path d="M18.2291 19.7906C19.0921 19.7906 19.7916 19.0911 19.7916 18.2281C19.7916 17.3652 19.0921 16.6656 18.2291 16.6656C17.3662 16.6656 16.6666 17.3652 16.6666 18.2281C16.6666 19.0911 17.3662 19.7906 18.2291 19.7906Z" fill="white"/>
<path d="M23.9584 15.961L23.115 17.7071H20.7807C20.5387 16.5199 19.4872 15.6238 18.2292 15.6238C16.9712 15.6238 15.9197 16.5199 15.6777 17.7071H8.80152C8.55953 16.5199 7.50797 15.6238 6.25001 15.6238C4.99205 15.6238 3.94049 16.5199 3.69849 17.7071H2.29898C1.96837 17.7071 1.64385 17.5729 1.40992 17.3389C1.17291 17.1013 1.04166 16.7855 1.04166 16.4498V13.8329C1.04166 13.5934 1.2044 13.3858 1.43633 13.3273L4.75157 12.4988H18.1864L23.523 13.3884C23.7753 13.4301 23.9584 13.6462 23.9584 13.9021V15.961Z" fill="white"/>
<path opacity="0.1" d="M7.05917 16.898C7.20375 17.1348 7.29169 17.41 7.29169 17.7072C7.29169 18.5688 6.59081 19.2697 5.72919 19.2697C5.43203 19.2697 5.15678 19.1817 4.92001 19.0372C5.19467 19.4869 5.68554 19.7905 6.24999 19.7905C7.11162 19.7905 7.81249 19.0896 7.81249 18.228C7.81249 17.6636 7.50883 17.1727 7.05917 16.898Z" fill="#212121"/>
<path opacity="0.1" d="M19.0383 16.898C19.1829 17.1348 19.2708 17.41 19.2708 17.7072C19.2708 18.5688 18.57 19.2697 17.7083 19.2697C17.4112 19.2697 17.1359 19.1817 16.8992 19.0372C17.1738 19.4869 17.6647 19.7905 18.2291 19.7905C19.0908 19.7905 19.7916 19.0896 19.7916 18.228C19.7916 17.6636 19.488 17.1727 19.0383 16.898Z" fill="#212121"/>
<path d="M11.9791 23.9584C10.8302 23.9584 9.8958 23.0223 9.8958 21.8738V9.89468C9.8958 9.19683 9.59673 8.51831 9.05303 7.98325C8.25298 7.19693 7.8125 6.14815 7.8125 5.03018C7.8125 3.79322 8.371 2.62437 9.34448 1.82481C9.48184 1.71089 9.66846 1.67627 9.83735 1.7312C10.0067 1.78716 10.1359 1.92549 10.1796 2.09844L10.6557 3.96817C10.7015 4.14722 10.818 4.29673 10.967 4.36592C11.554 4.6355 12.2574 4.5124 12.7157 4.05669L12.8413 3.93057C12.9868 3.78511 13.0493 3.57959 13.0086 3.3792C13.0086 3.37818 13.0082 3.37613 13.0076 3.37412L12.6791 1.65904C12.6439 1.47593 12.7096 1.28775 12.8515 1.1667C12.9929 1.04463 13.1902 1.01104 13.3646 1.07007C15.0284 1.66006 16.1458 3.25108 16.1458 5.03023C16.1458 6.1482 15.7053 7.19698 14.9053 7.9833C14.3616 8.51831 14.0625 9.19683 14.0625 9.89468V21.8738C14.0625 23.0223 13.1282 23.9584 11.9791 23.9584Z" fill="#212121"/>
<path d="M9.40552 3.27949C9.04947 3.79218 8.85416 4.40048 8.85416 5.03017C8.85416 5.86635 9.18423 6.65166 9.7834 7.24067C10.5275 7.97309 10.9375 8.91508 10.9375 9.89467V21.8738C10.9375 22.4486 11.4049 22.9155 11.9791 22.9155C12.5533 22.9155 13.0208 22.4485 13.0208 21.8738V9.89467C13.0208 8.91503 13.4307 7.97309 14.1748 7.24067C14.774 6.65166 15.1041 5.86635 15.1041 5.03017C15.1041 4.04448 14.6488 3.13501 13.9098 2.54707L14.0304 3.17675C14.1387 3.71894 13.9698 4.27539 13.5787 4.66601L13.4531 4.79213C12.6861 5.55815 11.5137 5.76567 10.529 5.31093C10.0921 5.10747 9.77066 4.71176 9.64654 4.22451L9.40552 3.27949Z" fill="#0072FF"/>
<defs>
<linearGradient id="paint0_linear" x1="6.94219" y1="8.7103" x2="16.4663" y2="13.1516" gradientUnits="userSpaceOnUse">
<stop stop-color="white" stop-opacity="0.2"/>
<stop offset="1" stop-color="white" stop-opacity="0"/>
</linearGradient>
</defs>
</svg>
