<svg width="25" height="25" viewBox="0 0 25 25" fill="none" xmlns="http://www.w3.org/2000/svg">
<path opacity="0.2" d="M14.0312 3.75263C14.5935 4.19897 14.9584 4.81508 15.0578 5.49892C15.0813 5.34438 15.1042 5.1894 15.1042 5.03017C15.1042 4.04448 14.649 3.13501 13.91 2.54707L14.0305 3.17675C14.0692 3.37041 14.0608 3.56352 14.0312 3.75263Z" fill="white"/>
<path d="M23.6938 12.361L18.5374 11.5014L17.0431 9.2599C16.6555 8.67904 16.0075 8.33217 15.3097 8.33217H7.60703C6.90918 8.33217 6.26118 8.67904 5.87363 9.2599L4.36567 11.5219L1.18408 12.3172C0.487256 12.4912 0 13.1148 0 13.8329V16.4498C0 17.0638 0.239062 17.6411 0.673437 18.0754C1.10171 18.5032 1.69375 18.7489 2.29902 18.7489H3.69849C3.94048 19.9361 4.99204 20.8322 6.25 20.8322C7.50796 20.8322 8.55952 19.9361 8.80151 18.7489H15.6776C15.9196 19.9361 16.9712 20.8322 18.2291 20.8322C19.4871 20.8322 20.5387 19.9361 20.7807 18.7489H23.115C23.5127 18.7489 23.8698 18.5286 24.0478 18.1731L24.8901 16.4875C24.9084 16.4509 24.9227 16.4122 24.9318 16.3725L24.9867 16.1396C24.9959 16.1009 24.9999 16.0613 24.9999 16.0216V13.9021C25 13.1346 24.4507 12.4866 23.6938 12.361Z" fill="#212121"/>
<path d="M6.74034 9.8377C6.93361 9.54727 7.25812 9.37383 7.60704 9.37383H15.3097C15.6586 9.37383 15.9831 9.54727 16.1764 9.8377L17.256 11.4572H5.66071L6.74034 9.8377Z" fill="#BDDDF4"/>
<path d="M6.74034 9.8377C6.93361 9.54727 7.25812 9.37383 7.60704 9.37383H15.3097C15.6586 9.37383 15.9831 9.54727 16.1764 9.8377L17.256 11.4572H5.66071L6.74034 9.8377Z" fill="url(#paint0_linear)"/>
<path d="M6.25 19.7906C7.11295 19.7906 7.8125 19.0911 7.8125 18.2281C7.8125 17.3652 7.11295 16.6656 6.25 16.6656C5.38706 16.6656 4.6875 17.3652 4.6875 18.2281C4.6875 19.0911 5.38706 19.7906 6.25 19.7906Z" fill="white"/>
<path d="M18.2292 19.7906C19.0921 19.7906 19.7917 19.0911 19.7917 18.2281C19.7917 17.3652 19.0921 16.6656 18.2292 16.6656C17.3662 16.6656 16.6667 17.3652 16.6667 18.2281C16.6667 19.0911 17.3662 19.7906 18.2292 19.7906Z" fill="white"/>
<path d="M23.9584 15.961L23.115 17.7071H20.7807C20.5387 16.5199 19.4872 15.6238 18.2292 15.6238C16.9712 15.6238 15.9197 16.5199 15.6777 17.7071H8.80152C8.55953 16.5199 7.50797 15.6238 6.25001 15.6238C4.99205 15.6238 3.94049 16.5199 3.69849 17.7071H2.29898C1.96837 17.7071 1.64385 17.5729 1.40992 17.3389C1.17291 17.1013 1.04166 16.7855 1.04166 16.4498V13.8329C1.04166 13.5934 1.2044 13.3858 1.43633 13.3273L4.75157 12.4988H18.1864L23.523 13.3884C23.7753 13.4301 23.9584 13.6462 23.9584 13.9021V15.961Z" fill="white"/>
<path opacity="0.1" d="M7.05917 16.898C7.20375 17.1348 7.29169 17.41 7.29169 17.7072C7.29169 18.5688 6.59081 19.2697 5.72919 19.2697C5.43203 19.2697 5.15678 19.1817 4.92001 19.0372C5.19467 19.4869 5.68554 19.7905 6.24999 19.7905C7.11162 19.7905 7.81249 19.0896 7.81249 18.228C7.81249 17.6636 7.50883 17.1727 7.05917 16.898Z" fill="#212121"/>
<path opacity="0.1" d="M19.0383 16.898C19.1829 17.1348 19.2708 17.41 19.2708 17.7072C19.2708 18.5688 18.57 19.2697 17.7083 19.2697C17.4112 19.2697 17.1359 19.1817 16.8992 19.0372C17.1738 19.4869 17.6647 19.7905 18.2291 19.7905C19.0908 19.7905 19.7916 19.0896 19.7916 18.228C19.7916 17.6636 19.488 17.1727 19.0383 16.898Z" fill="#212121"/>
<path d="M4 4C4 3.17273 4.65352 2.49998 5.45538 2.49998L13.819 2.49998C14.3062 2.49998 14.78 2.28465 15.1535 1.89318C15.7025 1.31715 16.4348 1 17.2153 1C18.079 1 18.895 1.40212 19.4533 2.10303C19.5328 2.20193 19.557 2.33629 19.5186 2.4579C19.4795 2.57986 19.383 2.67288 19.2622 2.70435L17.9568 3.04712C17.8318 3.0801 17.7274 3.16395 17.6791 3.27124C17.4909 3.69386 17.5768 4.20032 17.895 4.5303L17.9831 4.62076C18.0846 4.72549 18.2281 4.77052 18.368 4.74124C18.3687 4.74124 18.3702 4.74089 18.3716 4.7405L19.569 4.50393C19.6968 4.47865 19.8282 4.5259 19.9127 4.62807C19.998 4.72988 20.0214 4.87198 19.9802 4.99756C19.5683 6.19545 18.4575 7 17.2153 7C16.4347 7 15.7025 6.68285 15.1535 6.10682C14.78 5.71535 14.3062 5.50002 13.819 5.50002L5.45538 5.50002C4.65352 5.50002 4 4.8273 4 4Z" fill="#212121"/>
<path d="M18.4966 2.35288C18.1442 2.125 17.7261 2 17.2933 2C16.7185 2 16.1788 2.21125 15.7739 2.59473C15.2705 3.07099 14.623 3.33333 13.9497 3.33333L5.71597 3.33333C5.32091 3.33333 5 3.63249 5 4C5 4.36751 5.32095 4.66667 5.71597 4.66667L13.9497 4.66667C14.623 4.66667 15.2705 4.92905 15.7739 5.40527C16.1788 5.78875 16.7185 6 17.2933 6C17.9708 6 18.5959 5.70865 19 5.23568L18.5672 5.31283C18.1945 5.38218 17.8121 5.27408 17.5436 5.02377L17.4569 4.94336C16.9304 4.45248 16.7877 3.70212 17.1003 3.07192C17.2401 2.79229 17.5121 2.58657 17.847 2.50713L18.4966 2.35288Z" fill="#0072FF"/>
<defs>
<linearGradient id="paint0_linear" x1="6.94219" y1="8.7103" x2="16.4663" y2="13.1516" gradientUnits="userSpaceOnUse">
<stop stop-color="white" stop-opacity="0.2"/>
<stop offset="1" stop-color="white" stop-opacity="0"/>
</linearGradient>
</defs>
</svg>
