<svg width="55" height="35" viewBox="0 0 55 35" fill="none" xmlns="http://www.w3.org/2000/svg">
<path d="M53.7332 16.3556C53.7332 15.854 53.3261 15.4469 52.8245 15.4469H48.2813V10.9037C48.2813 9.39814 47.061 8.17779 45.5554 8.17779H29.1997C27.6941 8.17779 26.4738 9.39814 26.4738 10.9037V12.721C26.4738 15.596 28.2565 16.3556 29.1997 16.3556H29.654C31.4105 16.3556 32.8343 17.7795 32.8343 19.5358C32.8343 21.2923 31.4104 22.7161 29.654 22.7161H20.2587C19.9334 22.717 19.6326 22.5434 19.4699 22.2618L16.5059 17.0707L17.3818 9.18641C17.3855 9.1537 17.3873 9.12007 17.3873 9.08643C17.4536 7.62174 16.9075 6.19601 15.8789 5.15109C16.5041 4.83672 16.9848 4.29428 17.2201 3.63457H20.1132V1.81729H17.2201C16.8366 0.732392 15.8126 0.00450278 14.6613 0H10.1181C9.61657 0 9.20948 0.40617 9.20948 0.908643C9.20948 1.04952 9.24219 1.18938 9.30486 1.31481L11.1222 4.94939C11.2548 5.20834 11.5038 5.38735 11.791 5.43192L10.5189 13.8551C10.3408 14.9254 9.5448 15.7887 8.4917 16.0521L7.16871 16.3829C6.7653 16.4855 6.48355 16.8481 6.48355 17.2642V19.0815H5.57491C2.56549 19.0843 0.125804 21.524 0.123047 24.5334C0.123047 25.0349 0.530135 25.442 1.03169 25.442H1.65234C0.138577 28.6123 1.48151 32.4086 4.65174 33.9224C7.82198 35.4362 11.6184 34.0932 13.1321 30.923C13.5428 30.0625 13.7545 29.1212 13.7528 28.1679H15.8327C16.6796 30.3578 18.7858 31.8016 21.1338 31.8025H30.9054C33.2533 31.8016 35.3595 30.3578 36.2064 28.1679H37.3777C37.3777 31.6808 40.2254 34.5284 43.7382 34.5284C47.251 34.5284 50.0987 31.6808 50.0987 28.1679H53.7333C54.2348 28.1679 54.6419 27.7609 54.6419 27.2593V25.0931C54.6447 23.7229 54.3339 22.3707 53.7333 21.1396V16.3556H53.7332ZM51.9159 17.2642V18.5255C51.4897 18.073 51.0318 17.6514 50.5457 17.2642H51.9159ZM28.2911 10.9037C28.2911 10.4022 28.6982 9.99508 29.1997 9.99508H45.5554C46.0569 9.99508 46.464 10.4022 46.464 10.9037V11.8124H28.2911V10.9037ZM11.5883 1.81719H14.6613C15.1629 1.81719 15.57 2.22428 15.57 2.72584C15.57 3.22739 15.1629 3.63448 14.6613 3.63448H12.497L11.5883 1.81719ZM7.39219 32.7112C4.88708 32.7148 2.85256 30.6876 2.84898 28.1825C2.84714 27.1939 3.16886 26.2316 3.76488 25.442H5.12058C5.57215 25.4484 6.02197 25.5065 6.46085 25.6164C5.04606 26.1308 4.31551 27.6945 4.83075 29.1093C5.34508 30.5241 6.90883 31.2546 8.32363 30.7394C9.40494 30.3468 10.1227 29.3174 10.1182 28.167C10.1145 27.909 10.0736 27.6536 9.99737 27.4074C10.131 27.4684 10.2663 27.5264 10.4045 27.5837C10.5199 27.6291 10.637 27.6746 10.7543 27.7099C10.9597 27.7799 11.1677 27.8399 11.3795 27.8917C11.4985 27.9217 11.6175 27.9517 11.7429 27.9763C11.8083 27.9899 11.871 28.0108 11.9364 28.0217C11.9364 28.0698 11.9364 28.1125 11.9364 28.1643C11.9346 30.6749 9.9019 32.7094 7.39219 32.7112ZM6.48355 28.1679C6.48355 27.6664 6.89064 27.2593 7.39219 27.2593C7.89375 27.2593 8.30084 27.6664 8.30084 28.1679C8.30084 28.6695 7.89375 29.0766 7.39219 29.0766C6.89064 29.0766 6.48355 28.6704 6.48355 28.1679ZM13.7527 26.3507H13.2984C13.2102 26.3488 13.1212 26.3416 13.034 26.3298L12.8277 26.3098C11.7164 26.228 10.6506 25.8327 9.75468 25.1694C8.41625 24.1698 6.79066 23.6283 5.12058 23.6246H2.05575C2.47194 22.0209 3.91843 20.9005 5.57491 20.8987H9.20948C11.7173 20.9015 13.7499 22.9341 13.7527 25.4419V26.3507ZM30.9053 29.9852H21.1337C19.7971 29.9861 18.5531 29.3001 17.8417 28.1679H34.1974C33.4858 29.3002 32.2419 29.9871 30.9053 29.9852ZM43.7381 32.7112C41.2302 32.7084 39.1976 30.6758 39.1949 28.1679H41.0122C41.0122 29.6735 42.2325 30.8939 43.7381 30.8939C45.2437 30.8939 46.464 29.6735 46.464 28.1679H48.2813C48.2786 30.6758 46.246 32.7085 43.7381 32.7112ZM42.8295 28.1679H44.6468C44.6468 28.6695 44.2397 29.0766 43.7381 29.0766C43.2365 29.0766 42.8295 28.6704 42.8295 28.1679ZM52.8245 26.3507H15.5701V25.442C15.5664 21.931 12.7205 19.0851 9.20957 19.0815H8.30093V17.9739L8.93701 17.8149C10.6971 17.3751 12.0273 15.9304 12.3199 14.1404L13.5838 5.75088C14.8868 6.30151 15.6882 7.62726 15.5701 9.03745L14.6669 17.1644C14.6451 17.3552 14.685 17.5488 14.7814 17.7151L17.8926 23.1606C18.3787 24.0083 19.281 24.5317 20.2587 24.5336H29.654C32.4145 24.5336 34.6516 22.2965 34.6516 19.536C34.6516 16.7755 32.4145 14.5385 29.654 14.5385H29.2252C29.1053 14.5312 28.6091 14.4476 28.392 13.6298H46.464V15.4471H37.3776V17.2644H47.1691C48.0614 17.6987 52.8245 20.2402 52.8245 25.0933V26.3507Z" fill="#B6CDEE"/>
</svg>
