<svg width="34" height="22" viewBox="0 0 34 22" fill="none" xmlns="http://www.w3.org/2000/svg">
<path d="M27.1998 20.9666C29.0775 20.9666 30.5998 19.4444 30.5998 17.5666C30.5998 15.6889 29.0775 14.1667 27.1998 14.1667C25.322 14.1667 23.7998 15.6889 23.7998 17.5666C23.7998 19.4444 25.322 20.9666 27.1998 20.9666Z" fill="#0072FF"/>
<path d="M27.2002 18.6999C27.8261 18.6999 28.3336 18.1925 28.3336 17.5666C28.3336 16.9407 27.8261 16.4333 27.2002 16.4333C26.5743 16.4333 26.0669 16.9407 26.0669 17.5666C26.0669 18.1925 26.5743 18.6999 27.2002 18.6999Z" fill="#D0D7DF"/>
<path d="M4.53377 20.9666C6.41153 20.9666 7.93375 19.4444 7.93375 17.5666C7.93375 15.6889 6.41153 14.1667 4.53377 14.1667C2.65601 14.1667 1.13379 15.6889 1.13379 17.5666C1.13379 19.4444 2.65601 20.9666 4.53377 20.9666Z" fill="#0072FF"/>
<path d="M9.06721 2.83327H7.36721L6.23389 0.56662H9.06721C9.69335 0.56662 10.2005 1.0738 10.2005 1.69995C10.2005 2.32615 9.69335 2.83327 9.06721 2.83327Z" fill="#0072FF"/>
<path d="M32.8668 13.3286V10.2H29.4668C30.8959 10.8669 32.0837 11.9595 32.8668 13.3286Z" fill="#0072FF"/>
<path d="M12.4671 2.26663H10.2005C9.88766 2.26663 9.63379 2.01275 9.63379 1.69996C9.63379 1.38718 9.88766 1.1333 10.2005 1.1333H12.4671V2.26663Z" fill="#697B8C"/>
<path d="M33.4332 15.6489C33.4332 11.8999 29.4665 10.1999 29.4665 10.1999V7.93323H16.9999C16.9999 9.63322 18.1332 9.63322 18.1332 9.63322H18.4165C19.8247 9.63322 20.9665 10.775 20.9665 12.1832C20.9665 13.5914 19.8247 14.7332 18.4165 14.7332H12.5578C12.1509 14.7332 11.7752 14.515 11.5735 14.162L9.63318 10.7665L10.1998 5.66657C10.2939 4.27713 9.30961 3.04632 7.93319 2.83325L7.04411 8.73393C6.89562 9.62416 6.23377 10.3415 5.35827 10.5603L4.5332 10.7665V12.4665H5.66653C7.54446 12.4665 9.06651 13.9886 9.06651 15.8665V16.9998H33.4331V15.6489H33.4332Z" fill="white"/>
<path d="M5.66735 12.4666H3.4007C1.83613 12.4666 0.567383 13.7354 0.567383 15.2999H3.11737C4.03705 15.2999 4.9318 15.598 5.66735 16.1499C6.31167 16.6277 7.07777 16.9126 7.87733 16.9727C7.99069 16.9818 8.10399 16.9999 8.21734 16.9999H9.06734V15.8666C9.06739 13.9892 7.54529 12.4666 5.66735 12.4666Z" fill="white"/>
<path d="M18.1338 5.66669H28.3338C28.96 5.66669 29.4671 6.17386 29.4671 6.80001V7.93334H17.0005V6.80001C17.0005 6.17438 17.5077 5.66669 18.1338 5.66669Z" fill="#0072FF"/>
<path d="M10.2002 16.9999C10.5334 18.3321 11.7302 19.2665 13.1032 19.2665H19.1971C20.5702 19.2665 21.7669 18.3321 22.1001 16.9999H10.2002Z" fill="white"/>
<path d="M29.4672 9.63327H23.2339V10.7666H29.4672V9.63327Z" fill="#61BDC7"/>
<path d="M4.53274 18.6999C5.15866 18.6999 5.66607 18.1925 5.66607 17.5666C5.66607 16.9407 5.15866 16.4333 4.53274 16.4333C3.90682 16.4333 3.39941 16.9407 3.39941 17.5666C3.39941 18.1925 3.90682 18.6999 4.53274 18.6999Z" fill="white"/>
<path d="M30.5494 16.9999H28.1768C28.3859 17.3489 28.3859 17.7841 28.1768 18.1332H30.5494C30.6173 17.7586 30.6173 17.375 30.5494 16.9999Z" fill="white"/>
<path d="M26.0655 17.5665C26.0666 17.3671 26.121 17.1716 26.2225 16.9999H23.8498C23.7818 17.3744 23.7818 17.7586 23.8498 18.1332H26.2225C26.1211 17.9615 26.0666 17.766 26.0655 17.5665Z" fill="white"/>
<path d="M26.0669 17.5665C26.068 17.766 26.1224 17.9615 26.2239 18.1332H28.1766C28.3857 17.7841 28.3857 17.3489 28.1766 16.9999H26.2239C26.1225 17.1716 26.068 17.3671 26.0669 17.5665Z" fill="white"/>
<path d="M33.4333 10.1999C33.4333 9.88716 33.1794 9.63328 32.8666 9.63328H30.0333V6.79996C30.0333 5.86103 29.2722 5.09997 28.3333 5.09997H18.1333C17.1944 5.09997 16.4333 5.86103 16.4333 6.79996V7.93329C16.4333 9.72624 17.5451 10.1999 18.1333 10.1999H18.4166C19.512 10.1999 20.3999 11.0879 20.3999 12.1833C20.3999 13.2787 19.512 14.1666 18.4166 14.1666H12.5573C12.3544 14.1672 12.1669 14.0589 12.0654 13.8833L10.217 10.6459L10.7632 5.72899C10.7655 5.70859 10.7666 5.68761 10.7666 5.66664C10.808 4.7532 10.4674 3.86406 9.82595 3.21241C10.2158 3.01636 10.5156 2.67807 10.6624 2.26665H12.4666V1.13333H10.6624C10.4232 0.456747 9.78457 0.0028081 9.06662 0H6.2333C5.92051 0 5.66664 0.253302 5.66664 0.566664C5.66664 0.654517 5.68704 0.74174 5.72612 0.819966L6.85945 3.08662C6.9422 3.24812 7.09745 3.35975 7.27654 3.38755L6.48322 8.64053C6.37216 9.30806 5.87575 9.84641 5.219 10.0107L4.39394 10.217C4.14235 10.281 3.96665 10.5071 3.96665 10.7666V11.8999H3.39998C1.52319 11.9017 0.00171925 13.4231 0 15.2999C0 15.6127 0.253875 15.8666 0.566664 15.8666H0.953723C0.00968512 17.8437 0.847187 20.2112 2.82426 21.1553C4.80134 22.0993 7.16891 21.2618 8.11295 19.2847C8.36906 18.7481 8.5011 18.161 8.50001 17.5666H9.79713C10.3253 18.9322 11.6388 19.8327 13.1031 19.8332H19.197C20.6613 19.8327 21.9748 18.9322 22.5029 17.5666H23.2334C23.2334 19.7573 25.0093 21.5332 27.2 21.5332C29.3907 21.5332 31.1667 19.7573 31.1667 17.5666H33.4333C33.7461 17.5666 34 17.3127 34 16.9999V15.649C34.0017 14.7945 33.8079 13.9512 33.4333 13.1834V10.1999H33.4333ZM32.2999 10.7666V11.5532C32.0341 11.271 31.7486 11.0081 31.4454 10.7666H32.2999ZM17.5666 6.79996C17.5666 6.48718 17.8205 6.2333 18.1333 6.2333H28.3333C28.6461 6.2333 28.9 6.48718 28.9 6.79996V7.36663H17.5666V6.79996ZM7.15017 1.13327H9.06662C9.37941 1.13327 9.63328 1.38715 9.63328 1.69993C9.63328 2.01272 9.37941 2.2666 9.06662 2.2666H7.71684L7.15017 1.13327ZM4.53331 20.3999C2.97103 20.4022 1.70223 19.1379 1.69999 17.5756C1.69884 16.9591 1.89948 16.359 2.27118 15.8666H3.11665C3.39826 15.8705 3.67879 15.9068 3.95249 15.9754C3.07017 16.2961 2.61457 17.2713 2.9359 18.1536C3.25665 19.036 4.23187 19.4916 5.11418 19.1702C5.78853 18.9254 6.23617 18.2834 6.23336 17.566C6.23106 17.4051 6.20556 17.2458 6.158 17.0923C6.24132 17.1303 6.32574 17.1665 6.41187 17.2022C6.48385 17.2305 6.55692 17.2589 6.63004 17.281C6.75813 17.3246 6.88787 17.362 7.01991 17.3943C7.09413 17.413 7.1684 17.4317 7.24657 17.447C7.28737 17.4555 7.32645 17.4686 7.36726 17.4753C7.36726 17.5054 7.36726 17.532 7.36726 17.5643C7.36611 19.13 6.09845 20.3988 4.53331 20.3999ZM3.96665 17.5666C3.96665 17.2538 4.22052 16.9999 4.53331 16.9999C4.8461 16.9999 5.09997 17.2538 5.09997 17.5666C5.09997 17.8794 4.8461 18.1332 4.53331 18.1332C4.22052 18.1332 3.96665 17.8799 3.96665 17.5666ZM8.49995 16.4332H8.21662C8.16166 16.4321 8.10613 16.4276 8.05175 16.4202L7.92309 16.4077C7.23006 16.3567 6.56534 16.1103 6.00665 15.6966C5.17195 15.0732 4.15817 14.7355 3.11665 14.7332H1.20531C1.46486 13.7331 2.36694 13.0344 3.39998 13.0332H5.66664C7.23063 13.0349 8.49823 14.3025 8.49995 15.8665V16.4332ZM19.1969 18.6999H13.103C12.2695 18.7005 11.4937 18.2726 11.05 17.5666H21.25C20.8063 18.2727 20.0305 18.701 19.1969 18.6999ZM27.2 20.3999C25.636 20.3982 24.3683 19.1306 24.3666 17.5666H25.5C25.5 18.5055 26.261 19.2666 27.2 19.2666C28.1389 19.2666 28.9 18.5055 28.9 17.5666H30.0333C30.0316 19.1306 28.764 20.3982 27.2 20.3999ZM26.6333 17.5666H27.7666C27.7666 17.8794 27.5128 18.1332 27.2 18.1332C26.8871 18.1332 26.6333 17.8799 26.6333 17.5666ZM32.8666 16.4332H9.63334V15.8666C9.63105 13.677 7.85627 11.9022 5.66669 11.8999H5.10003V11.2092L5.49672 11.1101C6.59434 10.8358 7.42393 9.93478 7.6064 8.81847L8.39462 3.58646C9.20719 3.92985 9.70704 4.75664 9.63334 5.63609L9.07006 10.7044C9.05647 10.8233 9.0814 10.9441 9.14146 11.0478L11.0817 14.4438C11.3849 14.9725 11.9476 15.2989 12.5573 15.3H18.4166C20.1382 15.3 21.5333 13.9049 21.5333 12.1834C21.5333 10.4618 20.1382 9.06673 18.4166 9.06673H18.1492C18.0744 9.06221 17.765 9.01006 17.6296 8.50007H28.9V9.6334H23.2333V10.7667H29.3397C29.8961 11.0376 32.8666 12.6225 32.8666 15.6491V16.4332Z" fill="#0072FF"/>
</svg>
