<svg width="25" height="25" viewBox="0 0 25 25" fill="none" xmlns="http://www.w3.org/2000/svg">
<path d="M23.9089 3.00393C23.7474 2.9656 23.5777 3.01538 23.461 3.13554L21.4769 5.17583H20.5256L19.4785 4.069V3.085L21.4342 1.05996C21.55 0.940179 21.5971 0.767946 21.5588 0.604104C21.5206 0.440454 21.4025 0.308465 21.2462 0.254678C20.7549 0.0856864 20.2407 4.63241e-05 19.7178 4.63241e-05C18.159 4.63241e-05 16.7428 0.741624 15.8324 2.03462C14.9802 3.24502 14.7176 4.72837 15.0939 6.14801L11.5685 9.7447L5.69517 3.73883V2.56009C5.69517 2.38862 5.60693 2.22955 5.46279 2.14143L2.07874 0.0696646C1.89029 -0.0457301 1.64931 -0.0154032 1.49413 0.143098L0.140589 1.52383C-0.0145824 1.68233 -0.044308 1.92819 0.068612 2.12045L2.09893 5.57294C2.1853 5.72 2.34103 5.80984 2.50911 5.81003L3.66411 5.81041L9.538 11.8163L6.02608 15.3992C4.63458 15.0155 3.1799 15.2838 1.99293 16.1538C0.726315 17.0821 0 18.5265 0 20.1169C0 20.6502 0.0839422 21.1749 0.249583 21.6759C0.302491 21.8363 0.433172 21.9575 0.5947 21.9956C0.756415 22.034 0.925982 21.9842 1.04283 21.864L3.02678 19.8239H3.98324L5.07299 20.9357V21.9115L3.07333 23.9356C2.95555 24.0548 2.90676 24.2278 2.94433 24.3928C2.98172 24.5576 3.10044 24.6909 3.25767 24.7449C3.7488 24.9139 4.2631 24.9995 4.78583 24.9995C6.34465 24.9995 7.76026 24.2583 8.67035 22.9661C9.52305 21.7551 9.78609 20.2712 9.40994 18.8515L12.2305 15.9739L12.8766 16.6899L12.5801 16.9923C12.3932 17.183 12.3932 17.4922 12.5801 17.6829C12.7671 17.8734 13.0699 17.8734 13.2571 17.6829L13.5255 17.409L19.5877 24.1271C19.5922 24.132 19.5969 24.1368 19.6015 24.1416C20.7233 25.286 22.5406 25.2864 23.6629 24.1414C24.782 22.9991 24.782 21.1404 23.6629 19.998C23.6581 19.9931 23.653 19.9883 23.648 19.9835L17.0528 13.8106L17.3183 13.5398C17.5052 13.3492 17.5052 13.04 17.3183 12.8493C17.1313 12.6586 16.8284 12.6586 16.6413 12.8493L16.3469 13.1499L15.6437 12.4915L18.4779 9.59993C18.8808 9.7098 19.2966 9.76549 19.7178 9.76549C22.3569 9.76549 24.5036 7.57509 24.5036 4.88286C24.5036 4.34938 24.4197 3.82486 24.2541 3.3236C24.2012 3.1632 24.0705 3.04208 23.9089 3.00393ZM4.20141 4.97728C4.11167 4.88553 3.98997 4.8388 3.86284 4.8388L2.78038 4.83842L1.08171 1.94497L1.90674 1.10326L4.73797 2.83666V3.94101C4.73797 4.07033 4.78826 4.19431 4.87781 4.28586L10.8917 10.4354L10.2148 11.1258L4.20141 4.97728ZM16.3753 14.5018L22.9929 20.6956C23.7321 21.4577 23.7298 22.6918 22.986 23.4511C22.2404 24.2118 21.0334 24.2141 20.2848 23.4578L14.2029 16.7178L16.3753 14.5018ZM15.6693 13.8409L13.554 15.9987L12.9078 15.2827L14.9662 13.1825L15.6693 13.8409ZM19.7178 8.78893C19.2992 8.78893 18.8876 8.72045 18.4946 8.58541C18.3224 8.52647 18.1321 8.57187 18.0035 8.7029C15.6041 11.1508 10.4341 16.4252 8.53032 18.3676C8.4017 18.4989 8.35702 18.693 8.41516 18.8689C8.813 20.0741 8.62268 21.3597 7.89281 22.3963C7.165 23.4299 6.03243 24.0229 4.78583 24.0229C4.6458 24.0229 4.50652 24.0151 4.36855 24L5.88867 22.4612C5.97915 22.3696 6.03019 22.2449 6.03019 22.1146V20.7333C6.03019 20.6038 5.97971 20.4797 5.88998 20.3881L4.51979 18.9902C4.43005 18.8986 4.30835 18.8471 4.18141 18.8471H2.82749C2.6998 18.8471 2.57753 18.8992 2.48761 18.9915L0.97945 20.5424C0.964494 20.4016 0.957016 20.2595 0.957016 20.1167C0.957016 18.8447 1.53807 17.6894 2.55136 16.9469C3.56726 16.2022 4.82752 16.0079 6.00907 16.4139C6.18125 16.4733 6.37157 16.4277 6.50019 16.2964C6.52655 16.2697 15.9666 6.63858 15.9733 6.63171C16.1019 6.50049 16.1464 6.30651 16.0885 6.13065C15.6905 4.9254 15.8804 3.64022 16.6097 2.60434C17.3381 1.5698 18.4708 0.97661 19.7176 0.97661C19.862 0.97661 20.0054 0.984811 20.1474 1.00083L18.6589 2.54216C18.5707 2.63353 18.5213 2.75655 18.5213 2.88472V4.26603C18.5213 4.39267 18.5694 4.51417 18.6555 4.60515L19.9779 6.00305C20.068 6.09842 20.1923 6.15221 20.3222 6.15221H21.6762C21.8037 6.15221 21.9259 6.10033 22.0159 6.00782L23.524 4.45714C23.539 4.59791 23.5464 4.74 23.5464 4.88286C23.5464 7.03664 21.8289 8.78893 19.7178 8.78893Z" fill="#BDBDBD"/>
</svg>
