<svg width="32" height="31" viewBox="0 0 32 31" fill="none" xmlns="http://www.w3.org/2000/svg">
<path d="M29.0736 5.06843e-10H2.92706C2.15076 5.06843e-10 1.40625 0.298742 0.857317 0.830507C0.308386 1.36227 0 2.0835 0 2.83553L0 26.9801C2.36947 24.7171 6.31652 20.9582 8.20214 19.1631C8.5045 18.8626 8.7276 18.4959 8.8525 18.0941C8.9774 17.6923 9.00043 17.2672 8.91963 16.855C8.70722 15.5556 8.87234 14.2246 9.3965 13.011C9.92066 11.7974 10.7832 10.7491 11.8875 9.9834C12.9918 9.21771 14.2942 8.76488 15.6491 8.67561C17.004 8.58634 18.3578 8.86415 19.559 9.47794L14.5645 14.1561L17.5658 17.1629L22.5603 12.4847C23.1531 13.6683 23.3942 14.9884 23.2566 16.2972C23.119 17.606 22.6081 18.8518 21.781 19.8953C20.954 20.9387 19.8435 21.7386 18.5738 22.2054C17.3041 22.6722 15.9254 22.7874 14.592 22.5382C14.1246 22.4622 13.6451 22.496 13.194 22.6367C12.7429 22.7775 12.3332 23.0211 11.9995 23.3472L3.82988 31H29.0729C29.8492 31 30.5938 30.7013 31.1427 30.1695C31.6916 29.6377 32 28.9165 32 28.1645V2.83554C32.0001 2.4632 31.9245 2.09449 31.7775 1.75047C31.6304 1.40645 31.4149 1.09385 31.1431 0.830535C30.8714 0.567221 30.5488 0.358346 30.1937 0.215841C29.8386 0.0733364 29.458 -7.04005e-06 29.0736 5.06843e-10V5.06843e-10Z" fill="white"/>
</svg>
