<svg width="25" height="25" viewBox="0 0 25 25" fill="none" xmlns="http://www.w3.org/2000/svg">
<path id="Vector" d="M21.5988 3.40166C19.4052 1.20806 16.4887 0 13.3865 0C10.2959 0 7.31532 1.24697 5.14384 3.4334C4.79784 3.252 4.44174 3.16186 4.0726 3.16186C2.96215 3.16186 2.06098 3.97695 1.26591 4.69609C1.12626 4.82241 0.99428 4.94175 0.865911 5.05225C0.384661 5.45737 0.0917902 6.14033 0.0189386 7.02749C-0.0891668 8.34409 0.28515 10.0854 1.07284 11.9306C1.96074 14.0104 3.35131 16.1837 5.09233 18.2134C9.06401 22.9016 13.3131 25 15.7621 25C16.4722 25 17.0367 24.829 17.4397 24.4917L17.4456 24.4867C17.5812 24.3695 17.726 24.2508 17.8793 24.125C18.7818 23.3849 19.8047 22.546 19.8501 21.3186C19.8509 21.2995 19.851 21.2803 19.8513 21.2612C21.3902 20.2294 22.6704 18.8342 23.5637 17.2093C24.5036 15.4998 25.0004 13.5649 25.0004 11.6141C25.0004 8.51182 23.7924 5.59526 21.5988 3.40166ZM5.87538 5.48228C6.68896 6.66504 7.0164 7.53081 6.87631 8.129C6.82734 8.33813 6.7203 8.52749 6.57104 8.71162C5.83691 7.3043 4.62626 5.39292 3.65395 4.20679C3.79365 4.16304 3.93349 4.13853 4.0726 4.13853C4.65585 4.13853 5.26235 4.59058 5.87538 5.48228ZM17.26 23.3699C17.103 23.4987 16.9545 23.6205 16.8105 23.7448C16.5908 23.9271 16.2284 24.0234 15.7621 24.0234C13.6104 24.0234 9.58676 22.0077 5.83554 17.5799C4.15658 15.6226 2.82026 13.5365 1.97099 11.5472C1.24452 9.84541 0.896917 8.26865 0.992278 7.10747C1.04267 6.49356 1.22153 6.02871 1.49584 5.79853L1.50053 5.79458C1.63881 5.67559 1.77587 5.55161 1.92094 5.42041C2.19579 5.17183 2.48583 4.90957 2.78344 4.68745C3.77509 5.85532 5.12577 8.00283 5.83207 9.41147C5.76781 9.4646 5.70209 9.51846 5.63447 9.57383C5.56904 9.62739 5.50278 9.68164 5.43583 9.73691L5.42651 9.74487C4.7914 10.2969 4.83368 11.2412 5.55224 12.5516C6.02543 13.4146 6.79526 14.4692 7.90688 15.777C10.0913 18.3281 11.6081 19.5163 12.6805 19.5163C13.006 19.5163 13.3026 19.4078 13.5365 19.204C13.5456 19.1961 13.5543 19.1884 13.5635 19.1805C14.8805 19.9551 16.8121 21.5172 17.9089 22.8205C17.7025 23.0069 17.4803 23.1893 17.26 23.3699ZM18.8742 21.2824C18.8636 21.5682 18.7504 21.8372 18.5737 22.0946C17.4587 20.8018 15.6867 19.3556 14.3468 18.5144C14.7093 18.2343 15.0486 18.0484 15.4296 18.0484C16.0325 18.0484 16.8156 18.504 17.8233 19.4408C18.5406 20.1245 18.8942 20.7441 18.8742 21.2824ZM19.6264 20.2291C19.409 19.7409 19.0336 19.2448 18.4948 18.7316L18.4906 18.7277C17.2759 17.5979 16.3032 17.0718 15.4295 17.0718C14.4887 17.0718 13.8276 17.6512 13.1277 18.2646C13.0525 18.3305 12.9762 18.3975 12.8966 18.4662C12.8375 18.5176 12.7728 18.5396 12.6804 18.5396C12.2613 18.5396 11.1802 18.0982 8.64985 15.1431C7.58276 13.8876 6.8496 12.8864 6.40859 12.0821C5.96972 11.2817 5.84115 10.6855 6.06381 10.485C6.12753 10.4323 6.19071 10.3807 6.25302 10.3296C6.42548 10.1885 6.59555 10.0492 6.75712 9.90693C6.76059 9.90386 6.7642 9.90098 6.76757 9.89785C7.26352 9.45977 7.67724 8.99219 7.82719 8.35166C8.0392 7.44609 7.68539 6.39043 6.68002 4.92891C6.43505 4.57256 6.18686 4.27153 5.93422 4.02407C7.91435 2.08159 10.6018 0.976562 13.3865 0.976562C19.2519 0.976562 24.0239 5.74849 24.0239 11.614C24.0239 15.0572 22.3916 18.2311 19.6264 20.2291Z" fill="#BDBDBD"/>
</svg>
