<svg width="25" height="25" viewBox="0 0 25 25" fill="none" xmlns="http://www.w3.org/2000/svg">
<path d="M6.27717 5.20552C7.9928 7.69961 7.48289 8.61787 6.43606 9.53897C6.22356 9.72598 5.98899 9.91304 5.74636 10.1134C4.7759 10.9569 6.49607 13.3637 8.27732 15.4594C10.1224 17.6142 12.2474 19.679 13.2169 18.8344C13.314 18.7505 13.4087 18.6673 13.5016 18.5859C14.7253 17.5144 15.6577 16.7604 18.1575 19.0853C18.9256 19.8168 19.2738 20.4492 19.3476 21.0077C22.5634 18.9668 24.5117 15.4228 24.5117 11.6141C24.5116 5.46948 19.5305 0.488281 13.386 0.488281C10.2857 0.488281 7.32605 1.78188 5.22034 4.05732C5.56101 4.30435 5.91326 4.67617 6.27717 5.20552ZM14.386 12.4517V9.63081C14.386 9.04702 14.8636 8.56939 15.4475 8.56939C16.0313 8.56939 16.5089 9.04702 16.5089 9.63081V12.4517C16.5089 13.0355 16.0313 13.5131 15.4474 13.5131C14.8636 13.5131 14.386 13.0355 14.386 12.4517Z" fill="white"/>
<path d="M14.386 9.63082V12.4517C14.386 13.0355 14.8637 13.5131 15.4475 13.5131C16.0313 13.5131 16.5089 13.0355 16.5089 12.4517V9.63082C16.5089 9.04703 16.0313 8.5694 15.4475 8.5694C14.8637 8.5694 14.386 9.04703 14.386 9.63082Z" fill="white"/>
<path d="M6.43606 9.539C7.48288 8.61786 7.9928 7.6996 6.27717 5.20551C5.91326 4.67611 5.56101 4.30429 5.22034 4.05727C4.36204 3.43495 3.57678 3.60458 2.86169 4.04228C3.99724 5.24003 5.72244 8.00468 6.43606 9.539Z" fill="white"/>
<path d="M18.1575 19.0853C15.6577 16.7604 14.7252 17.5143 13.5016 18.5859C14.9698 19.3692 17.4361 21.3581 18.5669 22.8625C19.0771 22.3322 19.4432 21.7322 19.3475 21.0077C19.2738 20.4492 18.9256 19.8168 18.1575 19.0853Z" fill="white"/>
<path d="M18.567 22.8625C17.4361 21.3582 14.9698 19.3692 13.5016 18.5859C13.4087 18.6673 13.314 18.7505 13.2169 18.8344C12.2474 19.679 10.1224 17.6143 8.27733 15.4594C6.49608 13.3637 4.77591 10.957 5.74637 10.1134C5.989 9.91305 6.22357 9.72599 6.43607 9.53902C5.72245 8.0047 3.99725 5.24005 2.8617 4.0423C2.25106 4.41617 1.69163 4.98561 1.18162 5.42438C-0.381803 6.7358 0.555843 12.1755 5.46439 17.8978C10.3097 23.6171 15.5941 25.3989 17.1259 24.1172C17.5771 23.7275 18.1259 23.321 18.567 22.8625Z" fill="white"/>
<path d="M21.5988 3.40166C19.4052 1.20806 16.4887 0 13.3865 0C10.2959 0 7.31532 1.24697 5.14384 3.4334C4.79784 3.252 4.44174 3.16186 4.0726 3.16186C2.96215 3.16186 2.06098 3.97695 1.26591 4.69609C1.12626 4.82241 0.99428 4.94175 0.865911 5.05225C0.384661 5.45737 0.0917902 6.14033 0.0189386 7.02749C-0.0891668 8.34409 0.28515 10.0854 1.07284 11.9306C1.96074 14.0104 3.35131 16.1837 5.09233 18.2134C9.06401 22.9016 13.3131 25 15.7621 25C16.4722 25 17.0367 24.829 17.4397 24.4917L17.4456 24.4867C17.5812 24.3695 17.726 24.2508 17.8793 24.125C18.7818 23.3849 19.8047 22.546 19.8501 21.3186C19.8509 21.2995 19.851 21.2803 19.8513 21.2612C21.3902 20.2294 22.6704 18.8342 23.5637 17.2093C24.5036 15.4998 25.0004 13.5649 25.0004 11.6141C25.0004 8.51182 23.7924 5.59526 21.5988 3.40166ZM5.87538 5.48228C6.68896 6.66504 7.0164 7.53081 6.87631 8.129C6.82734 8.33813 6.7203 8.52749 6.57104 8.71162C5.83691 7.3043 4.62626 5.39292 3.65395 4.20679C3.79365 4.16304 3.93349 4.13853 4.0726 4.13853C4.65585 4.13853 5.26235 4.59058 5.87538 5.48228ZM17.26 23.3699C17.103 23.4987 16.9545 23.6205 16.8105 23.7448C16.5908 23.9271 16.2284 24.0234 15.7621 24.0234C13.6104 24.0234 9.58676 22.0077 5.83554 17.5799C4.15658 15.6226 2.82026 13.5365 1.97099 11.5472C1.24452 9.84541 0.896917 8.26865 0.992278 7.10747C1.04267 6.49356 1.22153 6.02871 1.49584 5.79853L1.50053 5.79458C1.63881 5.67559 1.77587 5.55161 1.92094 5.42041C2.19579 5.17183 2.48583 4.90957 2.78344 4.68745C3.77509 5.85532 5.12577 8.00283 5.83207 9.41147C5.76781 9.4646 5.70209 9.51846 5.63447 9.57383C5.56904 9.62739 5.50278 9.68164 5.43583 9.73691L5.42651 9.74487C4.7914 10.2969 4.83368 11.2412 5.55224 12.5516C6.02543 13.4146 6.79526 14.4692 7.90688 15.777C10.0913 18.3281 11.6081 19.5163 12.6805 19.5163C13.006 19.5163 13.3026 19.4078 13.5365 19.204C13.5456 19.1961 13.5543 19.1884 13.5635 19.1805C14.8805 19.9551 16.8121 21.5172 17.9089 22.8205C17.7025 23.0069 17.4803 23.1893 17.26 23.3699ZM18.8742 21.2824C18.8636 21.5682 18.7504 21.8372 18.5737 22.0946C17.4587 20.8018 15.6867 19.3556 14.3468 18.5144C14.7093 18.2343 15.0486 18.0484 15.4296 18.0484C16.0325 18.0484 16.8156 18.504 17.8233 19.4408C18.5406 20.1245 18.8942 20.7441 18.8742 21.2824ZM19.6264 20.2291C19.409 19.7409 19.0336 19.2448 18.4948 18.7316L18.4906 18.7277C17.2759 17.5979 16.3032 17.0718 15.4295 17.0718C14.4887 17.0718 13.8276 17.6512 13.1277 18.2646C13.0525 18.3305 12.9762 18.3975 12.8966 18.4662C12.8375 18.5176 12.7728 18.5396 12.6804 18.5396C12.2613 18.5396 11.1802 18.0982 8.64985 15.1431C7.58276 13.8876 6.8496 12.8864 6.40859 12.0821C5.96972 11.2817 5.84115 10.6855 6.06381 10.485C6.12753 10.4323 6.19071 10.3807 6.25302 10.3296C6.42548 10.1885 6.59555 10.0492 6.75712 9.90693C6.76059 9.90386 6.7642 9.90098 6.76757 9.89785C7.26352 9.45977 7.67724 8.99219 7.82719 8.35166C8.0392 7.44609 7.68539 6.39043 6.68002 4.92891C6.43505 4.57256 6.18686 4.27153 5.93422 4.02407C7.91435 2.08159 10.6018 0.976562 13.3865 0.976562C19.2519 0.976562 24.0239 5.74849 24.0239 11.614C24.0239 15.0572 22.3916 18.2311 19.6264 20.2291Z" fill="#BDBDBD"/>
<path d="M15.4475 8.08112C14.5929 8.08112 13.8978 8.77633 13.8978 9.63082V12.4517C13.8978 13.3062 14.593 14.0014 15.4475 14.0014C16.3021 14.0014 16.9972 13.3062 16.9972 12.4517V9.63082C16.9972 8.77633 16.302 8.08112 15.4475 8.08112ZM16.0207 12.4517C16.0207 12.7678 15.7635 13.0249 15.4475 13.0249C15.1314 13.0249 14.8743 12.7677 14.8743 12.4517V9.63082C14.8743 9.31476 15.1315 9.05768 15.4475 9.05768C15.7636 9.05768 16.0207 9.31481 16.0207 9.63082V12.4517Z" fill="#BDBDBD"/>
<path d="M19.6222 10.553C19.2284 10.553 18.908 10.2326 18.908 9.83876C18.908 9.44496 19.2284 9.1246 19.6222 9.1246C19.8765 9.1246 20.1135 9.26142 20.2406 9.48168C20.3755 9.71518 20.6739 9.79526 20.9076 9.66044C21.1412 9.52563 21.2213 9.227 21.0864 8.99345C20.7854 8.47197 20.2243 8.14804 19.6222 8.14804C18.6899 8.14804 17.9315 8.90649 17.9315 9.83876C17.9315 10.771 18.6899 11.5295 19.6222 11.5295C20.016 11.5295 20.3364 11.8499 20.3364 12.2437C20.3364 12.6375 20.016 12.9579 19.6222 12.9579C19.3679 12.9579 19.1309 12.821 19.0037 12.6008C18.8689 12.3673 18.5702 12.2872 18.3367 12.4221C18.1031 12.5569 18.0231 12.8555 18.158 13.0891C18.459 13.6105 19.0201 13.9345 19.6222 13.9345C20.5545 13.9345 21.313 13.176 21.313 12.2437C21.313 11.3114 20.5545 10.553 19.6222 10.553Z" fill="#BDBDBD"/>
<path d="M11.2727 10.553C10.8789 10.553 10.5585 10.2326 10.5585 9.83876C10.5585 9.44496 10.8789 9.1246 11.2726 9.1246C11.527 9.1246 11.764 9.26142 11.8911 9.48168C12.0259 9.71518 12.3244 9.79526 12.5581 9.66044C12.7916 9.52563 12.8717 9.227 12.7369 8.99345C12.4359 8.47197 11.8748 8.14804 11.2726 8.14804C10.3404 8.14804 9.58191 8.90649 9.58191 9.83876C9.58191 10.771 10.3404 11.5295 11.2726 11.5295C11.2726 11.5295 11.2726 11.5295 11.2727 11.5295C11.6664 11.5295 11.9868 11.8499 11.9868 12.2437C11.9868 12.6375 11.6665 12.9579 11.2727 12.9579C11.0183 12.9579 10.7813 12.821 10.6541 12.6008C10.5193 12.3673 10.2207 12.2872 9.98713 12.4221C9.75359 12.5569 9.67356 12.8555 9.80842 13.0891C10.1095 13.6105 10.6705 13.9345 11.2727 13.9345C12.205 13.9345 12.9634 13.176 12.9634 12.2437C12.9634 11.3114 12.205 10.553 11.2727 10.553Z" fill="#BDBDBD"/>
</svg>
