<svg width="25" height="25" viewBox="0 0 25 25" fill="none" xmlns="http://www.w3.org/2000/svg">
<path d="M23.6938 13.4042L18.5374 12.5446L16.5792 9.60732C16.4174 9.36724 16.0939 9.30317 15.8569 9.46289C15.6179 9.62261 15.5528 9.94556 15.7125 10.1852L17.256 12.5004H5.66055L6.8166 10.766C6.98037 10.5198 7.24282 10.355 7.53579 10.3133L14.1357 9.37026C14.4206 9.32959 14.6189 9.06558 14.5783 8.78076C14.5366 8.49595 14.268 8.29961 13.9893 8.33877L7.38931 9.28179C6.80234 9.36519 6.27847 9.6958 5.9499 10.1887L4.36567 12.5651L1.18408 13.3604C0.487256 13.5344 0 14.158 0 14.8762V17.4931C0 18.107 0.239062 18.6843 0.673437 19.1186C1.10171 19.5464 1.69375 19.7921 2.29902 19.7921H3.69849C3.94048 20.9793 4.99204 21.8754 6.25 21.8754C7.50796 21.8754 8.55952 20.9793 8.80151 19.7921H15.6776C15.9196 20.9793 16.9712 21.8754 18.2291 21.8754C19.4871 21.8754 20.5387 20.9793 20.7807 19.7921H23.115C23.5127 19.7921 23.8698 19.5719 24.0478 19.2163L24.8901 17.5307C24.9084 17.4941 24.9227 17.4554 24.9318 17.4158L24.9867 17.1828C24.9959 17.1441 24.9999 17.1045 24.9999 17.0648V14.9453C25 14.1778 24.4507 13.5298 23.6938 13.4042Z" fill="#212121"/>
<path d="M6.25 20.8334C7.11295 20.8334 7.8125 20.1338 7.8125 19.2709C7.8125 18.4079 7.11295 17.7084 6.25 17.7084C5.38706 17.7084 4.6875 18.4079 4.6875 19.2709C4.6875 20.1338 5.38706 20.8334 6.25 20.8334Z" fill="white"/>
<path d="M18.2292 20.8334C19.0921 20.8334 19.7917 20.1338 19.7917 19.2709C19.7917 18.4079 19.0921 17.7084 18.2292 17.7084C17.3662 17.7084 16.6667 18.4079 16.6667 19.2709C16.6667 20.1338 17.3662 20.8334 18.2292 20.8334Z" fill="white"/>
<path d="M23.9584 17.0042L23.115 18.7503H20.7807C20.5387 17.5631 19.4872 16.667 18.2292 16.667C16.9712 16.667 15.9197 17.5631 15.6777 18.7503H8.80152C8.55953 17.5631 7.50796 16.667 6.25001 16.667C4.99205 16.667 3.94048 17.5631 3.69849 18.7503H2.29898C1.96837 18.7503 1.64385 18.6161 1.40992 18.3821C1.17291 18.1445 1.04166 17.8287 1.04166 17.493V14.8761C1.04166 14.6366 1.2044 14.4291 1.43633 14.3706L4.75157 13.542H18.1864L23.523 14.4316C23.7752 14.4733 23.9584 14.6895 23.9584 14.9454V17.0042Z" fill="white"/>
<path d="M7.81247 6.25034H9.89583C10.1837 6.25034 10.4167 6.01738 10.4167 5.72949C10.4167 5.4416 10.1837 5.20864 9.89583 5.20864H9.15071C9.85608 4.70693 10.9592 4.16704 12.5 4.16704C14.0412 4.16704 15.1444 4.70713 15.8494 5.20869H15.1041C14.8162 5.20869 14.5833 5.44165 14.5833 5.72954C14.5833 6.01743 14.8162 6.25039 15.1041 6.25039H17.1875C17.3482 6.25039 17.4998 6.17666 17.5985 6.05C17.6971 5.92388 17.7317 5.75908 17.6931 5.60342L17.1722 3.52007C17.1031 3.24082 16.8152 3.0689 16.5405 3.14116C16.2608 3.21084 16.0919 3.49365 16.1611 3.77236L16.2764 4.23354C15.4274 3.67324 14.1707 3.12534 12.5 3.12534C10.8293 3.12534 9.57253 3.67319 8.72356 4.2335L8.83889 3.77231C8.90808 3.4936 8.73918 3.21079 8.45945 3.14111C8.17561 3.06992 7.8969 3.24082 7.82771 3.52002L7.30686 5.60337C7.26819 5.75903 7.30281 5.92383 7.40149 6.04995C7.50017 6.17661 7.65173 6.25034 7.81247 6.25034Z" fill="#0072FF"/>
<path opacity="0.1" d="M7.05917 17.9412C7.20375 18.178 7.29169 18.4532 7.29169 18.7504C7.29169 19.612 6.59081 20.3129 5.72919 20.3129C5.43202 20.3129 5.15678 20.225 4.92001 20.0804C5.19467 20.5301 5.68554 20.8337 6.24999 20.8337C7.11161 20.8337 7.81249 20.1328 7.81249 19.2712C7.81249 18.7067 7.50883 18.2159 7.05917 17.9412Z" fill="white"/>
<path opacity="0.1" d="M19.0383 17.9412C19.1829 18.178 19.2708 18.4532 19.2708 18.7504C19.2708 19.612 18.57 20.3129 17.7083 20.3129C17.4112 20.3129 17.1359 20.225 16.8992 20.0804C17.1738 20.5301 17.6647 20.8337 18.2291 20.8337C19.0908 20.8337 19.7916 20.1328 19.7916 19.2712C19.7916 18.7067 19.488 18.2159 19.0383 17.9412Z" fill="white"/>
<path d="M17.251 12.5003H5.65564L6.78035 10.7583C6.97361 10.4679 7.29812 10.2945 7.64705 10.2945L13.8926 9.40503L13.1495 10.3149L13.3456 11.3035L12.7084 11.5813L14.4404 11.8672L14.6651 10.3353L15.7125 10.1851L17.251 12.5003Z" fill="#BDDDF4"/>
<path d="M17.251 12.5003H5.65564L6.78035 10.7583C6.97361 10.4679 7.29812 10.2945 7.64705 10.2945L13.8926 9.40503L13.1495 10.3149L13.3456 11.3035L12.7084 11.5813L14.4404 11.8672L14.6651 10.3353L15.7125 10.1851L17.251 12.5003Z" fill="url(#paint0_linear)"/>
<defs>
<linearGradient id="paint0_linear" x1="6.99689" y1="9.62478" x2="16.5219" y2="14.0654" gradientUnits="userSpaceOnUse">
<stop stop-color="white" stop-opacity="0.2"/>
<stop offset="1" stop-color="white" stop-opacity="0"/>
</linearGradient>
</defs>
</svg>
