<svg width="14" height="14" viewBox="0 0 14 14" fill="none" xmlns="http://www.w3.org/2000/svg">
<path d="M0.0365229 5.41319C0.128169 5.12971 0.379609 4.92836 0.677086 4.90155L4.71786 4.53464L6.31569 0.794765C6.43351 0.52068 6.70183 0.343262 6.99994 0.343262C7.29806 0.343262 7.56638 0.52068 7.68419 0.795406L9.28203 4.53464L13.3234 4.90155C13.6204 4.929 13.8712 5.12971 13.9634 5.41319C14.0555 5.69667 13.9704 6.00761 13.7458 6.20361L10.6914 8.8823L11.5921 12.8497C11.658 13.1414 11.5448 13.4429 11.3027 13.6179C11.1726 13.7119 11.0204 13.7597 10.8669 13.7597C10.7346 13.7597 10.6033 13.7241 10.4855 13.6536L6.99994 11.5704L3.51567 13.6536C3.2607 13.807 2.9393 13.793 2.69779 13.6179C2.45565 13.4424 2.34253 13.1408 2.40843 12.8497L3.30909 8.8823L0.254744 6.20415C0.0301142 6.00761 -0.0556583 5.69721 0.0365229 5.41319Z" fill="#219653"/>
</svg>
