<svg width="20" height="20" viewBox="0 0 20 20" fill="none" xmlns="http://www.w3.org/2000/svg">
<circle cx="10" cy="10" r="10" fill="#0072FF"/>
<path d="M5.02609 8.77888C5.09155 8.56758 5.27115 8.41751 5.48363 8.39753L8.3699 8.12405L9.51121 5.33653C9.59536 5.13224 9.78702 5 9.99996 5C10.2129 5 10.4046 5.13224 10.4887 5.33701L11.63 8.12405L14.5167 8.39753C14.7288 8.41799 14.908 8.56758 14.9738 8.77888C15.0397 8.99018 14.9789 9.22193 14.8184 9.36802L12.6367 11.3646L13.2801 14.3217C13.3271 14.5391 13.2463 14.7639 13.0734 14.8943C12.9805 14.9643 12.8717 15 12.7621 15C12.6676 15 12.5738 14.9734 12.4896 14.9209L9.99996 13.3682L7.51119 14.9209C7.32907 15.0352 7.0995 15.0248 6.927 14.8943C6.75403 14.7635 6.67324 14.5386 6.72031 14.3217L7.36364 11.3646L5.18196 9.36842C5.02151 9.22193 4.96024 8.99057 5.02609 8.77888Z" fill="white"/>
</svg>
