<svg width="28" height="20" viewBox="0 0 28 20" fill="none" xmlns="http://www.w3.org/2000/svg">
<path d="M0 9.60617V18.4009C0 19.284 0.718949 20 1.60568 20H4.01419C4.90092 20 5.61987 19.284 5.61987 18.4009V17.6014H21.6767V18.4009C21.6767 19.284 22.3956 20 23.2823 20H25.6908C26.5776 20 27.2965 19.284 27.2965 18.4009V9.60617C27.2965 9.3938 27.2118 9.19079 27.0613 9.04088C26.4886 8.48341 25.799 8.05983 25.0421 7.79983L26.1362 7.07292C26.5051 6.82815 26.6046 6.33157 26.3588 5.96421C26.1126 5.59685 25.614 5.49769 25.2451 5.74286L23.7351 6.74538C23.1255 4.72238 22.3823 2.62207 21.434 1.6539C21.1443 1.34705 20.8048 1.09056 20.4297 0.895369C20.3344 0.849693 20.2317 0.822366 20.1262 0.815339C20.1772 0.818462 20.2278 0.82627 20.2772 0.838372C18.1254 0.216088 15.8878 -0.0630419 13.6483 0.0119133C8.78144 0.0119133 7.04797 0.804798 6.86647 0.895369C6.49092 1.09603 6.15144 1.35759 5.86214 1.66991C5.08987 2.48621 4.31291 4.19418 3.5477 6.7364L2.051 5.74286C1.68212 5.49769 1.18387 5.59685 0.937691 5.96421C0.691508 6.33157 0.791079 6.82815 1.15996 7.07292L2.25446 7.79983C1.49748 8.05983 0.807935 8.48341 0.235207 9.04088C0.0846744 9.19079 0 9.3938 0 9.60617ZM4.01419 18.4009H1.60568V15.8157L4.01419 17.2551V18.4009ZM25.6908 18.4009H23.2823V17.2543L25.6908 15.815V18.4009ZM7.02406 2.77393C7.18243 2.59748 7.36863 2.44756 7.57562 2.33045C7.5909 2.32381 9.17071 1.61096 13.6483 1.61096C15.6942 1.52624 17.7401 1.76906 19.7088 2.33045L19.7601 2.34958C19.9542 2.4624 20.1306 2.60294 20.2834 2.76691C21.0616 3.56643 21.8193 5.93298 22.2 7.20565H5.08046C6.02129 4.08057 6.74377 3.06673 7.02406 2.77393ZM1.60568 9.95635C2.38108 9.43323 3.23958 9.0444 4.14513 8.80665H23.1514C24.0569 9.0444 24.9154 9.43323 25.6908 9.95635V13.954L22.2568 16.0023H5.0393L1.60568 13.9504V9.95635Z" fill="#BDBDBD"/>
</svg>
