<svg width="16" height="16" viewBox="0 0 16 16" fill="none" xmlns="http://www.w3.org/2000/svg">
<path d="M14.6538 6.52493C14.6534 6.52459 14.653 6.52413 14.6527 6.52379L8.53324 0.404589C8.2724 0.143638 7.92561 0 7.55673 0C7.18785 0 6.84106 0.143638 6.5801 0.404589L0.463878 6.5207C0.461818 6.52276 0.459643 6.52493 0.457698 6.52699C-0.0779401 7.06572 -0.0770245 7.9398 0.46033 8.47715C0.705831 8.72276 1.02996 8.86491 1.37664 8.87991C1.39083 8.88128 1.40502 8.88197 1.41933 8.88197H1.66311V13.3852C1.66311 14.2765 2.38828 15.0015 3.27952 15.0015H5.67364C5.91639 15.0015 6.11314 14.8047 6.11314 14.562V11.0314C6.11314 10.6247 6.44402 10.294 6.85067 10.294H8.26278C8.66943 10.294 9.0002 10.6247 9.0002 11.0314V14.562C9.0002 14.8047 9.19695 15.0015 9.4397 15.0015H11.8338C12.7252 15.0015 13.4502 14.2765 13.4502 13.3852V8.88197H13.6764C14.0452 8.88197 14.3919 8.73833 14.653 8.47726C15.1909 7.93911 15.1912 7.06343 14.6538 6.52493ZM14.0314 7.85579C13.9365 7.95067 13.8104 8.00297 13.6764 8.00297H13.0107C12.768 8.00297 12.5712 8.19972 12.5712 8.44247V13.3852C12.5712 13.7917 12.2405 14.1225 11.8338 14.1225H9.8792V11.0314C9.8792 10.1401 9.15414 9.41497 8.26278 9.41497H6.85067C5.95931 9.41497 5.23414 10.1401 5.23414 11.0314V14.1225H3.27952C2.87299 14.1225 2.54211 13.7917 2.54211 13.3852V8.44247C2.54211 8.19972 2.34536 8.00297 2.10261 8.00297H1.4484C1.44153 8.00252 1.43478 8.00217 1.4278 8.00206C1.29686 7.99977 1.17406 7.94781 1.08204 7.85567C0.886322 7.65996 0.886322 7.34144 1.08204 7.14561C1.08215 7.14561 1.08215 7.1455 1.08226 7.14538L1.08261 7.14504L7.20181 1.02607C7.29658 0.931185 7.42259 0.878995 7.55673 0.878995C7.69075 0.878995 7.81676 0.931185 7.91164 1.02607L14.0295 7.14378C14.0304 7.14469 14.0314 7.14561 14.0323 7.14653C14.227 7.34258 14.2267 7.66042 14.0314 7.85579Z" fill="#333333"/>
</svg>
