<svg width="28" height="28" viewBox="0 0 28 28" fill="none" xmlns="http://www.w3.org/2000/svg">
<path d="M23.898 4.09865C18.4299 -1.36786 9.56552 -1.36655 4.09901 4.10165C-1.3675 9.56986 -1.36618 18.4342 4.10202 23.9007C9.57022 29.3672 18.4345 29.3659 23.901 23.8977C26.5264 21.2715 28.0008 17.71 28 13.9966C27.9993 10.2839 26.5237 6.72354 23.898 4.09865ZM21.2025 19.5015C21.2019 19.5021 21.2013 19.5027 21.2007 19.5033V19.4987L20.4913 20.2033C19.5739 21.1323 18.2379 21.5145 16.968 21.2113C15.6886 20.8689 14.4723 20.3238 13.3653 19.5967C12.3369 18.9394 11.3838 18.1711 10.5233 17.3053C9.73161 16.5194 9.02034 15.6565 8.39997 14.7293C7.7214 13.7317 7.18432 12.645 6.80397 11.5C6.36794 10.1549 6.72926 8.67894 7.73732 7.68735L8.56797 6.8567C8.79891 6.62472 9.17418 6.6239 9.40611 6.85484C9.40671 6.85544 9.40736 6.85604 9.40797 6.8567L12.0306 9.47935C12.2626 9.7103 12.2634 10.0856 12.0325 10.3175C12.0319 10.3181 12.0313 10.3187 12.0306 10.3194L10.4906 11.8594C10.0487 12.2964 9.99318 12.9909 10.36 13.4927C10.917 14.2571 11.5333 14.9764 12.2033 15.6441C12.9503 16.3943 13.7623 17.0767 14.63 17.6834C15.1313 18.0331 15.8109 17.9741 16.2446 17.5434L17.7333 16.0314C17.9642 15.7994 18.3395 15.7986 18.5714 16.0295C18.572 16.0301 18.5726 16.0307 18.5733 16.0314L21.2006 18.6634C21.4327 18.8943 21.4335 19.2695 21.2025 19.5015Z" fill="#00C566"/>
</svg>
