<svg width="21" height="16" viewBox="0 0 21 16" fill="none" xmlns="http://www.w3.org/2000/svg">
<path d="M17.6925 6.69236C17.4235 6.69266 17.186 6.51733 17.108 6.26102C17.0296 6.0047 17.1294 5.72792 17.3532 5.57929L19.1834 4.36417C19.4637 4.17786 19.8426 4.25322 20.0297 4.53237C20.2165 4.81153 20.1408 5.18888 19.8605 5.37489L18.0303 6.59001C17.9302 6.65676 17.8128 6.69206 17.6925 6.69236Z" fill="#FFB74F"/>
<path d="M3.0503 6.69236C2.92995 6.69206 2.81228 6.65676 2.71219 6.59001L0.881946 5.37489C0.60163 5.18888 0.525966 4.81153 0.713042 4.53237C0.900118 4.25322 1.27874 4.17786 1.55905 4.36417L3.3893 5.57929C3.61331 5.72792 3.71281 6.0047 3.63476 6.26102C3.55672 6.51733 3.3193 6.69266 3.0503 6.69236Z" fill="#FFB74F"/>
<path d="M18.2594 5.86095C18.235 5.80014 18.1936 5.6524 18.1376 5.45067C17.6574 3.81904 17.0619 2.04471 16.291 1.25856C16.0705 1.02538 15.8126 0.830477 15.5275 0.682146C15.4554 0.64714 15.377 0.626374 15.2969 0.621331C15.3356 0.624297 15.3741 0.630231 15.4116 0.639427C13.7756 0.165067 12.0743 -0.0479354 10.3713 0.00902339C6.67354 0.00902339 5.35566 0.611541 5.21714 0.68096C4.93206 0.833443 4.67438 1.03221 4.45454 1.26894C3.80067 1.96105 3.14114 3.48707 2.4956 5.80637L2.47177 5.8918C2.40981 6.07722 2.44079 6.28102 2.55518 6.43944C2.66987 6.59786 2.85397 6.6919 3.05028 6.69219H17.6923C17.8942 6.69219 18.0831 6.59252 18.1969 6.42609C18.3104 6.25966 18.3339 6.04814 18.2594 5.86095Z" fill="white"/>
<path d="M20.4327 10.4165C20.2415 10.3085 20.0065 10.3115 19.8179 10.4242L16.7675 12.2469C16.584 12.357 16.4717 12.5545 16.4717 12.7678V13.983C16.4717 14.654 17.018 15.1981 17.6918 15.1981H19.5221C20.1959 15.1981 20.7423 14.654 20.7423 13.983V10.9452C20.7423 10.7262 20.624 10.5242 20.4327 10.4165Z" fill="white"/>
<path d="M3.97447 12.247L0.92406 10.4243C0.735793 10.3115 0.501054 10.3086 0.30951 10.4163C0.118263 10.5242 0 10.7263 0 10.9452V13.983C0 14.6541 0.546334 15.1981 1.22016 15.1981H3.05041C3.72424 15.1981 4.27058 14.6541 4.27058 13.983V12.7679C4.27058 12.5546 4.15827 12.357 3.97447 12.247Z" fill="white"/>
<path d="M20.5641 6.87029C20.1979 6.5057 19.7452 6.15386 18.1815 5.61126L18.1348 5.45077C17.6546 3.81914 17.0591 2.04481 16.2878 1.25866C16.0677 1.02548 15.8097 0.830576 15.5246 0.682246C15.4525 0.64724 15.3742 0.626474 15.2941 0.62143C15.3328 0.624397 15.3712 0.63033 15.4087 0.639527C13.7736 0.165463 12.0735 -0.0475397 10.3714 0.00912255C6.67367 0.00912255 5.35579 0.611641 5.21727 0.681059C4.93219 0.833543 4.67452 1.03231 4.45467 1.26904C3.81957 1.94098 3.1797 3.40648 2.55204 5.61423C0.99615 6.15504 0.544248 6.50629 0.178735 6.87029C0.0643446 6.98421 0 7.13847 0 7.29986V10.9452C0 11.1582 0.112305 11.3558 0.295806 11.4659L3.34622 13.2885C3.44124 13.3452 3.54968 13.3752 3.66049 13.3755H17.0823C17.1928 13.3752 17.3015 13.3452 17.3963 13.2885L20.4467 11.4659C20.6305 11.3558 20.7428 11.1582 20.7428 10.9452V7.29986C20.7428 7.13847 20.6784 6.98421 20.5641 6.87029ZM5.33703 2.10859C5.45797 1.9745 5.59947 1.86058 5.75676 1.77099C5.76837 1.76535 6.96888 1.22425 10.3714 1.22425C11.9261 1.15987 13.4808 1.34439 14.9768 1.77099L15.0158 1.78553C15.163 1.87156 15.2967 1.97836 15.4129 2.10266C16.0054 2.71022 16.5801 4.50798 16.8699 5.47569H3.86068C4.57562 3.10092 5.12463 2.33049 5.33703 2.10859Z" fill="white"/>
<path d="M6.71079 9.12261C6.71079 10.1292 5.89129 10.9453 4.88054 10.9453C3.86979 10.9453 3.05029 10.1292 3.05029 9.12261C3.05029 8.11574 3.86979 7.29993 4.88054 7.29993C5.89129 7.29993 6.71079 8.11574 6.71079 9.12261Z" fill="white"/>
<path d="M17.6922 9.12261C17.6922 10.1292 16.8727 10.9453 15.862 10.9453C14.8512 10.9453 14.0317 10.1292 14.0317 9.12261C14.0317 8.11574 14.8512 7.29993 15.862 7.29993C16.8727 7.29993 17.6922 8.11574 17.6922 9.12261Z" fill="white"/>
<path d="M7.93089 4.26211C7.68423 4.26181 7.46171 4.11378 7.36727 3.88683C7.27284 3.65989 7.32497 3.39853 7.49954 3.22498L8.10962 2.61742C8.34883 2.38691 8.72953 2.39047 8.96487 2.62484C9.2002 2.8592 9.20348 3.23803 8.97231 3.47625L8.36223 4.08381C8.24784 4.19803 8.09264 4.26181 7.93089 4.26211Z" fill="#F5F5F5"/>
<path d="M12.2014 4.26211C11.9547 4.26181 11.7322 4.11378 11.6378 3.88683C11.5433 3.65989 11.5955 3.39853 11.77 3.22498L12.3801 2.61742C12.6193 2.38691 13 2.39047 13.2354 2.62484C13.4707 2.8592 13.474 3.23803 13.2428 3.47625L12.6327 4.08381C12.5184 4.19803 12.3631 4.26181 12.2014 4.26211Z" fill="#F5F5F5"/>
<path d="M0 7.29979V13.983C0 14.654 0.546333 15.1981 1.22016 15.1981H3.05041C3.72424 15.1981 4.27058 14.654 4.27058 13.983V13.3754H16.4722V13.983C16.4722 14.654 17.0186 15.1981 17.6924 15.1981H19.5226C20.1965 15.1981 20.7428 14.654 20.7428 13.983V7.29979C20.7428 7.13841 20.6785 6.98414 20.5641 6.87022C20.1288 6.44659 19.6049 6.12472 19.0296 5.92714L19.861 5.37476C20.1414 5.18875 20.217 4.8114 20.0302 4.53224C19.8432 4.25308 19.4642 4.17773 19.1839 4.36403L18.0365 5.12586C17.5732 3.58856 17.0084 1.99253 16.2878 1.25681C16.0677 1.02363 15.8097 0.828727 15.5246 0.680396C15.4522 0.645687 15.3742 0.624921 15.2941 0.619581C15.3328 0.621954 15.3712 0.627887 15.4087 0.637084C13.7736 0.164207 12.0733 -0.0479059 10.3714 0.00905296C6.67307 0.00905296 5.3558 0.611571 5.21787 0.680396C4.93249 0.83288 4.67452 1.03164 4.45467 1.26897C3.86783 1.88929 3.2774 3.18718 2.69592 5.11904L1.55857 4.36403C1.27825 4.17773 0.899633 4.25308 0.712557 4.53224C0.525481 4.8114 0.601146 5.18875 0.881462 5.37476L1.71318 5.92714C1.13795 6.12472 0.613955 6.44659 0.178735 6.87022C0.0643446 6.98414 0 7.13841 0 7.29979ZM3.05041 13.983H1.22016V12.0185L3.05041 13.1123V13.983ZM19.5226 13.983H17.6924V13.1117L19.5226 12.0179V13.983ZM5.33762 2.10793C5.45797 1.97384 5.59947 1.85992 5.75676 1.77092C5.76838 1.76588 6.96888 1.22418 10.3714 1.22418C11.9261 1.1598 13.4808 1.34432 14.9768 1.77092L15.0158 1.78546C15.1633 1.87119 15.2973 1.97799 15.4135 2.10259C16.0048 2.71015 16.5807 4.50851 16.8699 5.47562H3.86068C4.57562 3.10085 5.12463 2.33042 5.33762 2.10793ZM1.22016 7.56589C1.80939 7.16837 2.46178 6.87289 3.14991 6.69223H17.5929C18.281 6.87289 18.9334 7.16837 19.5226 7.56589V10.6037L16.9131 12.1603H3.8294L1.22016 10.601V7.56589Z" fill="#0072FF"/>
<path d="M6.71079 9.12237C6.71079 8.1155 5.89129 7.29968 4.88054 7.29968C3.86979 7.29968 3.05029 8.1155 3.05029 9.12237C3.05029 10.1289 3.86979 10.9451 4.88054 10.9451C5.89129 10.9451 6.71079 10.1289 6.71079 9.12237ZM4.27046 9.12237C4.27046 8.78655 4.54362 8.51481 4.88054 8.51481C5.21746 8.51481 5.49062 8.78655 5.49062 9.12237C5.49062 9.45789 5.21746 9.72993 4.88054 9.72993C4.54362 9.72993 4.27046 9.45789 4.27046 9.12237Z" fill="#0072FF"/>
<path d="M15.862 10.9451C16.8727 10.9451 17.6922 10.1289 17.6922 9.12237C17.6922 8.1155 16.8727 7.29968 15.862 7.29968C14.8512 7.29968 14.0317 8.1155 14.0317 9.12237C14.0317 10.1289 14.8512 10.9451 15.862 10.9451ZM15.862 8.51481C16.1989 8.51481 16.4721 8.78655 16.4721 9.12237C16.4721 9.45789 16.1989 9.72993 15.862 9.72993C15.5251 9.72993 15.2519 9.45789 15.2519 9.12237C15.2519 8.78655 15.5251 8.51481 15.862 8.51481Z" fill="#0072FF"/>
<path d="M8.10993 2.61724L7.49985 3.2248C7.34107 3.37728 7.27762 3.60304 7.33332 3.81545C7.38933 4.02786 7.55585 4.19399 7.76914 4.24946C7.98243 4.30494 8.20942 4.24175 8.36254 4.08363L8.97262 3.47607C9.20379 3.23785 9.20051 2.85901 8.96518 2.62465C8.72984 2.39029 8.34914 2.38673 8.10993 2.61724Z" fill="white"/>
<path d="M12.3799 2.61724L11.7699 3.2248C11.6111 3.37728 11.5476 3.60304 11.6033 3.81545C11.6593 4.02786 11.8259 4.19399 12.0392 4.24946C12.2524 4.30494 12.4794 4.24175 12.6326 4.08363L13.2426 3.47607C13.4738 3.23785 13.4705 2.85901 13.2352 2.62465C12.9999 2.39029 12.6192 2.38673 12.3799 2.61724Z" fill="white"/>
</svg>
