<svg width="25" height="25" viewBox="0 0 25 25" fill="none" xmlns="http://www.w3.org/2000/svg">
<path d="M5.72916 3.125H19.2708C19.5587 3.125 19.7917 2.89204 19.7917 2.60415C19.7917 2.31626 19.5587 2.0833 19.2708 2.0833H5.72916C5.44127 2.0833 5.20831 2.31626 5.20831 2.60415C5.20831 2.89204 5.44132 3.125 5.72916 3.125Z" fill="#0072FF"/>
<path d="M7.38423 4.3915C7.04297 4.88486 6.25 6.10454 6.25 6.77085C6.25 7.63247 6.95088 8.33335 7.8125 8.33335C8.67412 8.33335 9.375 7.63247 9.375 6.77085C9.375 6.10454 8.58203 4.88486 8.24077 4.3915C8.04648 4.11074 7.57852 4.11074 7.38423 4.3915Z" fill="#0072FF"/>
<path d="M8.33339 6.77188C8.3329 7.05874 8.0994 7.2917 7.81254 7.2917C7.52518 7.2917 7.29169 7.05772 7.29169 6.77188C7.29574 6.61216 7.51244 6.15845 7.81254 5.65289C8.11264 6.15743 8.32929 6.61216 8.33339 6.77188Z" fill="white"/>
<path d="M11.5509 5.43316C11.2096 5.92652 10.4167 7.1462 10.4167 7.8125C10.4167 8.67413 11.1176 9.375 11.9792 9.375C12.8408 9.375 13.5417 8.67413 13.5417 7.8125C13.5417 7.1462 12.7487 5.92652 12.4075 5.43316C12.2131 5.1524 11.7452 5.1524 11.5509 5.43316Z" fill="#0072FF"/>
<path d="M12.5 7.81353C12.4995 8.10039 12.266 8.33335 11.9792 8.33335C11.6918 8.33335 11.4583 8.09937 11.4583 7.81353C11.4624 7.65381 11.6791 7.2001 11.9792 6.69453C12.2793 7.19912 12.496 7.65381 12.5 7.81353Z" fill="white"/>
<path d="M15.7176 4.3915C15.3763 4.88486 14.5834 6.10454 14.5834 6.77085C14.5834 7.63247 15.2843 8.33335 16.1459 8.33335C17.0075 8.33335 17.7084 7.63247 17.7084 6.77085C17.7084 6.10454 16.9154 4.88486 16.5741 4.3915C16.3798 4.11074 15.9119 4.11074 15.7176 4.3915Z" fill="#0072FF"/>
<path d="M16.6666 6.77188C16.6662 7.05874 16.4327 7.2917 16.1458 7.2917C15.8584 7.2917 15.6249 7.05772 15.6249 6.77188C15.629 6.61216 15.8457 6.15845 16.1458 5.65289C16.4459 6.15743 16.6626 6.61216 16.6666 6.77188Z" fill="white"/>
<path d="M23.6938 14.4455L18.5374 13.5859L17.0431 11.3444C16.6555 10.7636 16.0075 10.4167 15.3097 10.4167H7.60703C6.90918 10.4167 6.26118 10.7636 5.87363 11.3444L4.36567 13.6064L1.18408 14.4018C0.487256 14.5757 0 15.1993 0 15.9175V18.5344C0 19.1483 0.239062 19.7256 0.673437 20.16C1.10171 20.5877 1.69375 20.8334 2.29902 20.8334H3.69849C3.94048 22.0206 4.99204 22.9167 6.25 22.9167C7.50796 22.9167 8.55952 22.0206 8.80151 20.8334H15.6776C15.9196 22.0206 16.9712 22.9167 18.2291 22.9167C19.4871 22.9167 20.5387 22.0206 20.7807 20.8334H23.115C23.5127 20.8334 23.8698 20.6132 24.0478 20.2576L24.8901 18.572C24.9084 18.5354 24.9227 18.4967 24.9318 18.4571L24.9867 18.2241C24.9959 18.1855 24.9999 18.1458 24.9999 18.1061V15.9867C25 15.2191 24.4507 14.5711 23.6938 14.4455Z" fill="#212121"/>
<path d="M6.74034 11.9222C6.93361 11.6318 7.25812 11.4584 7.60704 11.4584H15.3097C15.6586 11.4584 15.9831 11.6318 16.1764 11.9222L17.256 13.5417H5.66071L6.74034 11.9222Z" fill="#BDDDF4"/>
<path d="M6.74034 11.9222C6.93361 11.6318 7.25812 11.4584 7.60704 11.4584H15.3097C15.6586 11.4584 15.9831 11.6318 16.1764 11.9222L17.256 13.5417H5.66071L6.74034 11.9222Z" fill="url(#paint0_linear)"/>
<path d="M6.25 21.875C7.11295 21.875 7.8125 21.1754 7.8125 20.3125C7.8125 19.4496 7.11295 18.75 6.25 18.75C5.38706 18.75 4.6875 19.4496 4.6875 20.3125C4.6875 21.1754 5.38706 21.875 6.25 21.875Z" fill="white"/>
<path d="M18.2292 21.875C19.0921 21.875 19.7917 21.1754 19.7917 20.3125C19.7917 19.4496 19.0921 18.75 18.2292 18.75C17.3662 18.75 16.6667 19.4496 16.6667 20.3125C16.6667 21.1754 17.3662 21.875 18.2292 21.875Z" fill="white"/>
<path d="M23.9584 18.0456L23.1151 19.7917H20.7808C20.5388 18.6044 19.4872 17.7083 18.2292 17.7083C16.9713 17.7083 15.9197 18.6044 15.6777 19.7917H8.80155C8.55956 18.6044 7.508 17.7083 6.25004 17.7083C4.99208 17.7083 3.94052 18.6044 3.69852 19.7917H2.29901C1.9684 19.7917 1.64388 19.6574 1.40995 19.4234C1.17294 19.1858 1.04169 18.87 1.04169 18.5343V15.9175C1.04169 15.6779 1.20443 15.4704 1.43636 15.4119L4.7516 14.5834H18.1865L23.523 15.473C23.7753 15.5146 23.9584 15.7308 23.9584 15.9867V18.0456Z" fill="white"/>
<defs>
<linearGradient id="paint0_linear" x1="6.94219" y1="10.7949" x2="16.4663" y2="15.2361" gradientUnits="userSpaceOnUse">
<stop stop-color="white" stop-opacity="0.2"/>
<stop offset="1" stop-color="white" stop-opacity="0"/>
</linearGradient>
</defs>
</svg>
